<svg xmlns="http://www.w3.org/2000/svg" xmlns:xlink="http://www.w3.org/1999/xlink" viewBox="0 0 322.3 391.93"><defs><style>.cls-1{isolation:isolate;}.cls-2{fill:#828ba4;}.cls-2,.cls-38,.cls-56{opacity:0.3;}.cls-13,.cls-14,.cls-17,.cls-2,.cls-21,.cls-38,.cls-56{mix-blend-mode:multiply;}.cls-3{opacity:0.8;}.cls-4{fill:#454c61;}.cls-5{fill:#30384f;}.cls-18,.cls-23,.cls-53,.cls-6,.cls-65,.cls-67{fill:#fff;}.cls-7{fill:#f5d533;}.cls-8{fill:#ff6469;}.cls-9{fill:#75c1f8;}.cls-10{fill:#b8dffb;}.cls-11{fill:#3fa9f5;}.cls-12{fill:#fbeda7;}.cls-13{fill:#f9e88f;}.cls-14,.cls-23,.cls-65,.cls-67{font-size:13.8px;}.cls-14{fill:#79829d;font-family:Comfortaa;}.cls-14,.cls-65{letter-spacing:-0.02em;}.cls-15,.cls-19,.cls-24,.cls-25,.cls-66,.cls-68{opacity:0.7;}.cls-15,.cls-19,.cls-24,.cls-25,.cls-60,.cls-66,.cls-68{mix-blend-mode:overlay;}.cls-15{fill:url(#Degradado_sin_nombre_12);}.cls-16{fill:#b4ecff;}.cls-17{fill:#95d0f9;}.cls-18{font-size:11.65px;letter-spacing:0.05em;}.cls-18,.cls-23,.cls-53,.cls-65,.cls-67{font-family:Comfortaa-Bold, Comfortaa Bold;font-weight:700;}.cls-19{fill:url(#Degradado_sin_nombre_12-2);}.cls-20{fill:#ffbcbe;}.cls-21{fill:#ffaaac;}.cls-22{fill:#ff7b80;}.cls-23{letter-spacing:0.05em;}.cls-24{fill:url(#Degradado_sin_nombre_12-3);}.cls-25{fill:url(#Degradado_sin_nombre_12-4);}.cls-26{fill:#4f5669;}.cls-27{fill:#3a4258;}.cls-28{fill:#7f8492;}.cls-29{fill:#6e7484;}.cls-30,.cls-59{fill:#07c;}.cls-31{fill:#eaecf0;}.cls-32{fill:#c8ccd7;}.cls-33{fill:#dfe2e8;}.cls-34{fill:#d0d3dc;}.cls-35{fill:#fcfcfd;}.cls-36{fill:#c0c4d1;}.cls-37{fill:#a7adbf;}.cls-38,.cls-41,.cls-63{fill:#616c8c;}.cls-39{fill:#b0b5c5;}.cls-40{fill:#9098ae;}.cls-41{fill-rule:evenodd;}.cls-42{fill:#4d4d4d;}.cls-43{fill:#333;}.cls-44{fill:#ffc1c3;}.cls-45{fill:#69bcf7;}.cls-46{fill:#596072;}.cls-47{fill:#898e9b;}.cls-48{fill:#a9d8fa;}.cls-49{fill:#f3f3f4;}.cls-50{fill:#8189a3;}.cls-51{fill:#e2e3e6;}.cls-52{fill:url(#Degradado_sin_nombre_5);}.cls-53{font-size:9.69px;letter-spacing:0.2em;}.cls-54{letter-spacing:0.18em;}.cls-55{fill:#9fa5b9;}.cls-56{fill:#878fa8;}.cls-57{fill:#626879;}.cls-58{fill:#cbced9;}.cls-59{opacity:0.6;}.cls-60{fill:url(#Degradado_sin_nombre_10);}.cls-61{fill:#666c7d;}.cls-62{fill:#c6cad6;}.cls-64{fill:#84c8f9;}.cls-66{fill:url(#Degradado_sin_nombre_12-5);}.cls-67{letter-spacing:0.05em;}.cls-68{fill:url(#Degradado_sin_nombre_12-6);}</style><linearGradient id="Degradado_sin_nombre_12" x1="167.9" y1="48.97" x2="152.06" y2="1.09" gradientUnits="userSpaceOnUse"><stop offset="0" stop-color="#edfaff"/><stop offset="1" stop-color="#30384f" stop-opacity="0"/></linearGradient><linearGradient id="Degradado_sin_nombre_12-2" x1="48.48" y1="66.03" x2="32.64" y2="18.15" xlink:href="#Degradado_sin_nombre_12"/><linearGradient id="Degradado_sin_nombre_12-3" x1="111.03" y1="37.35" x2="95.19" y2="-10.53" xlink:href="#Degradado_sin_nombre_12"/><linearGradient id="Degradado_sin_nombre_12-4" x1="22.89" y1="135.27" x2="7.05" y2="87.38" xlink:href="#Degradado_sin_nombre_12"/><linearGradient id="Degradado_sin_nombre_5" x1="126.32" y1="47.63" x2="140.42" y2="133.68" gradientUnits="userSpaceOnUse"><stop offset="0" stop-color="#3fa9f5"/><stop offset="1" stop-color="#65d8ff"/></linearGradient><linearGradient id="Degradado_sin_nombre_10" x1="1459.91" y1="170.56" x2="1488.52" y2="250.88" gradientTransform="translate(-1091.84 1139.42) rotate(-45)" gradientUnits="userSpaceOnUse"><stop offset="0" stop-color="#30384f" stop-opacity="0"/><stop offset="1" stop-color="#edfaff"/></linearGradient><linearGradient id="Degradado_sin_nombre_12-5" x1="65.79" y1="172.11" x2="49.95" y2="124.23" xlink:href="#Degradado_sin_nombre_12"/><linearGradient id="Degradado_sin_nombre_12-6" x1="210.43" y1="81.12" x2="194.59" y2="33.24" xlink:href="#Degradado_sin_nombre_12"/></defs><g class="cls-1"><g id="Слой_2" data-name="Слой 2"><g id="Учебная_программа" data-name="Учебная программа"><g id="преимущества"><g id="OBJECT"><g id="OBJECTS"><path class="cls-2" d="M233.9,235.12,68.26,330.75l-.11,0h0L52,334.18a3.79,3.79,0,0,0-4.38,3.06h0a3.78,3.78,0,0,0,3.06,4.38l18.54-3.92,72.28,41.74L131,381.66a3.77,3.77,0,0,0-4.38,3.06h0a3.79,3.79,0,0,0,3.06,4.38l20.9-4.42,5.95,3.43v.06l38.17-22.79a17.65,17.65,0,0,0-.08,2.82c.8,14.3,19.47,24.88,41.69,23.63s39.59-13.84,38.79-28.14c-.74-13.15-16.59-23.14-36.43-23.69l83.58-47.51v-6.31l0,0Z"/><g class="cls-3"><polygon class="cls-4" points="100.86 89.99 38.12 127.02 37.37 126.64 37.36 80.82 100.86 44.17 101.6 44.55 100.86 89.99"/><polygon class="cls-5" points="101.61 90.37 38.12 127.02 38.12 81.2 101.61 44.55 101.61 90.37"/><polygon class="cls-6" points="44.08 86.21 42.31 87.23 42.31 85.79 44.08 84.77 44.08 86.21"/><polygon class="cls-7" points="69.91 71.3 46.05 85.08 46.05 83.63 69.91 69.86 69.91 71.3"/><polygon class="cls-6" points="44.08 89.6 42.31 90.62 42.31 89.18 44.08 88.16 44.08 89.6"/><polygon class="cls-7" points="57.07 82.1 46.05 88.47 46.05 87.02 57.07 80.66 57.07 82.1"/><polygon class="cls-6" points="44.08 92.99 42.31 94.01 42.31 92.57 44.08 91.55 44.08 92.99"/><polygon class="cls-7" points="62.77 82.2 46.05 91.85 46.05 90.41 62.77 80.76 62.77 82.2"/><polygon class="cls-6" points="44.08 96.38 42.31 97.4 42.31 95.95 44.08 94.94 44.08 96.38"/><polygon class="cls-7" points="66.01 83.72 46.05 95.24 46.05 93.8 66.01 82.28 66.01 83.72"/><polygon class="cls-6" points="44.08 101.31 42.31 102.33 42.31 100.88 44.08 99.86 44.08 101.31"/><polygon class="cls-8" points="58.69 92.88 46.05 100.17 46.05 98.73 58.69 91.43 58.69 92.88"/><polygon class="cls-6" points="44.08 104.7 42.31 105.72 42.31 104.27 44.08 103.25 44.08 104.7"/><polygon class="cls-8" points="69.25 90.17 46.05 103.56 46.05 102.11 69.25 88.72 69.25 90.17"/><polygon class="cls-6" points="44.08 108.08 42.31 109.1 42.31 107.66 44.08 106.64 44.08 108.08"/><polygon class="cls-8" points="55.19 101.67 46.05 106.95 46.05 105.5 55.19 100.22 55.19 101.67"/><polygon class="cls-6" points="44.08 111.47 42.31 112.49 42.31 111.05 44.08 110.03 44.08 111.47"/><polygon class="cls-8" points="62.4 100.89 46.05 110.34 46.05 108.89 62.4 99.45 62.4 100.89"/><polygon class="cls-6" points="81.68 64.16 83.03 63.38 83.03 62.28 81.68 63.06 81.68 64.16"/><polygon class="cls-6" points="93.9 56.01 84.53 61.42 84.53 62.52 93.9 57.11 93.9 56.01"/><polygon class="cls-6" points="81.68 66.75 83.03 65.97 83.03 64.87 81.68 65.64 81.68 66.75"/><polygon class="cls-6" points="88.86 61.5 84.53 64 84.53 65.1 88.86 62.6 88.86 61.5"/><polygon class="cls-6" points="81.68 69.33 83.03 68.55 83.03 67.45 81.68 68.23 81.68 69.33"/><polygon class="cls-6" points="91.1 62.8 84.53 66.58 84.53 67.69 91.1 63.9 91.1 62.8"/><polygon class="cls-6" points="81.68 71.92 83.03 71.14 83.03 70.04 81.68 70.81 81.68 71.92"/><polygon class="cls-6" points="92.37 64.64 84.53 69.17 84.53 70.27 92.37 65.75 92.37 64.64"/><polygon class="cls-6" points="81.68 75.67 83.03 74.9 83.03 73.79 81.68 74.57 81.68 75.67"/><polygon class="cls-6" points="90.64 69.4 84.53 72.93 84.53 74.03 90.64 70.5 90.64 69.4"/><polygon class="cls-6" points="81.68 78.26 83.03 77.48 83.03 76.38 81.68 77.16 81.68 78.26"/><polygon class="cls-6" points="84.53 75.51 84.53 76.61 95.74 70.14 95.74 69.04 84.53 75.51"/><polygon class="cls-6" points="81.68 80.84 83.03 80.06 83.03 78.96 81.68 79.74 81.68 80.84"/><polygon class="cls-6" points="88.95 75.55 84.53 78.1 84.53 79.2 88.95 76.65 88.95 75.55"/><polygon class="cls-6" points="81.68 83.43 83.03 82.65 83.03 81.55 81.68 82.32 81.68 83.43"/><polygon class="cls-6" points="84.53 81.78 92.43 77.22 92.43 76.12 84.53 80.68 84.53 81.78"/></g><g class="cls-3"><polygon class="cls-9" points="135.03 88.99 72.29 126.02 71.53 125.64 71.53 79.82 135.03 43.17 135.76 43.55 135.03 88.99"/><polygon class="cls-10" points="135.82 89.43 72.32 126.08 72.32 80.26 135.81 43.61 135.82 89.43"/><polygon class="cls-11" points="124.08 84.32 84.06 107.42 84.06 86.01 124.08 62.91 124.08 84.32"/><polygon class="cls-6" points="120.84 69.9 87.3 89.27 87.3 88.34 120.84 68.97 120.84 69.9"/><polygon class="cls-6" points="120.84 73.13 87.3 92.5 87.3 91.58 120.84 72.21 120.84 73.13"/><polygon class="cls-6" points="120.84 76.37 87.3 95.73 87.3 94.81 120.84 75.44 120.84 76.37"/><polygon class="cls-11" points="135.81 48.03 72.32 84.68 72.32 80.26 135.81 43.61 135.81 48.03"/></g><path class="cls-7" d="M146.16,25.56A8,8,0,0,0,145,29.41V50.76c0,2.5,5.13,6,7.29,4.77l16.91-12.29a8,8,0,0,0,2.81-3C164,35.72,154.6,29.41,146.16,25.56Z"/><path class="cls-12" d="M169.22,43.24,152.31,55.53c-2.16,1.25-7.29-2.27-7.29-4.77V29.41a8.63,8.63,0,0,1,3.91-6.78L167.43,12c2.16-1.25,7.55,1.31,7.58,3.53l-1.87,21A8.64,8.64,0,0,1,169.22,43.24Z"/><path class="cls-7" d="M146.16,25.56A8,8,0,0,0,145,29.41V50.76c0,2.5,5.13,6,7.29,4.77l16.91-12.29a8,8,0,0,0,2.81-3C164,35.72,154.6,29.41,146.16,25.56Z"/><path class="cls-13" d="M146.16,25.56A8,8,0,0,0,145,29.41V50.76c0,2.5,5.13,6,7.29,4.77l16.91-12.29a8,8,0,0,0,2.81-3C164,35.72,154.6,29.41,146.16,25.56Z"/><path class="cls-7" d="M171.3,44.63,152.8,55.31c-2.16,1.24-3.91.23-3.91-2.26V31.69a8.66,8.66,0,0,1,3.92-6.78l18.5-10.68c2.16-1.25,3.91-.24,3.91,2.26V37.85A8.67,8.67,0,0,1,171.3,44.63Z"/><text class="cls-14" transform="matrix(0.87, -0.5, 0, 1, 155.18, 43.14)">&lt;/&gt;</text><path class="cls-15" d="M175.21,22.19v-5.7c0-2.5-1.75-3.51-3.91-2.26L152.8,24.91a8.66,8.66,0,0,0-3.92,6.78V46.77C156.31,35.83,165.51,27,175.21,22.19Z"/><path class="cls-16" d="M49.8,60.3,32.89,72.59c-2.17,1.25-7.3-2.27-7.3-4.76V46.47a8.63,8.63,0,0,1,3.92-6.78L48,29c2.16-1.25,7.56,1.32,7.58,3.54l-1.87,21A8.63,8.63,0,0,1,49.8,60.3Z"/><path class="cls-11" d="M26.73,42.62a8.06,8.06,0,0,0-1.14,3.85V67.83c0,2.49,5.13,6,7.3,4.76L49.8,60.3a8.08,8.08,0,0,0,2.81-3C44.61,52.78,35.17,46.47,26.73,42.62Z"/><path class="cls-11" d="M26.73,42.62a8.06,8.06,0,0,0-1.14,3.85V67.83c0,2.49,5.13,6,7.3,4.76L49.8,60.3a8.08,8.08,0,0,0,2.81-3C44.61,52.78,35.17,46.47,26.73,42.62Z"/><path class="cls-17" d="M26.73,42.62a8.06,8.06,0,0,0-1.14,3.85V67.83c0,2.49,5.13,6,7.3,4.76L49.8,60.3a8.08,8.08,0,0,0,2.81-3C44.61,52.78,35.17,46.47,26.73,42.62Z"/><path class="cls-11" d="M51.87,61.69,33.38,72.37c-2.17,1.24-3.92.23-3.92-2.26V48.75A8.65,8.65,0,0,1,33.37,42l18.5-10.68c2.16-1.25,3.92-.24,3.92,2.26V54.91A8.68,8.68,0,0,1,51.87,61.69Z"/><text class="cls-18" transform="matrix(0.87, -0.5, 0, 1, 32.91, 61.32)">{...}</text><path class="cls-19" d="M55.79,39.25v-5.7c0-2.5-1.76-3.51-3.92-2.26L33.37,42a8.65,8.65,0,0,0-3.91,6.78V63.83C36.89,52.89,46.08,44,55.79,39.25Z"/><path class="cls-20" d="M112.35,31.62,95.44,43.91c-2.16,1.25-7.29-2.27-7.29-4.77V17.79A8.63,8.63,0,0,1,92.06,11L110.56.33c2.16-1.25,7.55,1.31,7.58,3.53l-1.87,21A8.66,8.66,0,0,1,112.35,31.62Z"/><path class="cls-8" d="M89.29,13.94a7.92,7.92,0,0,0-1.14,3.85V39.14c0,2.5,5.13,6,7.29,4.77l16.91-12.29a7.92,7.92,0,0,0,2.81-3C107.17,24.1,97.73,17.78,89.29,13.94Z"/><path class="cls-21" d="M89.29,13.94a7.92,7.92,0,0,0-1.14,3.85V39.14c0,2.5,5.13,6,7.29,4.77l16.91-12.29a7.92,7.92,0,0,0,2.81-3C107.17,24.1,97.73,17.78,89.29,13.94Z"/><path class="cls-22" d="M114.43,33,95.93,43.68c-2.16,1.25-3.91.24-3.91-2.26V20.07a8.63,8.63,0,0,1,3.91-6.78l18.5-10.68c2.16-1.25,3.91-.24,3.91,2.26V26.23A8.67,8.67,0,0,1,114.43,33Z"/><text class="cls-23" transform="matrix(0.87, -0.5, 0, 1, 99.3, 31.21)">JS</text><path class="cls-24" d="M118.34,10.57V4.87c0-2.5-1.75-3.51-3.91-2.26L95.93,13.29A8.63,8.63,0,0,0,92,20.07V35.15C99.44,24.21,108.64,15.35,118.34,10.57Z"/><path class="cls-7" d="M1.14,111.85A8.09,8.09,0,0,0,0,115.7v21.36c0,2.49,5.13,6,7.3,4.76l16.9-12.28a8.1,8.1,0,0,0,2.82-3C19,122,9.58,115.7,1.14,111.85Z"/><path class="cls-12" d="M24.2,129.54,7.3,141.82c-2.17,1.25-7.3-2.27-7.3-4.76V115.7a8.63,8.63,0,0,1,3.92-6.78L22.41,98.24C24.57,97,30,99.56,30,101.78l-1.87,21A8.65,8.65,0,0,1,24.2,129.54Z"/><path class="cls-7" d="M1.14,111.85A8.09,8.09,0,0,0,0,115.7v21.36c0,2.49,5.13,6,7.3,4.76l16.9-12.28a8.1,8.1,0,0,0,2.82-3C19,122,9.58,115.7,1.14,111.85Z"/><path class="cls-13" d="M1.14,111.85A8.09,8.09,0,0,0,0,115.7v21.36c0,2.49,5.13,6,7.3,4.76l16.9-12.28a8.1,8.1,0,0,0,2.82-3C19,122,9.58,115.7,1.14,111.85Z"/><path class="cls-7" d="M26.28,130.92,7.79,141.6c-2.17,1.25-3.92.23-3.92-2.26V118a8.65,8.65,0,0,1,3.91-6.78l18.5-10.68c2.16-1.25,3.92-.23,3.92,2.26v21.36A8.66,8.66,0,0,1,26.28,130.92Z"/><text class="cls-14" transform="matrix(0.87, -0.5, 0, 1, 7.44, 131.17)">XML</text><path class="cls-25" d="M30.2,108.48v-5.7c0-2.49-1.76-3.51-3.92-2.26L7.78,111.2A8.65,8.65,0,0,0,3.87,118v15.08C11.29,122.12,20.49,113.26,30.2,108.48Z"/><path class="cls-5" d="M204.46,321.39l.53,7.23a7.75,7.75,0,0,1-2.68,7.2c-3.58,3-8.94,1.88-12.87,0-3.11-1.49-12.43-5.7-16.35-12-1-1.56-3.23-5.09.92-7.29,2.67-1.41,8.24.78,12.2,1.68,2.43.55,6.37,1.16,6.37,1.16s3.52-2.37,7.09-.9S204.71,318.43,204.46,321.39Z"/><path class="cls-26" d="M189.38,314s-.9,7.38,6.07,8.93,11.83-.43,12.65-4.35c.51-2.43,2.86-25.25,4.29-38l-18.29-14.2Z"/><path class="cls-26" d="M261.29,285.22c-.86-6.42-3.26-12.58-4-19l-16.37,5s-25.37-11.12-32.5-12.1c-4.1-.56-7.66-.75-11.44,2.7a11.2,11.2,0,0,0-3.89,9.41l.33,3L221.07,289c0-.05,10.41,5.71,15.65,7.24,8,2.33,18.73.43,22.87-1.9.57-.32,1.32-.72,2.19-1.19A60,60,0,0,0,261.29,285.22Z"/><path class="cls-27" d="M181.79,336.62l.52,7.22a7.73,7.73,0,0,1-2.67,7.2c-3.59,3-8.94,1.88-12.87,0-3.11-1.49-12.43-5.7-16.35-12-1-1.56-3.23-5.08.91-7.28,2.68-1.42,8.25.77,12.21,1.68,2.43.55,6.36,1.16,6.36,1.16s3.53-2.37,7.09-.9S182,333.66,181.79,336.62Z"/><path class="cls-5" d="M264.24,376.62a1.91,1.91,0,0,0-2.46.05l-.06-.08-5,2.83,4,7.42,5.66-2.77c.56-.38.88-1.09.88-2.51A6.09,6.09,0,0,0,264.24,376.62Z"/><ellipse class="cls-5" cx="258.71" cy="383.13" rx="2.47" ry="4.28" transform="translate(-156.91 180.68) rotate(-30)"/><path class="cls-5" d="M203.3,378.13a1.92,1.92,0,0,1,2.46,0l.05-.07,5,2.83-4,7.42-5.66-2.77c-.56-.38-.88-1.09-.88-2.51A6.09,6.09,0,0,1,203.3,378.13Z"/><path class="cls-5" d="M205.81,386.38c0,1.93,1.35,2.71,3,1.75a6.68,6.68,0,0,0,3-5.24c0-1.93-1.35-2.71-3-1.74A6.67,6.67,0,0,0,205.81,386.38Z"/><path class="cls-5" d="M259.64,351.46a1.93,1.93,0,0,1,2.46.05l.06-.08,5,2.83-4,7.42-5.66-2.76c-.57-.38-.88-1.09-.88-2.52A6.09,6.09,0,0,1,259.64,351.46Z"/><path class="cls-5" d="M262.15,359.72c0,1.93,1.36,2.71,3,1.75a6.69,6.69,0,0,0,3-5.24c0-1.93-1.35-2.71-3-1.75A6.7,6.7,0,0,0,262.15,359.72Z"/><path class="cls-5" d="M212.42,351.46a1.93,1.93,0,0,0-2.46.05l-.05-.08-5,2.83,4,7.42,5.66-2.76c.56-.38.88-1.09.88-2.52A6.1,6.1,0,0,0,212.42,351.46Z"/><path class="cls-5" d="M209.91,359.72c0,1.93-1.35,2.71-3,1.75a6.7,6.7,0,0,1-3-5.24c0-1.93,1.36-2.71,3-1.75A6.69,6.69,0,0,1,209.91,359.72Z"/><path class="cls-28" d="M235.81,360.91l-25.95-12.62a3.28,3.28,0,0,0-3.19.19,3.56,3.56,0,0,0-2,2.37v1.84l26.78,13.42Z"/><path class="cls-28" d="M232.54,361.91,260,348.29a3,3,0,0,1,3,.19,3.05,3.05,0,0,1,1.87,2.37v1.84l-28.14,14.42Z"/><path class="cls-4" d="M233.39,353h1.17a5.29,5.29,0,0,1,5.29,5.29V369a0,0,0,0,1,0,0H228.1a0,0,0,0,1,0,0V358.31A5.29,5.29,0,0,1,233.39,353Z"/><path class="cls-5" d="M231.39,339.75V354.7a3,3,0,0,0,3.05,3,2.13,2.13,0,0,0,2.39-2.68V339.75Z"/><path class="cls-4" d="M228.22,326.05v14.09a7.36,7.36,0,0,0,5.49,2.51,8.6,8.6,0,0,0,5.84-2.51V324Z"/><path class="cls-29" d="M166,330.34s-.87,7.17,5.9,8.67,11.49-.42,12.29-4.23c.49-2.36,2.78-24.53,4.17-36.95L170.54,284Z"/><path class="cls-30" d="M212.42,292.09c7.2-4.61,12.12-7.17,18.11-8,8.64-1.25,20,2.6,26.41,5.29,4.11,1.73,16.27,6.87,13.42,13.58-2,4.77-12,8.22-19.28,11.74s-16.77,9.72-24.82,10.23-16.86-3.78-24.15-8.55-6.54-11.66-1.76-15.94C204.21,296.94,206.13,296.12,212.42,292.09Z"/><path class="cls-29" d="M262.27,273.07l-44,13.34s-25.37-11.12-32.5-12.09c-4.1-.56-7.67-.76-11.45,2.7a11.19,11.19,0,0,0-3.88,9.4l.32,3,27.64,14.8c0-.06,10.41,5.71,15.66,7.23,8,2.33,18.73.43,22.87-1.9s17.59-8.8,22.77-14.49S262.27,273.07,262.27,273.07Z"/><path class="cls-5" d="M196.5,306.93V314a17,17,0,0,0,8.76,11.23c7.54,4,19.3,7.38,25,5.2s27.18-13.25,31.87-15.76,7.05-3.86,7.89-6,.17-8.89.17-8.89-12.24,9.73-26.33,14.43-19.49,7.37-26.36,5.7S196.5,306.93,196.5,306.93Z"/><path class="cls-4" d="M227.26,329.07c-2.09-3.34-.71-7,1.55-9.91-4.37,1.23-7.64,1.58-11.31.69-6.88-1.68-21-12.92-21-12.92V314a17,17,0,0,0,8.76,11.23c7,3.74,17.62,6.89,23.67,5.59A14.49,14.49,0,0,1,227.26,329.07Z"/><path class="cls-28" d="M203.36,379.52s-2.38-3.85,1.3-5.2,24.22-11.57,24.22-11.57,4.42.67,4.42,2.35a18.24,18.24,0,0,0,.5,3.69s-22.3,10.4-24.48,11.57S205.29,380.7,203.36,379.52Z"/><path class="cls-28" d="M266,379.52s1.89-3.85-1.8-5.2-24-12.07-24-12.07-4.26.67-4.26,2.35v3.69s22.14,10.9,24.32,12.07S264.09,380.7,266,379.52Z"/><path class="cls-31" d="M130.4,388.84h0a3.78,3.78,0,0,1-3.78-3.78V299.68h7.56v85.38A3.78,3.78,0,0,1,130.4,388.84Z"/><path class="cls-32" d="M130.19,299.68v89.14l.21,0a3.78,3.78,0,0,0,3.78-3.78V299.68Z"/><path class="cls-31" d="M51.29,341.27h0a3.78,3.78,0,0,1-3.78-3.78V252.11h7.56v85.38A3.78,3.78,0,0,1,51.29,341.27Z"/><path class="cls-32" d="M51.08,252.11v89.14l.21,0a3.78,3.78,0,0,0,3.78-3.78V252.11Z"/><path class="cls-31" d="M276.92,209h7.56a0,0,0,0,1,0,0v85.38a3.78,3.78,0,0,1-3.78,3.78h0a3.78,3.78,0,0,1-3.78-3.78V209A0,0,0,0,1,276.92,209Z"/><path class="cls-32" d="M280.49,209v89.14l.21,0a3.78,3.78,0,0,0,3.78-3.78V209Z"/><path class="cls-33" d="M201.59,250.59h0a3.78,3.78,0,0,1-3.78-3.78V161.43h7.55v85.38A3.77,3.77,0,0,1,201.59,250.59Z"/><path class="cls-34" d="M201.38,161.43v89.14l.21,0a3.77,3.77,0,0,0,3.77-3.78V161.43Z"/><polygon class="cls-35" points="291.88 206.54 126.16 302.22 37.76 251.18 203.48 155.5 291.88 206.54"/><polygon class="cls-36" points="126.14 308.5 126.14 302.19 37.74 251.15 37.74 257.47 126.14 308.5"/><polygon class="cls-37" points="291.85 212.87 291.85 206.56 126.13 302.24 126.13 308.55 291.85 212.87"/><polygon class="cls-38" points="205.85 211.13 149.65 244.15 126 231.77 126.56 236.72 149.94 247.04 206.05 214.52 205.85 211.13"/><polygon class="cls-39" points="126 230.87 126.56 235.83 149.94 246.14 149.65 243.25 126 230.87"/><polygon class="cls-6" points="183.99 198.02 205.87 210.34 149.65 243.25 126 230.87 183.99 198.02"/><polygon class="cls-40" points="205.85 210.24 149.65 243.25 149.94 246.14 206.05 213.63 205.85 210.24"/><polygon class="cls-41" points="134.05 231.33 131.91 230.1 134.14 228.8 136.28 230.03 134.05 231.33"/><polygon class="cls-41" points="138.41 228.8 136.27 227.57 138.5 226.28 140.64 227.51 138.41 228.8"/><polygon class="cls-41" points="141.2 227.18 139.06 225.95 141.3 224.66 143.44 225.89 141.2 227.18"/><polygon class="cls-41" points="144 225.56 141.86 224.33 144.09 223.04 146.23 224.27 144 225.56"/><polygon class="cls-41" points="148.36 223.04 146.22 221.81 148.45 220.51 150.59 221.74 148.36 223.04"/><polygon class="cls-41" points="151.15 221.42 149.01 220.19 151.25 218.89 153.39 220.12 151.15 221.42"/><polygon class="cls-41" points="153.95 219.8 151.81 218.57 154.04 217.27 156.18 218.5 153.95 219.8"/><polygon class="cls-41" points="158.31 217.27 156.17 216.04 158.41 214.75 160.54 215.98 158.31 217.27"/><polygon class="cls-41" points="161.1 215.65 158.96 214.42 161.2 213.13 163.34 214.36 161.1 215.65"/><polygon class="cls-41" points="163.9 214.03 161.76 212.81 164 211.51 166.13 212.74 163.9 214.03"/><polygon class="cls-41" points="168.37 211.44 166.23 210.21 168.47 208.92 170.61 210.15 168.37 211.44"/><polygon class="cls-41" points="171.03 209.83 168.93 208.57 171.23 207.29 173.33 208.56 171.03 209.83"/><polygon class="cls-41" points="173.96 208.2 171.82 206.97 174.06 205.68 176.2 206.91 173.96 208.2"/><polygon class="cls-41" points="177.54 206.13 175.4 204.9 177.63 203.61 179.77 204.84 177.54 206.13"/><polygon class="cls-41" points="180.33 204.51 178.19 203.28 180.43 201.99 182.57 203.22 180.33 204.51"/><polygon class="cls-41" points="183.13 202.89 180.99 201.66 183.22 200.37 185.37 201.6 183.13 202.89"/><polygon class="cls-41" points="187.09 205.17 184.95 203.94 187.18 202.64 189.32 203.87 187.09 205.17"/><polygon class="cls-41" points="189.76 206.7 187.62 205.47 189.86 204.18 192 205.41 189.76 206.7"/><polygon class="cls-41" points="184.29 206.79 182.15 205.56 184.39 204.26 186.53 205.49 184.29 206.79"/><polygon class="cls-41" points="186.97 208.32 184.83 207.09 187.06 205.8 189.2 207.03 186.97 208.32"/><polygon class="cls-41" points="181.5 208.41 179.36 207.18 181.59 205.88 183.73 207.11 181.5 208.41"/><polygon class="cls-41" points="184.17 209.94 182.03 208.71 184.27 207.42 186.41 208.65 184.17 209.94"/><polygon class="cls-41" points="197.68 211.25 195.54 210.02 197.77 208.73 199.91 209.96 197.68 211.25"/><polygon class="cls-41" points="194.88 212.87 192.74 211.64 194.98 210.35 197.12 211.57 194.88 212.87"/><polygon class="cls-41" points="192.09 214.49 189.95 213.26 192.18 211.97 194.32 213.19 192.09 214.49"/><polygon class="cls-41" points="192.21 211.33 190.07 210.1 192.3 208.81 194.44 210.04 192.21 211.33"/><polygon class="cls-41" points="174.23 212.62 172.09 211.39 174.32 210.09 176.47 211.32 174.23 212.62"/><polygon class="cls-41" points="171.43 214.24 169.29 213.01 171.53 211.71 173.67 212.94 171.43 214.24"/><polygon class="cls-41" points="168.64 215.85 166.5 214.63 168.74 213.33 170.87 214.56 168.64 215.85"/><polygon class="cls-41" points="165.84 217.47 163.7 216.25 165.94 214.95 168.08 216.18 165.84 217.47"/><polygon class="cls-41" points="163.05 219.09 160.91 217.86 163.15 216.57 165.28 217.8 163.05 219.09"/><polygon class="cls-41" points="160.25 220.71 158.11 219.48 160.35 218.19 162.49 219.42 160.25 220.71"/><polygon class="cls-41" points="157.46 222.33 155.32 221.1 157.56 219.81 159.69 221.04 157.46 222.33"/><polygon class="cls-41" points="154.66 223.95 152.52 222.72 154.76 221.43 156.9 222.66 154.66 223.95"/><polygon class="cls-41" points="151.87 225.57 149.73 224.34 151.96 223.05 154.1 224.28 151.87 225.57"/><polygon class="cls-41" points="149.07 227.19 146.93 225.96 149.28 224.6 151.42 225.83 149.07 227.19"/><polygon class="cls-41" points="146.28 228.81 144.14 227.58 146.49 226.22 148.63 227.45 146.28 228.81"/><polygon class="cls-41" points="143.48 230.43 141.34 229.2 143.69 227.84 145.83 229.07 143.48 230.43"/><polygon class="cls-41" points="140.8 231.98 138.66 230.75 140.9 229.46 143.03 230.69 140.8 231.98"/><polygon class="cls-41" points="138 233.6 135.87 232.37 138.1 231.08 140.24 232.31 138 233.6"/><polygon class="cls-41" points="144.81 232.74 142.68 231.51 144.91 230.22 147.05 231.45 144.81 232.74"/><polygon class="cls-41" points="147.61 231.12 145.47 229.89 147.71 228.6 149.85 229.83 147.61 231.12"/><polygon class="cls-41" points="150.41 229.5 148.27 228.28 150.5 226.98 152.64 228.21 150.41 229.5"/><polygon class="cls-41" points="153.2 227.88 151.06 226.66 153.3 225.36 155.44 226.59 153.2 227.88"/><polygon class="cls-41" points="156 226.26 153.86 225.04 156.09 223.74 158.23 224.97 156 226.26"/><polygon class="cls-41" points="158.79 224.65 156.65 223.42 158.89 222.12 161.03 223.35 158.79 224.65"/><polygon class="cls-41" points="161.59 223.03 159.45 221.8 161.68 220.5 163.82 221.73 161.59 223.03"/><polygon class="cls-41" points="164.27 221.47 162.13 220.24 164.48 218.88 166.62 220.11 164.27 221.47"/><polygon class="cls-41" points="167.06 219.85 164.93 218.62 167.27 217.26 169.41 218.49 167.06 219.85"/><polygon class="cls-41" points="169.86 218.23 167.72 217 170.07 215.64 172.21 216.87 169.86 218.23"/><polygon class="cls-41" points="172.65 216.61 170.51 215.38 172.75 214.09 174.89 215.32 172.65 216.61"/><polygon class="cls-41" points="175.45 214.99 173.31 213.76 175.55 212.47 177.69 213.7 175.45 214.99"/><polygon class="cls-41" points="176.22 217.63 173.98 216.34 176.21 215.05 178.46 216.34 176.22 217.63"/><polygon class="cls-41" points="173.43 219.25 171.18 217.96 173.42 216.66 175.66 217.96 173.43 219.25"/><polygon class="cls-41" points="170.63 220.87 168.39 219.58 170.62 218.28 172.87 219.57 170.63 220.87"/><polygon class="cls-41" points="167.84 222.49 165.59 221.2 167.83 219.9 170.07 221.19 167.84 222.49"/><polygon class="cls-41" points="165.04 224.11 162.8 222.82 165.03 221.52 167.28 222.81 165.04 224.11"/><polygon class="cls-41" points="162.25 225.73 160 224.44 162.24 223.14 164.48 224.43 162.25 225.73"/><polygon class="cls-41" points="159.45 227.35 157.21 226.06 159.44 224.76 161.69 226.05 159.45 227.35"/><polygon class="cls-41" points="156.66 228.97 154.41 227.68 156.65 226.38 158.89 227.67 156.66 228.97"/><polygon class="cls-41" points="153.86 230.59 151.62 229.3 153.96 227.94 156.21 229.23 153.86 230.59"/><polygon class="cls-41" points="151.07 232.21 148.82 230.92 151.17 229.56 153.41 230.85 151.07 232.21"/><polygon class="cls-41" points="148.27 233.83 146.03 232.53 148.37 231.18 150.62 232.47 148.27 233.83"/><polygon class="cls-41" points="152.29 234.46 150.15 233.23 152.39 231.93 154.53 233.16 152.29 234.46"/><polygon class="cls-41" points="155.09 232.84 152.95 231.61 155.18 230.31 157.32 231.54 155.09 232.84"/><polygon class="cls-41" points="157.88 231.22 155.74 229.99 157.98 228.69 160.12 229.93 157.88 231.22"/><polygon class="cls-41" points="160.68 229.6 158.54 228.37 160.77 227.08 162.91 228.31 160.68 229.6"/><polygon class="cls-41" points="163.47 227.98 161.33 226.75 163.57 225.46 165.71 226.69 163.47 227.98"/><polygon class="cls-41" points="166.27 226.36 164.13 225.13 166.36 223.84 168.5 225.07 166.27 226.36"/><polygon class="cls-41" points="169.06 224.74 166.92 223.51 169.16 222.22 171.3 223.45 169.06 224.74"/><polygon class="cls-41" points="171.86 223.12 169.72 221.89 171.96 220.6 174.09 221.83 171.86 223.12"/><polygon class="cls-41" points="174.65 221.5 172.51 220.28 174.75 218.98 176.89 220.21 174.65 221.5"/><polygon class="cls-41" points="177.45 219.88 175.31 218.66 177.54 217.36 179.68 218.59 177.45 219.88"/><polygon class="cls-41" points="185.83 215.03 183.69 213.8 185.93 212.5 188.07 213.73 185.83 215.03"/><polygon class="cls-41" points="187.05 217.41 184.91 216.18 188.6 214.04 190.74 215.27 187.05 217.41"/><polygon class="cls-41" points="182.92 219.8 180.78 218.57 184.36 216.5 186.5 217.73 182.92 219.8"/><polygon class="cls-41" points="178.78 222.2 176.64 220.97 180.22 218.9 182.36 220.13 178.78 222.2"/><polygon class="cls-41" points="156.87 234.89 154.73 233.66 158.31 231.59 160.44 232.82 156.87 234.89"/><polygon class="cls-41" points="152.73 237.29 150.59 236.06 154.17 233.99 156.31 235.22 152.73 237.29"/><polygon class="cls-41" points="148.59 239.69 146.45 238.46 150.03 236.38 152.17 237.62 148.59 239.69"/><polygon class="cls-41" points="180.24 218.26 178.1 217.04 183.02 214.19 185.16 215.41 180.24 218.26"/><polygon class="cls-41" points="177.02 211 174.88 209.77 178.01 207.95 180.15 209.18 177.02 211"/><polygon class="cls-41" points="140.68 235.14 138.54 233.91 142.12 231.84 144.26 233.07 140.68 235.14"/><polygon class="cls-41" points="145.92 238.15 143.78 236.92 149.59 233.55 151.73 234.78 145.92 238.15"/><polygon class="cls-41" points="143.35 236.68 141.11 235.38 145.58 232.79 147.82 234.09 143.35 236.68"/><polygon class="cls-41" points="161 232.5 158.86 231.27 176.08 221.29 178.22 222.52 161 232.5"/><path class="cls-41" d="M178.91,216l-2.14-1.23,1.53-.88c.14-.08.11-.17.09-.26s-.11,0-.11,0h0s.06-.07,0-.11l-2.2-1.3,4.58-2.64,4.72,2.71Z"/><path class="cls-38" d="M139,231s2.69,1.3,3.24,2.78a10,10,0,0,0,4.36,5A15,15,0,0,0,151,240.3s2.23,1.95,3.89,3.15S176,255.79,179.51,257s12.7,1.3,18.36.19a91.85,91.85,0,0,0,10.94-3s-.09-4.64-5.66-6.49-22.53-2.88-24.85-4.36-22.53-9.64-22.53-9.64-13.35-8.35-14.83-7.23S139,231,139,231Z"/><path class="cls-38" d="M178.12,206.92a6.29,6.29,0,0,0,2.87,1.67c2,.65,3.06.74,3.34,1.85s-5.56.75-5.56.75a2.82,2.82,0,0,0,1.85,1.57c1.39.37,2.13,1.21,3.25,2a9.82,9.82,0,0,0,5,1.39,5.52,5.52,0,0,1,2.17.28l.31,1.67L215,229.27l4.73-3.53s-13.26-11-18.27-12.05-13.44-5.38-13.91-5.56-6.78-4-7.24-3.62S178.12,206.92,178.12,206.92Z"/><path class="cls-42" d="M234.81,290.83a17.66,17.66,0,0,1,.5-18.61c7.55-9.56,19.62-10.56,29.68-17.11,2.13-1.27,5.68-1.82,7.34-.14-.87-4.2-3-5-4.48-5.05-3.19-.17-5.64,2-17.28,7.71-13.92,6.88-16.26,6.21-19.45,8.89s-5,9.05-4.53,15.93,5.54,12.41,9.56,12.24a10.83,10.83,0,0,0,2.73-.46A7.17,7.17,0,0,1,234.81,290.83Z"/><path class="cls-43" d="M265,255.11c-10.06,6.55-22.13,7.55-29.68,17.11a17.66,17.66,0,0,0-.5,18.61,7.17,7.17,0,0,0,4.07,3.4c2.91-.89,6.49-3.09,16.56-7.42,7.72-3.32,11.82-6.2,14.08-10.4,1.62-3,2.22-6.59,2.85-11.9a30.27,30.27,0,0,0,0-9.54C270.67,253.29,267.12,253.84,265,255.11Z"/><path class="cls-44" d="M195.41,212.55s-3.33-7.05-4.78-8-5-1-7.33-1.22c-1.8-.17-5.53.63-5.78,2.22s1,1.86,2.55,2.4,3.82,1,4.52,1.57.61,1.58-.63,1.33-3-1.56-4.44-1.19c-1.12.29-1.37,2,1,2.63s1.78,1.18,3.24,1.83,3.25,1.78,4.9,1.61c1.91-.19,5.7,2.45,5.7,2.45l4.65-3.72Z"/><path class="cls-11" d="M246.06,210.92l-19.42,4.72-25-6.14a8,8,0,0,0-8.8,2.22c-3,4.34-1.63,5.81-1.63,5.81l32.74,14.61s4.64,2.7,12.39,1.45c7.14-1.16,28.23,4.19,28.23,4.19a27.16,27.16,0,0,0-1.47-17.84C258.66,210.08,249.08,209.57,246.06,210.92Z"/><path class="cls-45" d="M241,211s-13.43,3-21.62,9.34c-7.14,5.5-11.39,18.27-10.7,40.94.47,15.78-.35,16.22.63,21.41.6,3.19,3.55,7.9,8.18,10.28,5.5,2.83,10.55,5,18.27,3.36S261,285.85,261,285.85s5.31-11.87,5.31-17.91.89-28-1.54-38.76C260.65,210.92,246.48,209.81,241,211Z"/><path class="cls-44" d="M242.78,203.85l1.36,12.48s-.45,5.1-7.66,6.37c-7.38,1.3-8.75-3.71-8.75-3.71l.18-3-.95-6.87Z"/><path class="cls-44" d="M214.59,181.1s-1.35,13-1.13,17.29c.21,3.93,2,11.86,7.5,13.86,4.57,1.67,10-1.17,15.61-5.14s7.45-4.94,8.29-8.29,6.57-19.39,6.57-19.39Z"/><path class="cls-5" d="M252,177a15.66,15.66,0,0,0-8-11c-7.1-3.77-14.21-3.58-20.66-1.57-6.08,1.89-9,4.69-10.2,7.15a11,11,0,0,0-1.16,3.7,9.58,9.58,0,0,0,1,4.59c1,2,3,3.36,4.45,5.07a8.55,8.55,0,0,1,2.07,4.76,33.61,33.61,0,0,1,.18,5.15l1.94.7s-.37-4.64,2.29-5c4.08-.52,4.38,5.37,3.77,7.11-2.62,7.42,1.38,8.78,1.38,8.78,4.65,1.9,9.6,2.4,13.81-.71a22,22,0,0,0,7.34-10.5C252.16,189.71,253.13,182.82,252,177Z"/><path class="cls-44" d="M155.85,241.53l-4.58-2.44s-1.36.93-4.25-.7c-3.47-2-3.3-3.87-4.66-5a52.74,52.74,0,0,0-4.52-3.15c-2.07-1.49.12-5.28,3.27-5.41a12.73,12.73,0,0,1,5.53,1.26c1.89.76,4.36,3.44,4.36,3.44a24.35,24.35,0,0,0-2.1-2.94c-.68-.66.27-2.1,1.64-1s3.48,3.86,3.56,4.82a24,24,0,0,0,1.14,3.78l4.35,2.52Z"/><path class="cls-11" d="M213.84,226.45,185.5,241.53l-24.87-9.83s-4.87-2.54-8.46,3.16a6.41,6.41,0,0,0-.25,6s21.4,13.11,28.89,15.46c3.7,1.16,7.68,1.57,15.5.91,8.71-.73,15.73-3.88,21.52-6.82a15.54,15.54,0,0,0,7.59-16.23C223.81,226.13,218.87,224.44,213.84,226.45Z"/><path class="cls-30" d="M247.39,253.94c-7.64,2.94-15.6,6-18.62,6.88s-6.71,7-6.37,14.08,1.51,13.25,4.19,15.77,7.55,5.2,15.26,1.51,18.28-8.22,21.3-10.4,5.8-4.83,6.88-8a55.32,55.32,0,0,0,2-17.61c-.31-6.25-3.86-12.07-9.73-9.39S253.93,251.43,247.39,253.94Z"/><path class="cls-5" d="M231.12,266.52c3.19-2.68,5.53-2,19.45-8.89,11.64-5.75,14.09-7.88,17.28-7.71,2.18.11,6,1.84,4.52,14.59-.63,5.31-1.23,8.9-2.85,11.9-2.26,4.2-6.36,7.08-14.08,10.4-13.25,5.7-15.27,7.71-19.29,7.88s-9.06-5.36-9.56-12.24S227.93,269.2,231.12,266.52Z"/><path class="cls-46" d="M250.23,273.14l8.08-4.09s2.18-1.33,4.15,5.36c.76,2.58.54,10.24.55,18.29C263,305.58,263,320,263,320l-8.08,4.09s-.56-5.26-.6-12C254.18,298.14,254.08,276.72,250.23,273.14Z"/><path class="cls-4" d="M250.23,273.14l0,42.68-4.31-1.34v5.37l9,4.21V282.13a16.62,16.62,0,0,0-1.86-6.77C250.22,270.91,250.23,273.14,250.23,273.14Z"/><g class="cls-3"><polygon class="cls-9" points="89.8 149.19 27.06 186.22 26.3 185.85 26.3 140.03 89.79 103.37 90.53 103.75 89.8 149.19"/><polygon class="cls-6" points="90.55 149.56 27.06 186.22 27.06 140.4 90.55 103.74 90.55 149.56"/><polygon class="cls-11" points="90.55 108.16 27.06 144.82 27.06 140.4 90.55 103.74 90.55 108.16"/><polygon class="cls-47" points="57.59 134.35 32.86 148.63 32.86 147.64 57.59 133.37 57.59 134.35"/><polygon class="cls-47" points="57.59 138.6 32.86 152.88 32.86 151.89 57.59 137.62 57.59 138.6"/><polygon class="cls-47" points="57.59 142.86 32.86 157.13 32.86 156.14 57.59 141.87 57.59 142.86"/><polygon class="cls-47" points="57.59 147.11 32.86 161.38 32.86 160.4 57.59 146.12 57.59 147.11"/><polygon class="cls-47" points="57.59 151.36 32.86 165.63 32.86 164.65 57.59 150.37 57.59 151.36"/><polygon class="cls-48" points="85.04 145.46 64.28 157.44 64.28 128.38 85.03 116.4 85.04 145.46"/><polygon class="cls-47" points="57.59 155.61 32.86 169.88 32.86 168.9 57.59 154.62 57.59 155.61"/></g><path class="cls-38" d="M115.48,157v.1h0a1.4,1.4,0,0,0,.71.82l12.49,7.21a3.67,3.67,0,0,0,1.87.43h0a4.34,4.34,0,0,0,.89-.12l.09,0,.33-.1.38-.19,33.95-19.6a1.69,1.69,0,0,0,.54-.47l0-.06a1.23,1.23,0,0,0,.14-.31v0a2.06,2.06,0,0,0,0-.21c0-.22,0-2.58,0-2.58l-1.92.91-11.27-6.51a3.92,3.92,0,0,0-3.56,0l-25.08,14.48h0l-7.16,4.13,0,0c-.67-.67-2.42-.2-2.42-.2v2.17A1.15,1.15,0,0,0,115.48,157Z"/><path class="cls-39" d="M173.67,55.53a15.86,15.86,0,0,0-1.58-1.16c-.4-.23-.68-.38-.87-.47l-.13-.06-.18-.07h0a1.66,1.66,0,0,0-1.18.26L97.27,95.85a4.63,4.63,0,0,0-2.07,3.6v53.06a1.45,1.45,0,0,0,.59,1.33h0s2,1.62,2.62,1.6.61-2.1.61-2.1l-.17-.55,70.88-40.92a4.58,4.58,0,0,0,2.08-3.6v-48a1,1,0,0,0,.16-.12C172.93,59.31,173.67,55.53,173.67,55.53Z"/><path class="cls-49" d="M171.8,66.24V60.29a1,1,0,0,0,.16-.12c1-.86,1.71-4.64,1.71-4.64a15.86,15.86,0,0,0-1.58-1.16c-.4-.23-.68-.38-.87-.47l-.13-.06-.18-.07h0a1.66,1.66,0,0,0-1.18.26L97.27,95.85a4.42,4.42,0,0,0-1.45,1.52l8.55,5.65,67.38-36.73Z"/><path class="cls-37" d="M166.92,143.83v-.05a1.83,1.83,0,0,0,0-.21c0-.21,0-2.58,0-2.58l-1.92.91-11.27-6.5a3.92,3.92,0,0,0-3.56,0L117.91,154l0,0c-.67-.67-2.42-.19-2.42-.19v2.17a1.28,1.28,0,0,0,0,.19v.1h0a1.4,1.4,0,0,0,.71.82l12.49,7.21a3.92,3.92,0,0,0,3.56,0l33.95-19.6a1.71,1.71,0,0,0,.54-.48l0-.06A1.35,1.35,0,0,0,166.92,143.83Z"/><path class="cls-50" d="M166.9,141l-1.92.91-11.27-6.5a3.92,3.92,0,0,0-3.56,0l-25.08,14.48,5.49,7.61v7.2a3.58,3.58,0,0,0,1.69-.42l33.95-19.6a1.71,1.71,0,0,0,.54-.48l0-.06a1.35,1.35,0,0,0,.14-.3v-.05a1.83,1.83,0,0,0,0-.21C166.94,143.36,166.9,141,166.9,141Z"/><path class="cls-51" d="M166.2,142.38,132.25,162a4,4,0,0,1-3.56,0l-12.49-7.22a1.08,1.08,0,0,1,0-2.05l34-19.61a4,4,0,0,1,3.56,0l12.49,7.22A1.08,1.08,0,0,1,166.2,142.38Z"/><polygon class="cls-50" points="145.79 145.08 136.75 150.3 136.75 130.88 145.79 125.66 145.79 145.08"/><polygon class="cls-37" points="136.75 150.1 133.61 148.28 133.61 128.87 136.75 130.68 136.75 150.1"/><polygon class="cls-52" points="171.12 110.49 100.45 151.29 100.45 100.29 171.12 59.49 171.12 110.49"/><text class="cls-53" transform="matrix(0.87, -0.5, 0, 1, 113.28, 122.69)">{.<tspan class="cls-54" x="8.63" y="0">C</tspan><tspan x="15.99" y="0">ODE};</tspan></text><polygon class="cls-49" points="171.18 110.45 100.51 151.25 99.91 150.91 170.58 110.11 171.18 110.45"/><polygon class="cls-55" points="171.31 110.54 170.57 110.11 170.57 59.11 171.31 59.54 171.31 110.54"/><path class="cls-34" d="M174.09,56.75c0-1.33-.93-1.86-2.08-1.2L99.56,97.38A4.58,4.58,0,0,0,97.48,101V154c0,1.33.93,1.87,2.08,1.2L172,113.41a4.61,4.61,0,0,0,2.08-3.6Zm-73.64,94.54v-51l70.67-40.8v51Z"/><g class="cls-3"><polygon class="cls-4" points="223.73 101.34 160.99 138.37 160.24 138 160.24 92.18 223.73 55.52 224.47 55.9 223.73 101.34"/><polygon class="cls-5" points="224.48 101.72 160.99 138.37 160.99 92.55 224.48 55.9 224.48 101.72"/><polygon class="cls-6" points="166.95 97.57 165.18 98.59 165.18 97.14 166.95 96.12 166.95 97.57"/><polygon class="cls-11" points="192.78 82.66 168.92 96.43 168.92 94.98 192.78 81.21 192.78 82.66"/><polygon class="cls-6" points="166.95 100.95 165.18 101.97 165.18 100.53 166.95 99.51 166.95 100.95"/><polygon class="cls-11" points="179.94 93.46 168.92 99.82 168.92 98.37 179.94 92.01 179.94 93.46"/><polygon class="cls-6" points="166.95 104.34 165.18 105.36 165.18 103.92 166.95 102.9 166.95 104.34"/><polygon class="cls-11" points="185.64 93.55 168.92 103.21 168.92 101.76 185.64 92.11 185.64 93.55"/><polygon class="cls-6" points="166.95 107.73 165.18 108.75 165.18 107.31 166.95 106.29 166.95 107.73"/><polygon class="cls-11" points="188.88 95.07 168.92 106.59 168.92 105.15 188.88 93.63 188.88 95.07"/><polygon class="cls-6" points="166.95 112.66 165.19 113.68 165.19 112.23 166.95 111.22 166.95 112.66"/><polygon class="cls-7" points="181.56 104.23 168.92 111.52 168.92 110.08 181.56 102.78 181.56 104.23"/><polygon class="cls-6" points="166.95 116.05 165.19 117.07 165.19 115.62 166.95 114.6 166.95 116.05"/><polygon class="cls-7" points="192.12 101.52 168.92 114.91 168.92 113.47 192.12 100.07 192.12 101.52"/><polygon class="cls-6" points="166.95 119.44 165.19 120.46 165.19 119.01 166.95 117.99 166.95 119.44"/><polygon class="cls-7" points="178.06 113.02 168.92 118.3 168.92 116.86 178.06 111.58 178.06 113.02"/><polygon class="cls-6" points="166.95 122.82 165.19 123.84 165.19 122.4 166.95 121.38 166.95 122.82"/><polygon class="cls-7" points="185.28 112.25 168.92 121.69 168.92 120.24 185.28 110.8 185.28 112.25"/><polygon class="cls-6" points="204.55 75.52 205.9 74.74 205.9 73.64 204.55 74.41 204.55 75.52"/><polygon class="cls-6" points="216.77 67.36 207.4 72.77 207.4 73.87 216.77 68.46 216.77 67.36"/><polygon class="cls-6" points="204.55 78.1 205.9 77.32 205.9 76.22 204.55 77 204.55 78.1"/><polygon class="cls-6" points="211.73 72.86 207.4 75.35 207.4 76.45 211.73 73.96 211.73 72.86"/><polygon class="cls-6" points="204.55 80.68 205.9 79.91 205.9 78.8 204.55 79.58 204.55 80.68"/><polygon class="cls-6" points="213.97 74.15 207.4 77.94 207.4 79.04 213.97 75.25 213.97 74.15"/><polygon class="cls-6" points="204.56 83.27 205.9 82.49 205.9 81.39 204.56 82.17 204.56 83.27"/><polygon class="cls-6" points="215.24 76 207.4 80.52 207.4 81.62 215.24 77.1 215.24 76"/><polygon class="cls-6" points="204.56 87.03 205.9 86.25 205.9 85.15 204.56 85.92 204.56 87.03"/><polygon class="cls-6" points="213.51 80.75 207.4 84.28 207.4 85.38 213.51 81.86 213.51 80.75"/><polygon class="cls-6" points="204.56 89.61 205.9 88.83 205.9 87.73 204.56 88.51 204.56 89.61"/><polygon class="cls-6" points="207.4 86.86 207.4 87.97 218.61 81.5 218.61 80.39 207.4 86.86"/><polygon class="cls-6" points="204.56 92.19 205.9 91.42 205.9 90.31 204.56 91.09 204.56 92.19"/><polygon class="cls-6" points="211.82 86.9 207.4 89.45 207.4 90.55 211.82 88 211.82 86.9"/><polygon class="cls-6" points="204.56 94.78 205.9 94 205.9 92.9 204.56 93.68 204.56 94.78"/><polygon class="cls-6" points="207.4 93.13 215.3 88.57 215.3 87.47 207.4 92.03 207.4 93.13"/></g><path class="cls-56" d="M145.57,257.67l-32.56-18a4.83,4.83,0,0,0-4.35,0L87.32,251.23a1.83,1.83,0,0,0,.2,3.15L119.83,273a4.83,4.83,0,0,0,4.35,0l21.14-12.21A1.85,1.85,0,0,0,145.57,257.67Z"/><path class="cls-57" d="M145.32,259.94l-21.14,12.2a4.77,4.77,0,0,1-4.35,0L87.52,253.49a1.83,1.83,0,0,1-.2-3.15l21.34-11.57a4.77,4.77,0,0,1,4.35,0l32.56,18A1.86,1.86,0,0,1,145.32,259.94Z"/><path class="cls-58" d="M145.32,259l-21.14,12.21a4.83,4.83,0,0,1-4.35,0L87.52,252.59a1.33,1.33,0,0,1,0-2.51l21.14-12.21a4.83,4.83,0,0,1,4.35,0l32.31,18.66A1.33,1.33,0,0,1,145.32,259Z"/><polygon class="cls-59" points="120.65 269.21 89.69 251.33 110.83 239.13 141.79 257 120.65 269.21"/><path class="cls-60" d="M124.4,247l-13.57-7.83-21.14,12.2L111,263.64c0-.19.07-.37.12-.56A26.32,26.32,0,0,1,124.4,247Z"/><path class="cls-61" d="M133.85,263.58a.55.55,0,0,1,0,1,2,2,0,0,1-1.8,0c-.5-.28-.5-.75,0-1A2,2,0,0,1,133.85,263.58Z"/><path class="cls-38" d="M209.49,145.29h0a9.94,9.94,0,0,0-.4-1.35l-.06-.18c-.05-.12-.1-.24-.14-.36a2.29,2.29,0,0,1-.1-.23l-.15-.34c0-.09-.09-.18-.13-.27l-.16-.33-.16-.29-.17-.31-.21-.34-.15-.25c-.12-.2-.25-.39-.39-.58l-.12-.18c-.1-.13-.2-.27-.31-.4l-.17-.22-.29-.34-.19-.21-.3-.32-.2-.2-.33-.3-.2-.17a4.68,4.68,0,0,0-.37-.29l-.18-.14c-.19-.13-.38-.26-.58-.37a20,20,0,0,0-2.08-1.08h0l-.07,0-.42-.17-.53-.2-.23-.08-.18,0a3.65,3.65,0,0,0-.55-.13l-.33-.07a7.38,7.38,0,0,0-.81-.07h-.06l-.19,0a4,4,0,0,0-.6.05l-.3.06c-.19,0-.38.1-.57.16l-.26.09a6.31,6.31,0,0,0-.84.39,6.65,6.65,0,0,0-.63.39l-.13.09-.06,0,0,0a6,6,0,0,0-.49.39l0,0-.2.18h0l-.3.31s0,0,0,.05a5.29,5.29,0,0,0-.47.59l0,0a4.83,4.83,0,0,0-.47,4.72s6,4.76,9.56,5.87,7-.38,7-2.6A5,5,0,0,0,209.49,145.29Z"/><path class="cls-62" d="M192.68,142.62s6.09,4.68,9.69,5.79,7-.39,7-2.6-2.26-7.07-5.58-9-5.54-2.49-8-1.1S191.57,139.58,192.68,142.62Z"/><path class="cls-63" d="M195.73,135.7a5.92,5.92,0,0,0-3.4,5,.56.56,0,0,1,0,.12s6.21,4.76,9.88,5.89c3.27,1,6.34-.1,7-2-.5-2.45-2.57-6.31-5.45-8C200.44,134.87,198.22,134.31,195.73,135.7Z"/><path class="cls-6" d="M195.73,135.7a7,7,0,0,0-2.76,2.62,15,15,0,0,0,2.21.94c3.28,1,6.35-.1,7-1.95.22-.85,0-1.06-.48-1.59C199.43,134.72,197.66,134.62,195.73,135.7Z"/><path class="cls-64" d="M198.5,135.9c.94.57,1.51,1.68,1.27,1.82s-1.2-.2-2.15-.77-1.52-1.14-1.28-1.28A2.45,2.45,0,0,1,198.5,135.9Z"/><path class="cls-20" d="M67.1,166.38,50.19,178.66c-2.16,1.25-7.29-2.26-7.29-4.76V152.54a8.65,8.65,0,0,1,3.91-6.78l18.5-10.68c2.16-1.25,7.56,1.32,7.58,3.54L71,159.6A8.65,8.65,0,0,1,67.1,166.38Z"/><path class="cls-8" d="M44,148.7a7.91,7.91,0,0,0-1.14,3.84V173.9c0,2.5,5.13,6,7.29,4.76L67.1,166.38a8,8,0,0,0,2.81-3C61.92,158.85,52.48,152.54,44,148.7Z"/><path class="cls-21" d="M44,148.7a7.91,7.91,0,0,0-1.14,3.84V173.9c0,2.5,5.13,6,7.29,4.76L67.1,166.38a8,8,0,0,0,2.81-3C61.92,158.85,52.48,152.54,44,148.7Z"/><path class="cls-22" d="M69.18,167.76l-18.5,10.68c-2.16,1.25-3.91.24-3.91-2.26V154.82A8.67,8.67,0,0,1,50.68,148l18.5-10.68c2.16-1.25,3.91-.23,3.91,2.26V161A8.66,8.66,0,0,1,69.18,167.76Z"/><text class="cls-65" transform="matrix(0.87, -0.5, 0, 1, 50.71, 167.45)">C++</text><path class="cls-66" d="M73.09,145.32v-5.7c0-2.49-1.75-3.51-3.91-2.26L50.68,148a8.67,8.67,0,0,0-3.91,6.78v15.09C54.19,159,63.39,150.1,73.09,145.32Z"/><path class="cls-16" d="M211.75,75.39,194.84,87.67c-2.16,1.25-7.3-2.27-7.3-4.76V61.55a8.66,8.66,0,0,1,3.92-6.78L210,44.09c2.16-1.25,7.55,1.32,7.58,3.54l-1.88,21A8.67,8.67,0,0,1,211.75,75.39Z"/><path class="cls-11" d="M188.68,57.71a8,8,0,0,0-1.14,3.84V82.91c0,2.49,5.14,6,7.3,4.76l16.91-12.28a8.07,8.07,0,0,0,2.81-3C206.57,67.86,197.13,61.55,188.68,57.71Z"/><path class="cls-11" d="M188.68,57.71a8,8,0,0,0-1.14,3.84V82.91c0,2.49,5.14,6,7.3,4.76l16.91-12.28a8.07,8.07,0,0,0,2.81-3C206.57,67.86,197.13,61.55,188.68,57.71Z"/><path class="cls-17" d="M188.68,57.71a8,8,0,0,0-1.14,3.84V82.91c0,2.49,5.14,6,7.3,4.76l16.91-12.28a8.07,8.07,0,0,0,2.81-3C206.57,67.86,197.13,61.55,188.68,57.71Z"/><path class="cls-11" d="M213.83,76.77l-18.5,10.68c-2.16,1.25-3.92.24-3.92-2.26V63.83a8.66,8.66,0,0,1,3.92-6.78l18.49-10.68c2.17-1.25,3.92-.23,3.92,2.26V70A8.65,8.65,0,0,1,213.83,76.77Z"/><text class="cls-67" transform="matrix(0.87, -0.5, 0, 1, 195.97, 76.77)">PHP</text><path class="cls-68" d="M217.74,54.33v-5.7c0-2.49-1.75-3.51-3.92-2.26L195.33,57.05a8.66,8.66,0,0,0-3.92,6.78V78.91C198.84,68,208,59.11,217.74,54.33Z"/></g></g></g></g></g></g></svg>