<svg xmlns="http://www.w3.org/2000/svg" viewBox="0 0 283.61 321.95"><defs><style>.cls-1{isolation:isolate;}.cls-2{fill:#828ba4;opacity:0.3;mix-blend-mode:multiply;}.cls-3{fill:#38170d;}.cls-4{fill:#233560;}.cls-5{fill:#2c4480;}.cls-6{fill:#60b8ff;}.cls-7{fill:#9fd8ff;}.cls-8{fill:#ffa080;}.cls-9{fill:#fff;}.cls-10{fill:#512514;}.cls-11{fill:#d68c80;}.cls-12{fill:#bf7967;}.cls-13{fill:#a35f48;}.cls-14{fill:#506da6;}.cls-15{fill:#380d85;}.cls-16{fill:#df2a7d;}.cls-17{fill:#5513b5;}.cls-18{fill:#f7cb2c;}.cls-19{fill:#03edca;}.cls-20{fill:#126d94;}.cls-21{fill:#d7eeff;}.cls-22{fill:#3d92d8;}.cls-23{fill:#ffe2ac;}.cls-24{fill:#ffd67a;}.cls-25{fill:#ffc9b9;}.cls-26{fill:#1f80ba;}.cls-27{fill:#6a33cc;}.cls-28{fill:#b61159;}.cls-29{fill:#ff65a0;}</style></defs><g class="cls-1"><g id="Слой_2" data-name="Слой 2"><g id="Учебная_программа" data-name="Учебная программа"><g id="преимущества"><g id="OBJECT"><ellipse class="cls-2" cx="146.42" cy="241.13" rx="65.2" ry="145.24" transform="translate(-131.66 288.57) rotate(-68.41)"/><path class="cls-3" d="M54,212.28s12,9.83,11.74,11.66-3.5,5.72-8.54,5S45,222.65,45,220.67s.27-6.56.27-6.56Z"/><path class="cls-3" d="M79,198.71s12,9.84,11.74,11.67-3.51,5.72-8.54,5S69.9,209.09,70,207.1s.26-6.55.26-6.55Z"/><path class="cls-4" d="M48.31,121.72s-.38,67.35-5.11,94.57c0,0,7.7,1.49,14.34-2.18,0,0,10.08-43,10.72-80.29a11.79,11.79,0,0,0,4.07-.69s-1.28,53.3-4.07,70.45c0,0,9.33-.68,12.53-4.8,0,0,7.93-44.61,8.77-77.09C89.56,121.69,62,112.83,48.31,121.72Z"/><path class="cls-5" d="M74.31,44.22s9.15-.76,15.25,15.71S100,103,100,103l-15,4.24Z"/><path class="cls-5" d="M46.89,121.24s22.7,8.54,42.67.45c0,0-3.35-47.27-4-56.88s-7.47-20-11.29-20.59a55.77,55.77,0,0,0-16.88.54c-5.08,1.14-14.84,2.06-14.23,9.53S49,100.8,46.89,121.24Z"/><path class="cls-4" d="M46.89,121.24a70.59,70.59,0,0,0,10.54,2.62A76.77,76.77,0,0,0,68.23,125a57.62,57.62,0,0,0,10.82-.64l2.66-.48c.89-.19,1.76-.44,2.63-.66l1.31-.34c.43-.14.86-.3,1.28-.45l2.55-.9-.13.21c-.71-9.48-1.28-19-1.93-28.45s-1.27-19-1.82-28.45Q86.76,79,87.75,93.24c.67,9.48,1.42,19,2,28.44v.16l-.14,0-2.58.9c-.43.15-.86.31-1.29.44l-1.33.34c-.88.21-1.76.46-2.65.65l-2.69.46a58.27,58.27,0,0,1-10.88.58,72.52,72.52,0,0,1-21.33-4Z"/><path class="cls-4" d="M65.77,54.9a116.15,116.15,0,0,1,3.29,17.35c.74,5.84,1.2,11.72,1.52,17.6s.32,11.78.31,17.66c0,2.95-.12,5.89-.18,8.84l-.44,8.82.22-8.83c0-2.94.09-5.88.09-8.83,0-5.88-.12-11.77-.47-17.64s-.67-11.75-1.36-17.59l-.56-4.37c-.22-1.46-.41-2.91-.67-4.36A87.72,87.72,0,0,0,65.77,54.9Z"/><polygon class="cls-6" points="74.98 109.03 96.94 96.67 94.43 115.42 74.98 109.03"/><polygon class="cls-7" points="93.51 90.49 120.28 75.16 120.28 99.18 94.43 115.42 93.51 90.49"/><path class="cls-8" d="M110.67,96.67c-4,1.75-3.93,3.81-3.78,7.32s-1.41,6.63,1.87,5.94,6.47-4,6.36-7.51S115.93,94.38,110.67,96.67Z"/><path class="cls-9" d="M65.77,54.9,63,63.29s-11.25-12-11.86-16.63,3.21-6.4,5.65-5.79S65.77,54.9,65.77,54.9Z"/><path class="cls-9" d="M71.42,59.93l-5.65-5S61,42.17,63,40.76s4.77.41,6.9,3.92S71.42,59.93,71.42,59.93Z"/><path class="cls-8" d="M65.77,54.9S54.17,44.79,54.41,43.29s0-10.62,0-10.62,1-18.33,3.75-19.71,18.76-2.59,18.76,4.58S77.67,39,75.38,40s-8.54.46-10.37-.61l1.22,5.19S67,52.15,65.77,54.9Z"/><path class="cls-10" d="M56.32,26.23S59.67,20.44,60,15.86c0,0,18,7.93,25-6.86a10.89,10.89,0,0,1-8-2.44C73.55,3.51,59.22-6.1,52.2,5.8c0,0-4.88-.46-5.18,5.33S46.7,25.69,49.76,28.7Z"/><path class="cls-9" d="M67.45,35.68c-4.77-1-4.27-4.72-2.44-6.55s3.66,2.74,6.25,3.28S74,37.06,67.45,35.68Z"/><path class="cls-8" d="M54.4,32.67S48,30,49.14,25.56s4.58-3.51,6.48-.46S54.4,32.67,54.4,32.67Z"/><path class="cls-5" d="M48.31,48.82c-2.55-1.77-9.63,3.56-13.65,38.56-.68,6-3.21,7.91-4.72,5.5-2.81-4.46-5.8-14.5-5.8-14.5s-7,5.65-8.39,10.37c0,0,8.16,16.18,13,21.28,5.18,5.51,13.84-.08,16.32-6.31C52.93,83.89,50.87,50.58,48.31,48.82Z"/><path class="cls-4" d="M34.66,87.38a18.42,18.42,0,0,1-.59,3.1,7.24,7.24,0,0,1-1.41,2.81,1.84,1.84,0,0,1-1.43.65A1.91,1.91,0,0,1,29.94,93a24.85,24.85,0,0,1-1.52-2.77c-.92-1.9-1.68-3.87-2.41-5.84s-1.39-4-2-6l.23.07a42.51,42.51,0,0,0-4.81,4.68,23.91,23.91,0,0,0-2,2.65,11.85,11.85,0,0,0-1.45,3l0-.13a184,184,0,0,0,9.69,16.89,37.06,37.06,0,0,0,2.9,3.89,7.15,7.15,0,0,0,3.93,2.46,8.29,8.29,0,0,0,4.66-.52,13.49,13.49,0,0,0,4-2.54,14.86,14.86,0,0,0,3-3.73A27.83,27.83,0,0,0,46,100.64a74.47,74.47,0,0,0,2.41-9.43,130.79,130.79,0,0,0,2.15-19.35,121.54,121.54,0,0,1-1.9,19.4,73.25,73.25,0,0,1-2.37,9.47c-.25.78-.51,1.55-.81,2.31a14.5,14.5,0,0,1-1,2.24,15,15,0,0,1-3.07,3.84,13.86,13.86,0,0,1-4.15,2.63,8.58,8.58,0,0,1-4.88.56,7.44,7.44,0,0,1-4.18-2.57,35.86,35.86,0,0,1-3-3.92,182.18,182.18,0,0,1-9.63-17l0-.06,0-.07a12.08,12.08,0,0,1,1.52-3A22.69,22.69,0,0,1,19.18,83a43.17,43.17,0,0,1,4.87-4.69l.17-.13.06.2c.61,2,1.26,4,2,6s1.47,3.94,2.35,5.84a23.77,23.77,0,0,0,1.47,2.78,1.76,1.76,0,0,0,1.18.88,1.75,1.75,0,0,0,1.34-.6A7.23,7.23,0,0,0,34,90.46,18.9,18.9,0,0,0,34.66,87.38Z"/><path class="cls-8" d="M14.49,69.41C14.32,69.78.81,66.32.05,73.19s7.93,8.07,11.89,7l3.81,7.17,7.1-10.13-3.59-7s-.76-7.66-2.59-6.88S15.75,66.64,14.49,69.41Z"/><path class="cls-9" d="M23.53,76.55S12.86,87.38,13.92,89.06s2.06,5.51,3.63,3.82,9-11.31,8.57-12.67S25,75.08,23.53,76.55Z"/><polygon class="cls-11" points="105.42 146.87 157.12 119.41 243.89 168.96 188.69 198.71 105.42 146.87"/><polygon class="cls-12" points="105.42 146.87 105.42 156.3 184.42 208.82 184.42 270.77 188.69 274.34 188.69 198.71 105.42 146.87"/><polygon class="cls-13" points="188.69 274.34 188.69 198.71 243.89 168.96 243.89 245.51 236.26 250.91 236.26 184.61 195.09 208.82 195.09 270.77 188.69 274.34"/><polygon class="cls-12" points="230.94 248.35 236.26 250.91 236.26 184.61 230.94 187.74 230.94 248.35"/><polygon class="cls-4" points="215.07 164.17 218.27 160.58 218.27 117.76 215.07 119.23 215.07 164.17"/><polygon class="cls-14" points="136.34 157.61 155.47 145.03 194.94 168.96 173.66 183.84 136.34 157.61"/><polygon class="cls-4" points="194.94 175.01 194.94 168.96 173.66 183.84 194.94 175.01"/><path class="cls-14" d="M178.35,157.94c-6.91-4.58-6.86-7.7-4.42-9.38s7.12-.91,12.1,2.14,11.54,9.73,8.64,11.58S184.91,162.29,178.35,157.94Z"/><path class="cls-5" d="M181.06,143.35v7.77c0,2.29,5.69,6.91,5.69,2.14v-9.34Z"/><polygon class="cls-14" points="158.44 131.98 158.44 85.4 215.07 119.23 215.07 164.17 158.44 131.98"/><polygon class="cls-15" points="161.87 129.78 161.87 91.5 211.64 121.23 211.64 158.06 161.87 129.78"/><polygon class="cls-5" points="158.44 85.4 215.07 119.23 218.27 117.76 163.83 84.76 158.44 85.4"/><polygon class="cls-16" points="171.15 44.22 171.15 56.04 186.75 64.96 186.75 52.61 171.15 44.22"/><polygon class="cls-17" points="160.92 28.7 160.92 35.18 171.15 41.17 171.15 34.01 160.92 28.7"/><polygon class="cls-18" points="151 68.81 151 49.6 176.46 64.01 176.46 84 151 68.81"/><polygon class="cls-19" points="181.63 71.86 181.63 82.38 195.74 91 195.74 79.1 181.63 71.86"/><polygon class="cls-6" points="193.06 59.23 193.06 69.75 207.18 78.37 207.18 66.47 193.06 59.23"/><path class="cls-10" d="M131.09,243.69s-1.78,4.68,1,6.2,10.08-.61,15.12-3.51,6.55-5,1.06-5.18-9.6,0-9.6,0Z"/><path class="cls-14" d="M142.54,196.85l.23,45.42s-3.66,5.18-11.74,3.35l1-33.09-6.22-5.63Z"/><path class="cls-10" d="M145.43,250.91s-1.77,4.67,1,6.2,10.09-.61,15.12-3.51,6.56-5,1.07-5.18-9.61,0-9.61,0Z"/><path class="cls-5" d="M157.52,203.14l-.4,46.35s-3.66,5.18-11.74,3.35l1-33.09-6.22-5.64Z"/><path class="cls-20" d="M95.6,250.4a4.89,4.89,0,1,1-4.88-4.89A4.89,4.89,0,0,1,95.6,250.4Z"/><path class="cls-20" d="M97.67,270.77a4.89,4.89,0,1,1-4.88-4.88A4.89,4.89,0,0,1,97.67,270.77Z"/><path class="cls-20" d="M132.47,270.77a4.89,4.89,0,1,1-4.89-4.88A4.89,4.89,0,0,1,132.47,270.77Z"/><path class="cls-20" d="M135.54,250.91a4.89,4.89,0,1,1-4.88-4.89A4.89,4.89,0,0,1,135.54,250.91Z"/><path class="cls-7" d="M105.42,234.24v21.34c0,3,3,5.19,5.34,5.49s5.18-2,5.18-5.79V236.07Z"/><path class="cls-7" d="M106.79,253.6s-15.55,9.15-17.23,10.83,2.75,8.08,8.62,4.73,12.5-9.61,12.5-9.61Z"/><path class="cls-7" d="M108.47,251s-10.23-7.93-14.19-8.08-7.75,4.57-3.56,6.4S106,257.87,106,257.87Z"/><path class="cls-7" d="M112.05,250.4s10.76-6,14.11-6.86,11.29,1.22,4.58,5.49-17.08,9.45-17.08,9.45Z"/><path class="cls-7" d="M112.05,261.1s11.37,8.21,16.25,8.06,7.77-3.36,3.2-6.1S117,255.28,117,255.28Z"/><path class="cls-21" d="M117.32,241c-5.2.36-28.21-11.9-33.4-14.49s-2.13-14.18-2.13-14.18l64.55,6.25s.19,5.81,0,8.09S128.3,240.18,117.32,241Z"/><path class="cls-22" d="M81.79,212.28c3.5-2.9,22.56-11,25.92-12.2s27.75,9.62,34.46,14,4.73,4.72-1.83,8.08-16.62,12.2-25.92,8.39S78.28,215.17,81.79,212.28Z"/><path class="cls-14" d="M115.94,203.28s19.07-11.7,21.81-11.72,5.34.55,4.73,8.42l-21.66,12.3Z"/><path class="cls-8" d="M144.46,169s4.42-3.2,7.32-3.2,6.35,1.36,6.41,0-4-1.77-4.43-3,4.12-1.75,6.41-1.6,3-2.61-2.68-4.89-17.37,4.58-17.37,4.58Z"/><polygon class="cls-8" points="113.59 140.01 113.59 127.64 125.03 132.98 125.03 141.21 113.59 140.01"/><path class="cls-8" d="M114.57,121.24a34,34,0,0,0,3,8.69s5.45,8.84,13.08,6.71,8.08-6.32,6.25-13.61-3.66-16.59-8.84-16.59S113.1,109.65,114.57,121.24Z"/><path class="cls-4" d="M114.57,121.24A14.36,14.36,0,0,0,119.31,111a25.47,25.47,0,0,0,16.7-2,6.54,6.54,0,0,0-3.36-2.6,38.43,38.43,0,0,0,9.61-1.29,18.1,18.1,0,0,0-12.35-2.67s7.16-4.27,8.54-11c0,0-10.28,7.17-14.6,7.17s-15-2.38-17.51,1.37c0,0-3.73,1.07-2.51,11.59a40.83,40.83,0,0,0,7,18.15l2.27-1Z"/><path class="cls-8" d="M117.59,129.93s-3.55,1.41-6.33-3.21-.28-8.32,3.31-5.48S117.59,129.93,117.59,129.93Z"/><path class="cls-9" d="M130.21,126.27c-2.68-1.27-5.79-.38-5.18,2.52s4.72,4.65,8.23,3.27,3.2-5.94,1.53-5.49A5.86,5.86,0,0,1,130.21,126.27Z"/><path class="cls-23" d="M94.9,201.44c0,3.1,7.62,11,22.26,10.84s18.67-5.12,19-8.28,0-33.65,0-41.21-1.54-15.78-6.62-21.12-16-9.13-22.67-3.72C98.55,144.71,94.3,158.6,94.3,176.4S94.9,198.34,94.9,201.44Z"/><path class="cls-23" d="M122.7,159.15c6.25,10.68,20.65,33.15,23.72,32.39s10.7-6.41,10.7-6.41-1.37-7.62-3.66-9l-2.29.46S138.3,156,133.93,148.84,116.45,148.48,122.7,159.15Z"/><path class="cls-24" d="M132.62,175c1.61,2.37,3.25,4.71,4.95,7s3.4,4.59,5.31,6.71c.48.53,1,1,1.5,1.52a4.71,4.71,0,0,0,1.71,1.11,2.08,2.08,0,0,0,.95-.21c.32-.13.65-.26,1-.42.64-.3,1.26-.66,1.87-1A84.77,84.77,0,0,0,157,185l-.08.21a37.26,37.26,0,0,0-1.24-4.75,18.39,18.39,0,0,0-.91-2.26,4.68,4.68,0,0,0-1.41-1.84l.15,0-2.29.45-.14,0-.07-.12-8.57-13.91-4.27-7-4.23-7,4.39,6.89,4.35,6.91,8.68,13.84-.22-.09,2.29-.47h.08l.07,0a5,5,0,0,1,1.59,2,17,17,0,0,1,1,2.31,40.49,40.49,0,0,1,1.22,4.82l0,.13-.11.08a83.89,83.89,0,0,1-7.18,4.73c-.62.36-1.25.71-1.91,1-.32.17-.66.29-1,.43a2.23,2.23,0,0,1-1.12.22,4.84,4.84,0,0,1-1.85-1.21c-.54-.49-1-1-1.51-1.54a80.08,80.08,0,0,1-5.26-6.8C135.76,179.8,134.18,177.42,132.62,175Z"/><path class="cls-5" d="M95.6,203.42s-1.46,11.45,6.31,16.33,22,4.42,32.94-1.22,21.2-11.59,22.27-14a6.33,6.33,0,0,0-5.34-8.39c-5.34-.76-20.07,9.93-23.15,11S95.6,203.42,95.6,203.42Z"/><path class="cls-8" d="M153.63,176.13s9.13-3.4,11-5.64,3-5.77,4.06-5-1.15,4.22-.51,5.31,4-2.07,5.31-3.94,3.94-.69,2.08,5.17-18.42,12.54-18.42,12.54Z"/><polygon class="cls-24" points="151.78 174.76 157.12 187.09 160.17 185.59 155.97 171.71 151.78 174.76"/><path class="cls-6" d="M85.29,156.46c-2.5-1.08-10.46,3.52-10.3,6.86l36.23,48.07s9-3.54,10.37-5.52,3-22.11,0-27.45S95.51,160.88,85.29,156.46Z"/><path class="cls-21" d="M75,163.32c.09,3.21,1.46,26.08,2.14,29.28s28.37,16.93,32,18.53,4.34-4.57,4.12-13.49,2.79-14.87-6.39-20.13S74.89,160.12,75,163.32Z"/><path class="cls-7" d="M92.76,238.51c-3-1.6-2.89-5.95-3.2-14S88.33,184.85,88.33,181s7.33-2.28,7.79,2.82,1.13,45.36,1.13,49.48S94.59,239.5,92.76,238.51Z"/><path class="cls-25" d="M238.4,104.08l-.92-8.79s-7.77,3.25-7.54.76.91-23.31,2.74-25.14,14.64-4.12,16.47,5.72.92,22.65.92,22.65Z"/><path class="cls-9" d="M232.45,88.45a6.22,6.22,0,0,1-2.13.77c-.08,1.5-.16,2.85-.22,4C235.35,91.65,234.21,87.37,232.45,88.45Z"/><path class="cls-4" d="M220.86,274.34c-8-3.94-9.46-5.49-6.86-6.86s12.66-3.05,12.66-3.05,9.6,1.53,9.6,4.73,2,9.3-2.66,8.69S225.48,276.63,220.86,274.34Z"/><path class="cls-4" d="M252.12,254.52s-11.13-.66-10.52,1.27,6.86,7.27,12.2,9.55,8.24,2.29,8.54,0a54.79,54.79,0,0,0-.12-7.72Z"/><path class="cls-26" d="M222.69,265.19s6.56,6.56,13.57,4l2.2-75.39a22.83,22.83,0,0,0,9.85-3.3s1.37,55.15,2.29,65.32c0,0,5.49,4.83,11.74,3.15,0,0-3.35-35.07-2.59-50.93s1.37-36.3,1.37-36.3l-35.84,8.54S221.93,244.61,222.69,265.19Z"/><path class="cls-16" d="M225.28,180.25s23.64,9.15,36.45-7.47c0,0,6.41-44.77,7.63-55S263.79,98,254.07,97.32s-22.82,9-25,17.21S224.52,159.51,225.28,180.25Z"/><path class="cls-27" d="M241.3,91.5a6.29,6.29,0,0,0,1.52-7c-1.68-4.28-5-2.5-5.79.27l-.61-10.34s-4.28,6.71-6.49,6.25.17-4.8.17-4.8-6.34.84-1.46-3.43c0,0-8.39-.16-2.29-4s9.3-3.51,9.3-3.51-2.28-4.11.61-4.72,7.63,2.89,7.63,2.89,17.54-3.05,11.74,1.83c0,0,13.12,3.21,5.49,6,0,0,13.61,7.47,2.38,8.08,0,0,2,11.74-3,6.41,0,0,2.14,13.88-2.29,7.47,0,0,0,9.45-4,3.36,0,0-1.22,9.15-4.19,3,0,0-6.16,3-4-4.73C246,94.55,237.64,97.45,241.3,91.5Z"/><path class="cls-25" d="M190.52,125.66s.15-8.48-1.83-7.9-1.94,5.15-1.94,5.15-4.93-.84-5.69,1.87.23,8.89,3.24,7.94c0,0,18.18,20.14,22.76,22.74s8-5.1,8-5.1l-6.71-9.4s-3.76.75-10.42-6.29S190.52,125.66,190.52,125.66Z"/><path class="cls-16" d="M208.36,141s-.16,9.86,3.28,15.5c0,0,19.59-16.86,24.62-23.92s3.17-19,0-22-4.51-2.74-12.85,8.85S208.36,141,208.36,141Z"/><path class="cls-28" d="M223.41,119.41c-2.48,3.61-4.91,7.26-7.42,10.85l-7.48,10.81,0-.1a45.77,45.77,0,0,0,.74,7.92,23.71,23.71,0,0,0,2.54,7.46l-.33,0q6.52-5.6,12.82-11.44c2.1-2,4.16-4,6.19-6a61.91,61.91,0,0,0,5.76-6.36,63.11,63.11,0,0,1-5.62,6.5c-2,2.06-4,4.06-6.13,6q-6.25,5.91-12.73,11.56l-.2.17-.13-.23a19.07,19.07,0,0,1-1.65-3.69,32.91,32.91,0,0,1-1-3.92,47.56,47.56,0,0,1-.68-8v-.05l0,0,7.57-10.75C218.29,126.52,220.87,123,223.41,119.41Z"/><path class="cls-29" d="M209.62,139.11l-4,.92s-.87,12.63,2,19c0,0,5.3,1.26,6.38-5.47Z"/></g></g></g></g></g></svg>