<svg xmlns="http://www.w3.org/2000/svg" viewBox="0 0 633.9 561.74"><defs><style>.cls-1{fill:#deecf2;}.cls-2,.cls-36{fill:#112b46;}.cls-10,.cls-11,.cls-12,.cls-14,.cls-2,.cls-3,.cls-30,.cls-4,.cls-5,.cls-53,.cls-54,.cls-6,.cls-7,.cls-8,.cls-9{fill-rule:evenodd;}.cls-3{fill:#21496d;}.cls-26,.cls-4{fill:#495de3;}.cls-40,.cls-45,.cls-49,.cls-5{fill:#fff;}.cls-27,.cls-6{fill:#606bea;}.cls-7{fill:#203186;}.cls-44,.cls-8{fill:#ffc1a8;}.cls-25,.cls-9{fill:#7180ed;}.cls-10{fill:#eda78b;}.cls-11,.cls-24{fill:#e5807d;}.cls-12,.cls-31{fill:#f4ca5b;}.cls-13{fill:#80c2ff;}.cls-14,.cls-15{fill:#565485;}.cls-16{isolation:isolate;}.cls-17{fill:#9cd1e8;}.cls-18{fill:#c7e2ed;}.cls-19{fill:#6cbfde;}.cls-20{fill:#b7daed;}.cls-21{fill:#d16868;}.cls-22{fill:#cc4c4c;}.cls-23{fill:#ed9191;}.cls-28{fill:#e8b53f;}.cls-29{fill:#ffd580;}.cls-30{fill:#eba68a;}.cls-32{fill:#9eb0bf;}.cls-33{fill:#afc0cc;}.cls-34{fill:none;}.cls-35{fill:#8085e9;}.cls-37{fill:#c5d2db;}.cls-38{fill:#e7e7e7;}.cls-39{fill:#8098a8;}.cls-41{fill:#00bcaf;}.cls-42{fill:#c7c5ff;}.cls-43{fill:#e3e7e8;}.cls-45{font-size:14.56px;}.cls-45,.cls-49{font-family:OpenSans-Semibold, OpenSans Semibold;font-weight:600;}.cls-46{letter-spacing:-0.01em;}.cls-47{letter-spacing:-0.08em;}.cls-48{letter-spacing:-0.07em;}.cls-49{font-size:17.31px;}.cls-50{letter-spacing:-0.01em;}.cls-51{letter-spacing:-0.08em;}.cls-52{letter-spacing:-0.07em;}.cls-53{fill:#303072;}.cls-54{fill:#46467f;}</style></defs><g id="Слой_2" data-name="Слой 2"><g id="Самоуправление"><g id="OBJECTS"><ellipse class="cls-1" cx="229.36" cy="356.34" rx="109.23" ry="189.2" transform="translate(-128.22 583.76) rotate(-89.69)"/><ellipse class="cls-1" cx="421.24" cy="280.44" rx="109.23" ry="189.2" transform="translate(138.51 700.16) rotate(-89.69)"/><ellipse class="cls-1" cx="392.11" cy="406.52" rx="109.23" ry="189.2" transform="translate(-16.53 796.42) rotate(-89.69)"/><ellipse class="cls-1" cx="525.9" cy="432.91" rx="62.35" ry="108" transform="translate(90.15 956.45) rotate(-89.69)"/><path class="cls-1" d="M316.55,543.62c-42,24.27-110.42,24.15-152.73-.28s-42.52-63.91-.48-88.18,110.43-24.15,152.73.28S358.59,519.34,316.55,543.62Z"/><path class="cls-1" d="M536.62,529.32c-9.28,5.36-24.38,5.33-33.73-.06s-9.39-14.11-.1-19.47,24.38-5.34,33.73.06S545.91,524,536.62,529.32Z"/><path class="cls-1" d="M28.7,377.43c-6.54,3.77-17.17,3.75-23.75,0s-6.61-9.94-.07-13.71,17.17-3.75,23.74,0S35.23,373.66,28.7,377.43Z"/><path class="cls-2" d="M91.26,324.08s15,17.57,19,18.75.39,5.31-2.68,5.62-12.87-.1-15.72-2.9S81,339.74,81,339.74a45.4,45.4,0,0,1,2.18-14.83Z"/><path class="cls-2" d="M96.54,200s1.95,38.88,1.23,51.63-3.82,76-3.82,76c-8.23,1.77-13.46,0-13.46,0-2.71-48.53-2.63-62.49-3.41-69.72s-1.73-28.16-1.73-28.16c-5.81-12,.26-27.64,3.13-31.41S96.54,200,96.54,200Z"/><path class="cls-2" d="M66.68,340.76c.51,7.11,3.08,15.48,3.73,19.74a10.12,10.12,0,0,1-1.86,8.05c-1,1.37-13-2.61-14.65-7.24s1.73-8.68,2-17.36C59.77,337,66.68,340.76,66.68,340.76Z"/><path class="cls-3" d="M84,203S82,238.38,78.71,250.16s-6.19,46.36-7.58,52.39-3.08,43.28-3.08,43.28a26.54,26.54,0,0,1-13.36,0c.16-34.88-.68-63.23,0-72.8s-.27-37.92-.27-37.92c-3.1-13.19-3.28-14.88,0-23.65S71.8,195.75,84,203Z"/><path class="cls-4" d="M90.86,119c12.21,3.44,18.77,34.14,22.19,41S145,168.64,145,168.64c1.71,6-3.13,12.25-3.13,12.25-27.47-1.14-37.16-3.42-42.25-14.26S76.65,122.69,90.86,119Z"/><path class="cls-5" d="M90.86,119c-10.85-.48-36,5.17-44.28,15.73S50.32,164,53.2,175.2s-1.33,39.49-1.33,42.2c12.86,8.52,43.82,9.6,47.29-3.11,1.44-13.84-1.73-30.26-1.9-38.36C97.68,158.55,105.22,124.14,90.86,119Z"/><path class="cls-6" d="M81.54,121.58c7,24.52,8.63,52,7.95,62.45s-1,44.06-1,44.06c8.13-4.28,11.69-12.12,11.69-15.69s-3.06-34-3-36.47,4.1-30.4,3-43-9.36-14-9.36-14H80.4Z"/><path class="cls-7" d="M88.28,92c4.78,1.5,0,12.37,0,12.37Z"/><path class="cls-8" d="M88.53,93.4s1.8,6.36,1.12,11.3-1.13,14.79-5.51,17.94-10.65-.51-14.81-4a24.7,24.7,0,0,1-8.67-17.92c-.09-7.87,3-17.52,14.34-17S88.53,93.4,88.53,93.4Z"/><path class="cls-8" d="M66.47,111.61s.89,10.14-1.77,13.88c-.19,2.5,7,13.07,14.08,11.23,4.15-1.08,3.65-5.91,3.65-5.91-.44-3.69,0-12.6,0-12.6Z"/><path class="cls-2" d="M91.31,84.91c1.62,5.84-.22,7.93-5.15,9.61s-18-2.12-18-2.12c.88,6.25-1.09,9.49-1.09,9.49-2.16-6.14-4.13-3-4.33,1.9s2.56,4.8,2.56,4.8c-.2,4.13-1.52,5.54-1.52,5.54-5.27-3.64-12.44-28-3-28.54C61,77.09,87.85,72.4,91.31,84.91Z"/><path class="cls-6" d="M64.26,123.88c8.44,17.8,12.86,34.06,12.58,48.74s-3.32,57.46-3.32,57.46c-14.65-3.56-24.63-7.69-27.48-12.69,6.27-16.54,8.55-27.66,7.27-32.36S41,144.45,46.71,133.8C52.17,127.85,64.26,123.88,64.26,123.88Z"/><path class="cls-9" d="M51.48,133.49c10.09,5,18.11,32.87,25.81,40.33,4.37,4.23,25.92,9.76,31.91,9.91,2.32,5.28-1.85,11.15-1.85,11.15-36.79-3.45-38.42-5.47-49.73-19.91C43.57,157.05,38,130,51.48,133.49Z"/><path class="cls-10" d="M82.25,123.56c-3,1.17-7.54-.66-13.37-5.35,0,0,1.73,6.84,13.37,9.34Z"/><path class="cls-5" d="M66.14,121.5a20,20,0,0,1-1.88,2.38s3.66,8,5,11.53A18.63,18.63,0,0,0,74,141.89l4.75-5.17C72.24,133.25,66.14,121.5,66.14,121.5Z"/><path class="cls-5" d="M81.83,124.06c-.43-.54-1.47,10-3,12.66a19.39,19.39,0,0,0,4.85,3.63S85.44,128.56,81.83,124.06Z"/><path class="cls-2" d="M404.72,233.35c-.37,5.26-.86,10.52-.86,10.52h-1.17s0-8-1.24-6.28C401.62,233.26,404.72,233.35,404.72,233.35Z"/><path class="cls-8" d="M388.47,242.32c-.56,0-1.32-.62-2-1.54,1.2-1.42,2.38-2.82,3.17-3.91,2.53-3.52,6.62-11.31,6.82-14.82s-1.95-40.13-2.53-44.61S391.66,156,391.82,155s15.75,6,15.75,6c-.2,1.39-2.31,10.15-1.45,15.8s2.23,9.39,1.45,18.62-5.27,24.05-3.71,31.06c0,.13.05.24.08.36C399.36,233.18,397.74,245.41,388.47,242.32Z"/><path class="cls-2" d="M386.47,240.78c.68.92,1.44,1.54,2,1.54,9.27,3.09,10.89-9.14,15.47-15.43,1.45,6.67.81,7.46-.4,8.41s-5.52,6.24-6.3,9.94-12.47,3.31-14.61,2.53C381.15,247.23,383.83,243.93,386.47,240.78Z"/><path class="cls-8" d="M420.69,192.63c.45,4.1,2.85,35.66,2.46,40.93-.23,3.21-1.76,8.26-2.71,12.31-.61,2.57-1,4.75-.61,5.8.94,2.69,1,10.72,5.33,8.91s7.25-7.4,6.36-13.59.17-9.16-.08-12.86,2.23-26.7,2.62-34.86-2.34-12.1-2.54-17.55S433,164.88,433,164.88s-18.78-9.85-17.24,2S420.24,188.54,420.69,192.63Z"/><path class="cls-2" d="M419.06,252c.29,5.49,1.75,10.43,6.1,8.62s7.25-7.4,6.36-13.59c-2.34,6.83-11.27,6.53-11.08-1.12C419.83,248.44,419,250.86,419.06,252Z"/><path class="cls-11" d="M390.55,115.88s0,38.06,0,50.55S393.79,221,393.79,221c6.34,2.44,12.55-.58,12.55-.58.92-10.87,4.1-28.77,4.65-38.17s-3.74-11-1.95-17.84,6.6-43.64,6.6-43.64Z"/><path class="cls-11" d="M411,123.9s3.24,40.86,4.65,46,2.39,25.15,3.42,32,1.12,26.68,1.12,26.68c2.49,8.08,12.73,1.25,12.73,1.25,4.27-25.32,1.31-37.91,1.19-45.33s3.5-26.85,2.76-34.92-1.6-24.84-.05-28,3.33-8.29,3.91-17.61c-12.09-4.59-31.06.57-31.06.57Z"/><path class="cls-5" d="M392.38,35c10.7-.53,28.88,12.14,37.11,22.52s3.14,21.63.36,32.75,1.52,39,1.53,41.64c-12.64,8.48-36.27,9.55-39.77-3C390.12,115.23,393.17,101,393.3,93,392.8,75.87,378.23,40.11,392.38,35Z"/><path class="cls-12" d="M401.72,37.45c-5.56,24.2-3.81,50.36-2.58,60.61s1.47,44.39,1.47,44.39c-8.25-4.17-12.2-11.88-12.39-15.4s3-33.1,2.77-35.52-4.42-25.27-4-37.64,5.1-14.26,5.1-14.26l10.6-4.73Z"/><path class="cls-12" d="M417.23,40C409,57.6,413,73.75,413.31,88.24s7.88,55.2,7.88,55.2c14.44-3.6,16.16-13.28,18.95-18.22,6.66-33.88-1.75-61.42-8-71.59C427.22,45.65,417.23,40,417.23,40Z"/><path class="cls-13" d="M359.16,94.8a8,8,0,0,0,7.26,0c2-1.16,2-3,0-4.19a8,8,0,0,0-7.26,0C357.17,91.76,357.15,93.64,359.16,94.8Z"/><path class="cls-12" d="M426.33,53.88c-10,4.9-10.92,34.29-18.56,41.62-4.33,4.15-21.66.83-27.57,1-2.32,5.2.82,11.5.82,11.5,33,1.62,37,2.63,45.38-13.41C433,82,439.7,50.54,426.33,53.88Z"/><path class="cls-12" d="M392.11,39.63c-6.39,3.34-9.43,30.1-17.06,36.8-4.33,3.8-6.25,7.27-15.06,11.66-2.32,4.76,4,7.73,4,7.73,17.59-6.66,21.61-12.39,27.48-21.27C398.73,63.55,405.47,36.58,392.11,39.63Z"/><path class="cls-8" d="M363.6,94.84a33.5,33.5,0,0,1-3.46,4.2c-1.52,1.73-3.95,4.71-4.7,4s.69-3.68.69-3.68-4.51,4.28-5.32,5.72-.35-2.72.81-4.62c-2.89,4.39-3.58,5.38-3.82,4.28s2.17-7.06,1.84-6.48c-3.34,5-4.62,5.72-4.27,3.41s3.59-6.25,5.55-7.35c-5.78,3.76-6.19,3.36-4.74,1.68s6.81-5.78,14-6.77C364.69,93.48,363.6,94.84,363.6,94.84Z"/><path class="cls-8" d="M359.74,104.09c1.88-2.91,4.59-6.23,8.05-7.18a13.13,13.13,0,0,1,7.37.62c1.91.61,4.64.88,6.49,1.73a16.34,16.34,0,0,1,1.33,6.16,6.38,6.38,0,0,1-1.28.28c-2,.22-4.08,1-6.07.89-1.35,0-3.5.37-4.73,0,.5.14,1.1.39,1.17.91a.92.92,0,0,1-.74.94c-2.95.78-5.55-2.82-7.36-4.49C364.15,104.14,357.31,107.85,359.74,104.09Z"/><path class="cls-14" d="M390.76,10.28a5.3,5.3,0,0,0-.39.9c-.54,1.59-.17,3.5-.55,5.15-.62,2.64-2.48,4.7-3.37,7.26-3.24,9.36,6.06,14.6,14.13,13.92a7.71,7.71,0,0,0,4.08-1.33c3.91-3-.5-7.77-2.35-10.56-1.29-1.94-3.1-4.54-3.25-6.94-.14-2.24,1.06-4.19.61-6.58C398.79,7.43,392.89,6.41,390.76,10.28Z"/><path class="cls-8" d="M414.82,29.21s-2.65,9.2,3.42,13c.18,2.24-6.18,11.76-12.57,10.13-3.73-.94-5.63-6.26-5.63-6.26a103.09,103.09,0,0,1,2.27-10.31Z"/><path class="cls-8" d="M393.28,10.52s-1.65,5.83-1,10.36,1,13.55,5,16.43,9.77-.46,13.58-3.7a22.62,22.62,0,0,0,7.94-16.41c.09-7.22-2.73-16.06-13.14-15.61S393.28,10.52,393.28,10.52Z"/><path class="cls-14" d="M400.56,6.11c-2.69,3.3-1.42,7.34,1.91,9.77,2.3,1.68,4.32,2.74,5.85,5.32a17.6,17.6,0,0,1,2.34,7.94c.11,2.3.14,4.58.25,6.87,0,1.06.11,2.51,1.25,2.81,1.34.34,4-.65,5.18-1.33a18.89,18.89,0,0,0,5-4.3A19.78,19.78,0,0,0,427,21.32c.29-8.06-4.3-13.27-10.15-17.95S405.35.26,400.56,6.11Z"/><path class="cls-14" d="M397,2.07l.07,0c2-1.37,10.28-3.93,10.32.28s-6.15,8.43-9.41,10.3a34.94,34.94,0,0,0-4.23,2.48c-1.7,1.33-1.85,3.85-3.35,5-2.29-2.2-1.7-7.62-.79-10.32C390.84,6.17,394,4.13,397,2.07Z"/><path class="cls-10" d="M401.65,38.36c4.25-.36,8.9-4.48,8.9-4.48s-1,4.95-9.44,6.73Z"/><path class="cls-15" d="M522.7,286.78c-4.12,6.39-3.16,10.93-2,11.44,24.37,10.86,39.54,7.55,43.25,6.29-4-5.62-7.85-11-12.41-17.18C539.61,289.54,522.7,286.78,522.7,286.78Z"/><g class="cls-16"><polygon class="cls-17" points="451.96 113.29 451.88 140.17 403.08 168.54 403.15 141.65 451.96 113.29"/><polygon class="cls-18" points="232.38 141.66 232.3 168.54 183.17 140.18 183.25 113.3 232.38 141.66"/><path class="cls-19" d="M359.17,179l.08-26.89c0-3.79,2.5-7.58,7.49-10.48,10-5.82,26.33-5.82,36.41,0l-.07,26.89c-10.08-5.82-26.4-5.82-36.42,0C361.68,171.43,359.18,175.22,359.17,179Z"/><path class="cls-17" d="M276.41,152.28l-.08,26.88c0-3.84-2.52-7.69-7.6-10.62-10.1-5.83-26.4-5.82-36.43,0l.07-26.88c10-5.83,26.34-5.84,36.43,0C273.88,144.58,276.42,148.44,276.41,152.28Z"/><polygon class="cls-18" points="318.04 191.12 317.96 218 268.85 189.64 268.92 162.76 318.04 191.12"/><polygon class="cls-17" points="366.84 162.75 366.77 189.64 317.96 218 318.04 191.12 366.84 162.75"/><path class="cls-20" d="M452,113.29l-48.81,28.36c-10.08-5.82-26.4-5.82-36.41,0s-10,15.28.1,21.1L318,191.12l-49.12-28.36c10-5.83,10-15.28-.12-21.11s-26.4-5.82-36.43,0L183.25,113.3,317.17,35.47Z"/></g><g class="cls-16"><path class="cls-21" d="M235.78,175.89l-.07,26.88c0,3.8-2.51,7.59-7.49,10.48l.08-26.88C233.28,183.47,235.77,179.68,235.78,175.89Z"/><polygon class="cls-21" points="277.41 214.72 277.34 241.61 228.54 269.96 228.62 243.08 277.41 214.72"/><path class="cls-22" d="M184.63,280.44l.08-26.88c0-3.79,2.5-7.58,7.48-10.47,10-5.83,26.35-5.83,36.43,0L228.54,270c-10.08-5.82-26.4-5.82-36.43,0C187.13,272.87,184.64,276.65,184.63,280.44Z"/><polygon class="cls-21" points="192.31 264.18 192.23 291.06 143.42 319.43 143.5 292.55 192.31 264.18"/><polygon class="cls-23" points="143.5 292.55 143.42 319.43 8.63 241.61 8.71 214.72 143.5 292.55"/><path class="cls-24" d="M228.18,165.26c10.09,5.83,10.15,15.28.12,21.11l49.11,28.35-48.79,28.36c-10.08-5.82-26.4-5.82-36.43,0s-10,15.27.12,21.09L143.5,292.55,8.71,214.73,142.62,136.9l49.13,28.37C201.78,159.44,218.08,159.43,228.18,165.26Z"/></g><g class="cls-16"><path class="cls-25" d="M400.06,202.63l.07-26.89c0,3.84,2.53,7.69,7.6,10.62l-.07,26.88C402.58,210.31,400.05,206.47,400.06,202.63Z"/><polygon class="cls-25" points="408.05 243.09 407.98 269.97 358.85 241.61 358.93 214.72 408.05 243.09"/><path class="cls-26" d="M452.09,253.7,452,280.59c0-3.84-2.52-7.69-7.59-10.62-10.1-5.83-26.42-5.83-36.44,0l.07-26.88c10-5.83,26.35-5.83,36.44,0C449.56,246,452.1,249.86,452.09,253.7Z"/><polygon class="cls-25" points="493.73 292.55 493.65 319.44 444.52 291.07 444.6 264.19 493.73 292.55"/><polygon class="cls-26" points="627.65 214.72 627.58 241.61 493.65 319.44 493.73 292.55 627.65 214.72"/><path class="cls-27" d="M627.65,214.72,493.73,292.55,444.6,264.19c10-5.83,10-15.28-.11-21.1s-26.41-5.83-36.44,0l-49.13-28.37,48.81-28.36c-10.09-5.83-10.13-15.27-.1-21.1s26.32-5.83,36.41,0l48.81-28.37Z"/></g><g class="cls-16"><path class="cls-28" d="M411.46,277.31l-.07,26.89c0,3.79-2.51,7.58-7.49,10.48L404,287.8C409,284.9,411.45,281.11,411.46,277.31Z"/><path class="cls-29" d="M225.52,304.05l.07-26.88c0,3.84,2.53,7.69,7.61,10.62l-.08,26.88C228,311.74,225.5,307.89,225.52,304.05Z"/><path class="cls-30" d="M271.12,403.39s1.32.45,4.42,1.75,9.78,1.74,13.94,1.07,9.9-1.59,8.8-3.11-22.08-6.77-23-6.35S271.12,403.39,271.12,403.39Z"/><polygon class="cls-29" points="319.19 393.98 319.11 420.87 184.31 343.04 184.39 316.15 319.19 393.98"/><polygon class="cls-28" points="453.1 316.16 453.03 343.04 319.11 420.87 319.19 393.98 453.1 316.16"/><path class="cls-31" d="M403.87,266.7C414,272.52,414,282,404,287.8l49.12,28.36L319.19,394l-134.8-77.83,48.81-28.36c-10.1-5.83-10.15-15.27-.12-21.09s26.33-5.84,36.43,0l48.79-28.36,49.13,28.37C377.46,260.87,393.78,260.87,403.87,266.7Z"/></g><g class="cls-16"><path class="cls-32" d="M319.48,310.43v2.8c0,2.21-1.46,4.41-4.35,6.1-5.84,3.39-15.33,3.39-21.21,0-3-1.71-4.43-3.95-4.43-6.18v-2.8c0,2.24,1.47,4.48,4.42,6.18,5.88,3.4,15.38,3.4,21.21,0C318,314.85,319.47,312.64,319.48,310.43Z"/><path class="cls-33" d="M315,304.24c5.89,3.4,5.92,8.9.08,12.29s-15.33,3.39-21.21,0-5.9-8.89-.07-12.28S309.17,300.85,315,304.24Z"/></g><path class="cls-33" d="M339.85,219.5a3.43,3.43,0,0,0-3.46.33L261.6,263a10.66,10.66,0,0,0-4.86,8.41l.12,55.91a3.41,3.41,0,0,0,1.41,3.12l4.84,2.81a3.43,3.43,0,0,1-1.42-3.12l-.12-55.91a10.73,10.73,0,0,1,4.86-8.41l74.79-43.18a3.42,3.42,0,0,1,3.46-.34Z"/><path class="cls-32" d="M341.22,222.65c2.69-1.55,4.87-.31,4.88,2.79l.12,55.91a10.67,10.67,0,0,1-4.85,8.39l-74.79,43.18c-2.69,1.56-4.88.31-4.89-2.77l-.12-55.91a10.73,10.73,0,0,1,4.86-8.41Z"/><line class="cls-34" x1="265.01" y1="274.23" x2="265.01" y2="274.22"/><polygon class="cls-35" points="342.7 236.52 342.68 225.77 340.6 226.97 336.07 229.58 275.86 264.35 265.01 270.61 265.01 274.22 265.01 274.23 265.06 300.79 265.11 322.94 312.77 295.43 320.19 291.14 342.78 278.1 342.7 236.52"/><polygon class="cls-27" points="275.86 264.35 265.1 270.56 265.11 273.95 342.68 229.17 342.67 225.77 275.86 264.35"/><path class="cls-27" d="M274.15,278.24a5.42,5.42,0,0,1-2.45,4.24c-1.35.79-2.45.15-2.45-1.41a5.45,5.45,0,0,1,2.45-4.25C273.05,276,274.15,276.68,274.15,278.24Z"/><path class="cls-24" d="M274.15,286.86a5.42,5.42,0,0,1-2.45,4.24c-1.35.79-2.45.15-2.45-1.41a5.45,5.45,0,0,1,2.45-4.25C273.05,284.66,274.15,285.3,274.15,286.86Z"/><path class="cls-31" d="M274.15,295.39a5.42,5.42,0,0,1-2.45,4.24c-1.35.78-2.45.15-2.45-1.41A5.42,5.42,0,0,1,271.7,294C273.05,293.19,274.15,293.82,274.15,295.39Z"/><path class="cls-24" d="M273.82,323.81a3.87,3.87,0,0,1-1.75,3c-1,.56-1.76.11-1.76-1a3.87,3.87,0,0,1,1.76-3C273,322.23,273.82,322.69,273.82,323.81Z"/><polygon class="cls-15" points="373.25 325.98 349.3 312.15 381.18 293.74 405.13 307.57 373.25 325.98"/><polygon class="cls-36" points="373.25 327.03 373.25 325.98 405.13 307.57 405.13 308.62 373.25 327.03"/><polygon class="cls-36" points="373.25 325.98 373.25 327.03 349.3 313.2 349.3 312.15 373.25 325.98"/><polygon class="cls-37" points="287.82 342.75 287.83 344.81 311.21 358.39 311.21 356.34 287.82 342.75"/><polygon class="cls-32" points="311.21 356.34 311.21 358.39 362.97 328.51 362.97 326.45 311.21 356.34"/><polygon class="cls-33" points="287.82 342.75 311.21 356.34 362.97 326.45 339.58 312.86 287.82 342.75"/><g class="cls-16"><polygon class="cls-37" points="336.42 316.28 336.42 317.31 339.66 319.19 339.65 318.16 336.42 316.28"/><polygon class="cls-32" points="339.65 318.16 339.66 319.19 342.85 317.35 342.85 316.32 339.65 318.16"/><polygon class="cls-33" points="336.42 316.28 339.65 318.16 342.85 316.32 339.61 314.44 336.42 316.28"/></g><g class="cls-16"><polygon class="cls-37" points="332.32 318.65 332.33 319.68 335.56 321.56 335.56 320.53 332.32 318.65"/><polygon class="cls-32" points="335.56 320.53 335.56 321.56 338.75 319.71 338.75 318.69 335.56 320.53"/><polygon class="cls-33" points="332.32 318.65 335.56 320.53 338.75 318.69 335.52 316.81 332.32 318.65"/></g><g class="cls-16"><polygon class="cls-37" points="328.24 321.01 328.24 322.04 331.48 323.92 331.47 322.89 328.24 321.01"/><polygon class="cls-32" points="331.47 322.89 331.48 323.92 334.67 322.07 334.67 321.05 331.47 322.89"/><polygon class="cls-33" points="328.24 321.01 331.47 322.89 334.67 321.05 331.43 319.17 328.24 321.01"/></g><g class="cls-16"><polygon class="cls-37" points="324.15 323.37 324.15 324.4 327.39 326.28 327.39 325.25 324.15 323.37"/><polygon class="cls-32" points="327.39 325.25 327.39 326.28 330.58 324.43 330.58 323.4 327.39 325.25"/><polygon class="cls-33" points="324.15 323.37 327.39 325.25 330.58 323.4 327.34 321.52 324.15 323.37"/></g><g class="cls-16"><polygon class="cls-37" points="320.06 325.73 320.06 326.76 323.29 328.64 323.29 327.61 320.06 325.73"/><polygon class="cls-32" points="323.29 327.61 323.29 328.64 326.49 326.8 326.48 325.77 323.29 327.61"/><polygon class="cls-33" points="320.06 325.73 323.29 327.61 326.48 325.77 323.25 323.89 320.06 325.73"/></g><g class="cls-16"><polygon class="cls-37" points="315.97 328.09 315.97 329.12 319.21 331 319.2 329.97 315.97 328.09"/><polygon class="cls-32" points="319.2 329.97 319.21 331 322.4 329.16 322.4 328.13 319.2 329.97"/><polygon class="cls-33" points="315.97 328.09 319.2 329.97 322.4 328.13 319.16 326.25 315.97 328.09"/></g><g class="cls-16"><polygon class="cls-37" points="311.88 330.45 311.88 331.48 315.12 333.36 315.12 332.33 311.88 330.45"/><polygon class="cls-32" points="315.12 332.33 315.12 333.36 318.31 331.52 318.31 330.49 315.12 332.33"/><polygon class="cls-33" points="311.88 330.45 315.12 332.33 318.31 330.49 315.07 328.61 311.88 330.45"/></g><g class="cls-16"><polygon class="cls-37" points="307.79 332.81 307.79 333.84 311.03 335.73 311.02 334.69 307.79 332.81"/><polygon class="cls-32" points="311.02 334.69 311.03 335.73 314.23 333.88 314.22 332.85 311.02 334.69"/><polygon class="cls-33" points="307.79 332.81 311.02 334.69 314.22 332.85 310.99 330.97 307.79 332.81"/></g><g class="cls-16"><polygon class="cls-37" points="303.7 335.18 303.7 336.2 306.94 338.08 306.94 337.06 303.7 335.18"/><polygon class="cls-32" points="306.94 337.06 306.94 338.08 310.13 336.24 310.13 335.21 306.94 337.06"/><polygon class="cls-33" points="303.7 335.18 306.94 337.06 310.13 335.21 306.89 333.33 303.7 335.18"/></g><g class="cls-16"><polygon class="cls-37" points="299.61 337.53 299.62 338.56 302.85 340.44 302.85 339.41 299.61 337.53"/><polygon class="cls-32" points="302.85 339.41 302.85 340.44 306.04 338.6 306.04 337.57 302.85 339.41"/><polygon class="cls-33" points="299.61 337.53 302.85 339.41 306.04 337.57 302.81 335.69 299.61 337.53"/></g><g class="cls-16"><polygon class="cls-37" points="291.43 342.26 291.44 343.29 294.67 345.17 294.67 344.14 291.43 342.26"/><polygon class="cls-32" points="294.67 344.14 294.67 345.17 301.96 340.96 301.95 339.93 294.67 344.14"/><polygon class="cls-33" points="291.43 342.26 294.67 344.14 301.95 339.93 298.72 338.05 291.43 342.26"/></g><g class="cls-16"><polygon class="cls-37" points="336.45 321.05 336.45 322.07 339.69 323.95 339.68 322.93 336.45 321.05"/><polygon class="cls-32" points="339.68 322.93 339.69 323.95 346.97 319.75 346.97 318.72 339.68 322.93"/><polygon class="cls-33" points="336.45 321.05 339.68 322.93 346.97 318.72 343.74 316.84 336.45 321.05"/></g><g class="cls-16"><polygon class="cls-37" points="332.36 323.4 332.37 324.43 335.6 326.31 335.6 325.29 332.36 323.4"/><polygon class="cls-32" points="335.6 325.29 335.6 326.31 338.79 324.47 338.79 323.44 335.6 325.29"/><polygon class="cls-33" points="332.36 323.4 335.6 325.29 338.79 323.44 335.55 321.56 332.36 323.4"/></g><g class="cls-16"><polygon class="cls-37" points="328.27 325.76 328.28 326.79 331.51 328.67 331.51 327.64 328.27 325.76"/><polygon class="cls-32" points="331.51 327.64 331.51 328.67 334.71 326.83 334.7 325.8 331.51 327.64"/><polygon class="cls-33" points="328.27 325.76 331.51 327.64 334.7 325.8 331.47 323.92 328.27 325.76"/></g><g class="cls-16"><polygon class="cls-37" points="324.18 328.13 324.18 329.16 327.42 331.04 327.42 330.01 324.18 328.13"/><polygon class="cls-32" points="327.42 330.01 327.42 331.04 330.61 329.19 330.61 328.17 327.42 330.01"/><polygon class="cls-33" points="324.18 328.13 327.42 330.01 330.61 328.17 327.37 326.29 324.18 328.13"/></g><g class="cls-16"><polygon class="cls-37" points="320.09 330.49 320.1 331.52 323.33 333.4 323.33 332.37 320.09 330.49"/><polygon class="cls-32" points="323.33 332.37 323.33 333.4 326.52 331.56 326.52 330.52 323.33 332.37"/><polygon class="cls-33" points="320.09 330.49 323.33 332.37 326.52 330.52 323.29 328.64 320.09 330.49"/></g><g class="cls-16"><polygon class="cls-37" points="316.01 332.85 316.01 333.88 319.25 335.76 319.24 334.73 316.01 332.85"/><polygon class="cls-32" points="319.24 334.73 319.25 335.76 322.44 333.91 322.43 332.88 319.24 334.73"/><polygon class="cls-33" points="316.01 332.85 319.24 334.73 322.43 332.88 319.2 331 316.01 332.85"/></g><g class="cls-16"><polygon class="cls-37" points="311.91 335.21 311.91 336.24 315.15 338.12 315.15 337.09 311.91 335.21"/><polygon class="cls-32" points="315.15 337.09 315.15 338.12 318.35 336.27 318.35 335.25 315.15 337.09"/><polygon class="cls-33" points="311.91 335.21 315.15 337.09 318.35 335.25 315.11 333.36 311.91 335.21"/></g><g class="cls-16"><polygon class="cls-37" points="307.82 337.57 307.83 338.6 311.06 340.48 311.06 339.45 307.82 337.57"/><polygon class="cls-32" points="311.06 339.45 311.06 340.48 314.25 338.64 314.25 337.61 311.06 339.45"/><polygon class="cls-33" points="307.82 337.57 311.06 339.45 314.25 337.61 311.02 335.73 307.82 337.57"/></g><g class="cls-16"><polygon class="cls-37" points="303.74 339.93 303.74 340.96 306.98 342.84 306.97 341.81 303.74 339.93"/><polygon class="cls-32" points="306.97 341.81 306.98 342.84 310.17 341 310.17 339.97 306.97 341.81"/><polygon class="cls-33" points="303.74 339.93 306.97 341.81 310.17 339.97 306.93 338.09 303.74 339.93"/></g><g class="cls-16"><polygon class="cls-37" points="299.64 342.3 299.65 343.32 302.88 345.2 302.88 344.18 299.64 342.3"/><polygon class="cls-32" points="302.88 344.18 302.88 345.2 306.08 343.36 306.08 342.33 302.88 344.18"/><polygon class="cls-33" points="299.64 342.3 302.88 344.18 306.08 342.33 302.84 340.45 299.64 342.3"/></g><g class="cls-16"><polygon class="cls-37" points="295.56 344.65 295.56 345.68 298.79 347.56 298.79 346.54 295.56 344.65"/><polygon class="cls-32" points="298.79 346.54 298.79 347.56 301.99 345.72 301.98 344.69 298.79 346.54"/><polygon class="cls-33" points="295.56 344.65 298.79 346.54 301.98 344.69 298.75 342.81 295.56 344.65"/></g><g class="cls-16"><polygon class="cls-37" points="340.57 323.44 340.58 324.47 343.81 326.35 343.81 325.32 340.57 323.44"/><polygon class="cls-32" points="343.81 325.32 343.81 326.35 351.1 322.14 351.1 321.12 343.81 325.32"/><polygon class="cls-33" points="340.57 323.44 343.81 325.32 351.1 321.12 347.86 319.24 340.57 323.44"/></g><g class="cls-16"><polygon class="cls-37" points="336.49 325.8 336.49 326.83 339.73 328.71 339.72 327.68 336.49 325.8"/><polygon class="cls-32" points="339.72 327.68 339.73 328.71 342.92 326.87 342.91 325.84 339.72 327.68"/><polygon class="cls-33" points="336.49 325.8 339.72 327.68 342.91 325.84 339.68 323.96 336.49 325.8"/></g><g class="cls-16"><polygon class="cls-37" points="332.4 328.16 332.4 329.19 335.64 331.07 335.63 330.04 332.4 328.16"/><polygon class="cls-32" points="335.63 330.04 335.64 331.07 338.83 329.23 338.83 328.2 335.63 330.04"/><polygon class="cls-33" points="332.4 328.16 335.63 330.04 338.83 328.2 335.59 326.32 332.4 328.16"/></g><g class="cls-16"><polygon class="cls-37" points="328.31 330.52 328.31 331.56 331.54 333.44 331.54 332.41 328.31 330.52"/><polygon class="cls-32" points="331.54 332.41 331.54 333.44 334.74 331.59 334.73 330.56 331.54 332.41"/><polygon class="cls-33" points="328.31 330.52 331.54 332.41 334.73 330.56 331.5 328.68 328.31 330.52"/></g><g class="cls-16"><polygon class="cls-37" points="324.22 332.88 324.22 333.91 327.46 335.79 327.45 334.76 324.22 332.88"/><polygon class="cls-32" points="327.45 334.76 327.46 335.79 330.65 333.95 330.64 332.92 327.45 334.76"/><polygon class="cls-33" points="324.22 332.88 327.45 334.76 330.64 332.92 327.41 331.04 324.22 332.88"/></g><g class="cls-16"><polygon class="cls-37" points="320.13 335.25 320.13 336.27 323.37 338.15 323.37 337.13 320.13 335.25"/><polygon class="cls-32" points="323.37 337.13 323.37 338.15 326.56 336.31 326.56 335.28 323.37 337.13"/><polygon class="cls-33" points="320.13 335.25 323.37 337.13 326.56 335.28 323.32 333.4 320.13 335.25"/></g><g class="cls-16"><polygon class="cls-37" points="316.04 337.61 316.04 338.64 319.27 340.52 319.27 339.49 316.04 337.61"/><polygon class="cls-32" points="319.27 339.49 319.27 340.52 322.48 338.67 322.47 337.64 319.27 339.49"/><polygon class="cls-33" points="316.04 337.61 319.27 339.49 322.47 337.64 319.24 335.76 316.04 337.61"/></g><g class="cls-16"><polygon class="cls-37" points="311.95 339.97 311.95 341 315.19 342.88 315.19 341.85 311.95 339.97"/><polygon class="cls-32" points="315.19 341.85 315.19 342.88 318.38 341.04 318.38 340.01 315.19 341.85"/><polygon class="cls-33" points="311.95 339.97 315.19 341.85 318.38 340.01 315.14 338.13 311.95 339.97"/></g><g class="cls-16"><polygon class="cls-37" points="307.86 342.33 307.87 343.36 311.1 345.24 311.1 344.21 307.86 342.33"/><polygon class="cls-32" points="311.1 344.21 311.1 345.24 314.29 343.39 314.29 342.37 311.1 344.21"/><polygon class="cls-33" points="307.86 342.33 311.1 344.21 314.29 342.37 311.05 340.49 307.86 342.33"/></g><g class="cls-16"><polygon class="cls-37" points="299.68 347.05 299.68 348.08 302.92 349.96 302.92 348.93 299.68 347.05"/><polygon class="cls-32" points="302.92 348.93 302.92 349.96 310.21 345.75 310.2 344.73 302.92 348.93"/><polygon class="cls-33" points="299.68 347.05 302.92 348.93 310.2 344.73 306.97 342.85 299.68 347.05"/></g><g class="cls-16"><polygon class="cls-37" points="340.62 328.2 340.62 329.23 343.86 331.11 343.85 330.08 340.62 328.2"/><polygon class="cls-32" points="343.85 330.08 343.86 331.11 355.23 324.55 355.23 323.52 343.85 330.08"/><polygon class="cls-33" points="340.62 328.2 343.85 330.08 355.23 323.52 351.99 321.64 340.62 328.2"/></g><g class="cls-16"><polygon class="cls-37" points="336.53 330.56 336.54 331.59 339.77 333.47 339.77 332.44 336.53 330.56"/><polygon class="cls-32" points="339.77 332.44 339.77 333.47 342.96 331.63 342.96 330.6 339.77 332.44"/><polygon class="cls-33" points="336.53 330.56 339.77 332.44 342.96 330.6 339.72 328.72 336.53 330.56"/></g><g class="cls-16"><polygon class="cls-37" points="332.44 332.93 332.44 333.96 335.68 335.84 335.67 334.81 332.44 332.93"/><polygon class="cls-32" points="335.67 334.81 335.68 335.84 338.87 333.99 338.87 332.96 335.67 334.81"/><polygon class="cls-33" points="332.44 332.93 335.67 334.81 338.87 332.96 335.63 331.08 332.44 332.93"/></g><g class="cls-16"><polygon class="cls-37" points="328.35 335.29 328.35 336.32 331.59 338.2 331.59 337.17 328.35 335.29"/><polygon class="cls-32" points="331.59 337.17 331.59 338.2 334.78 336.35 334.78 335.32 331.59 337.17"/><polygon class="cls-33" points="328.35 335.29 331.59 337.17 334.78 335.32 331.54 333.44 328.35 335.29"/></g><g class="cls-16"><polygon class="cls-37" points="324.26 337.65 324.27 338.68 327.5 340.56 327.5 339.53 324.26 337.65"/><polygon class="cls-32" points="327.5 339.53 327.5 340.56 330.69 338.71 330.69 337.68 327.5 339.53"/><polygon class="cls-33" points="324.26 337.65 327.5 339.53 330.69 337.68 327.45 335.8 324.26 337.65"/></g><g class="cls-16"><polygon class="cls-37" points="320.17 340.01 320.17 341.04 323.41 342.92 323.4 341.89 320.17 340.01"/><polygon class="cls-32" points="323.4 341.89 323.41 342.92 326.61 341.07 326.6 340.04 323.4 341.89"/><polygon class="cls-33" points="320.17 340.01 323.4 341.89 326.6 340.04 323.37 338.16 320.17 340.01"/></g><g class="cls-16"><polygon class="cls-37" points="316.08 342.37 316.08 343.4 319.32 345.28 319.32 344.25 316.08 342.37"/><polygon class="cls-32" points="319.32 344.25 319.32 345.28 322.51 343.44 322.51 342.41 319.32 344.25"/><polygon class="cls-33" points="316.08 342.37 319.32 344.25 322.51 342.41 319.27 340.53 316.08 342.37"/></g><g class="cls-16"><polygon class="cls-37" points="312 344.73 312 345.76 315.23 347.64 315.23 346.61 312 344.73"/><polygon class="cls-32" points="315.23 346.61 315.23 347.64 318.43 345.8 318.42 344.77 315.23 346.61"/><polygon class="cls-33" points="312 344.73 315.23 346.61 318.42 344.77 315.19 342.89 312 344.73"/></g><g class="cls-16"><polygon class="cls-37" points="303.81 349.45 303.82 350.48 307.05 352.36 307.05 351.33 303.81 349.45"/><polygon class="cls-32" points="307.05 351.33 307.05 352.36 314.34 348.15 314.33 347.13 307.05 351.33"/><polygon class="cls-33" points="303.81 349.45 307.05 351.33 314.33 347.13 311.1 345.25 303.81 349.45"/></g><g class="cls-16"><polygon class="cls-37" points="352.93 325.88 352.93 326.9 356.16 328.79 356.16 327.76 352.93 325.88"/><polygon class="cls-32" points="356.16 327.76 356.16 328.79 359.36 326.94 359.35 325.91 356.16 327.76"/><polygon class="cls-33" points="352.93 325.88 356.16 327.76 359.35 325.91 356.12 324.03 352.93 325.88"/></g><g class="cls-16"><polygon class="cls-37" points="348.83 328.24 348.83 329.27 352.07 331.15 352.07 330.12 348.83 328.24"/><polygon class="cls-32" points="352.07 330.12 352.07 331.15 355.26 329.31 355.26 328.28 352.07 330.12"/><polygon class="cls-33" points="348.83 328.24 352.07 330.12 355.26 328.28 352.02 326.4 348.83 328.24"/></g><g class="cls-16"><polygon class="cls-37" points="344.74 330.6 344.75 331.63 347.98 333.51 347.98 332.48 344.74 330.6"/><polygon class="cls-32" points="347.98 332.48 347.98 333.51 351.17 331.67 351.17 330.64 347.98 332.48"/><polygon class="cls-33" points="344.74 330.6 347.98 332.48 351.17 330.64 347.94 328.76 344.74 330.6"/></g><g class="cls-16"><polygon class="cls-37" points="324.29 342.41 324.3 343.44 327.53 345.32 327.53 344.29 324.29 342.41"/><polygon class="cls-32" points="327.53 344.29 327.53 345.32 347.09 334.03 347.08 333 327.53 344.29"/><polygon class="cls-33" points="324.29 342.41 327.53 344.29 347.08 333 343.85 331.12 324.29 342.41"/></g><g class="cls-16"><polygon class="cls-37" points="320.21 344.77 320.21 345.8 323.44 347.68 323.44 346.65 320.21 344.77"/><polygon class="cls-32" points="323.44 346.65 323.44 347.68 326.64 345.83 326.63 344.8 323.44 346.65"/><polygon class="cls-33" points="320.21 344.77 323.44 346.65 326.63 344.8 323.4 342.92 320.21 344.77"/></g><g class="cls-16"><polygon class="cls-37" points="316.12 347.13 316.12 348.15 319.36 350.04 319.35 349.01 316.12 347.13"/><polygon class="cls-32" points="319.35 349.01 319.36 350.04 322.55 348.19 322.55 347.16 319.35 349.01"/><polygon class="cls-33" points="316.12 347.13 319.35 349.01 322.55 347.16 319.31 345.28 316.12 347.13"/></g><g class="cls-16"><polygon class="cls-37" points="307.94 351.85 307.94 352.88 311.18 354.76 311.17 353.73 307.94 351.85"/><polygon class="cls-32" points="311.17 353.73 311.18 354.76 318.46 350.55 318.46 349.52 311.17 353.73"/><polygon class="cls-33" points="307.94 351.85 311.17 353.73 318.46 349.52 315.22 347.64 307.94 351.85"/></g><polygon class="cls-27" points="320.43 259.54 320.48 275.79 334.61 267.63 334.56 251.38 320.43 259.54"/><g class="cls-16"><polygon class="cls-33" points="306.93 273.45 306.93 274.09 317.18 268.17 317.18 267.53 306.93 273.45"/><polygon class="cls-33" points="306.92 271.41 306.93 272.06 317.18 266.14 317.18 265.5 306.92 271.41"/><polygon class="cls-33" points="306.92 269.38 306.92 270.03 317.17 264.11 317.17 263.46 306.92 269.38"/><polygon class="cls-33" points="306.91 267.35 306.91 267.99 317.17 262.07 317.16 261.43 306.91 267.35"/></g><polygon class="cls-33" points="306.94 277.51 306.94 278.16 317.19 272.24 317.19 271.6 306.94 277.51"/><polygon class="cls-33" points="306.94 275.48 306.94 276.13 317.19 270.21 317.19 269.56 306.94 275.48"/><polygon class="cls-33" points="309.55 278.05 309.55 278.69 317.2 274.27 317.2 273.63 309.55 278.05"/><g class="cls-16"><path class="cls-31" d="M332.57,245.94a1.08,1.08,0,0,0-.49.85c0,.31.23.43.49.28a1,1,0,0,0,.49-.85C333.06,245.91,332.84,245.79,332.57,245.94Z"/><path class="cls-33" d="M337,242.48c.52-.3.94-.06.94.53v4.42c0-.54-.39-.76-.86-.49l-32.55,18.79a1.91,1.91,0,0,0-.85,1.49v-4.43a2,2,0,0,1,.93-1.61Zm-2.48,3.45a1.1,1.1,0,0,0,.49-.85c0-.31-.22-.43-.49-.28a1.08,1.08,0,0,0-.49.85c0,.31.22.43.49.28m-2,1.14a1,1,0,0,0,.49-.85c0-.31-.22-.43-.49-.28a1.08,1.08,0,0,0-.49.85c0,.31.23.43.49.28m3.95-2.28a1.07,1.07,0,0,0,.49-.85c0-.31-.22-.43-.49-.28a1.08,1.08,0,0,0-.49.85c0,.31.23.43.49.28"/><path class="cls-20" d="M337.12,246.94c.47-.27.86-.05.86.49L338,268.7a1.89,1.89,0,0,1-.85,1.48L304.64,289c-.48.28-.86,0-.86-.49l-.06-21.26a1.91,1.91,0,0,1,.85-1.49Zm-16.65,28.85,14.14-8.16-.05-16.25-14.13,8.16,0,16.25m-13.53.34,10.25-5.92v-.65l-10.25,5.92v.65m0-6.1,10.25-5.92v-.65l-10.25,5.92V270m0,2,10.25-5.92v-.64l-10.26,5.91v.65m0-4.07,10.26-5.92v-.64l-10.25,5.92V268m0,10.17,10.25-5.92v-.65l-10.25,5.92v.65m0-4.07,10.25-5.92v-.64l-10.25,5.92v.64m2.62,4.6,7.65-4.42v-.64l-7.65,4.42v.64"/></g><path class="cls-24" d="M336.52,243.66a1.08,1.08,0,0,0-.49.85c0,.31.23.43.49.28a1.07,1.07,0,0,0,.49-.85C337,243.63,336.79,243.51,336.52,243.66Z"/><path class="cls-27" d="M334.55,244.8a1.08,1.08,0,0,0-.49.85c0,.31.22.43.49.28a1.1,1.1,0,0,0,.49-.85C335,244.77,334.82,244.65,334.55,244.8Z"/><path class="cls-32" d="M389.18,312c0,.14-.09.25-.17.34l-6.61,3.76-1.12-.71c1.83-1,5.62-3.11,7.81-4.33A4.91,4.91,0,0,1,389.18,312Z"/><path class="cls-38" d="M389.09,311.06c-2.19,1.22-6,3.3-7.81,4.33l-13.5-8.61,3.5-2c2.22-1.22,4.62-2.85,7.15-3.16a10.59,10.59,0,0,1,10.66,9.41Z"/><path class="cls-37" d="M382,316.1a.48.48,0,0,0,.69-.43,9.41,9.41,0,0,0-5.44-8.47c-1.57-.89-6.31-2.79-9.76-.21a.46.46,0,0,0,.05.76C372.72,310.83,379.75,314.83,382,316.1Z"/><path class="cls-32" d="M193.86,215l-2.29,1.33a1.61,1.61,0,0,0,.67-1.48l2.3-1.33A1.6,1.6,0,0,1,193.86,215Z"/><path class="cls-32" d="M126.31,122.86l2.3-1.33a1.61,1.61,0,0,1,1.64.16L128,123A1.63,1.63,0,0,0,126.31,122.86Z"/><polygon class="cls-32" points="192.37 162.87 194.67 161.53 194.54 213.55 192.24 214.88 192.37 162.87"/><polygon class="cls-32" points="127.96 123.02 130.25 121.69 192.37 157.55 190.07 158.88 127.96 123.02"/><path class="cls-32" d="M190.07,158.88l2.3-1.33a5.09,5.09,0,0,1,2.3,4l-2.3,1.34A5.07,5.07,0,0,0,190.07,158.88Z"/><path class="cls-36" d="M190.07,158.88a5.07,5.07,0,0,1,2.3,4l-.13,52c0,1.47-1,2.05-2.31,1.32l-62.12-35.86a5.08,5.08,0,0,1-2.3-4l.13-52c0-1.47,1-2.06,2.32-1.32Z"/><polygon class="cls-35" points="127.94 128.25 127.83 175.11 189.94 210.97 190.06 164.11 127.94 128.25"/><path class="cls-39" d="M190.88,217.54v2.66a1.61,1.61,0,0,1-.94,1.32v-2.65A1.62,1.62,0,0,0,190.88,217.54Z"/><path class="cls-39" d="M145.42,244.68v2.65a5.1,5.1,0,0,1-4.6,0v-2.65A5.1,5.1,0,0,0,145.42,244.68Z"/><path class="cls-39" d="M77.74,210.13v-2.66a1.59,1.59,0,0,0,1,1.34v2.66A1.64,1.64,0,0,1,77.74,210.13Z"/><polygon class="cls-39" points="189.94 218.87 189.94 221.52 145.41 247.33 145.42 244.68 189.94 218.87"/><polygon class="cls-39" points="140.82 244.68 140.81 247.33 78.7 211.47 78.7 208.81 140.82 244.68"/><path class="cls-32" d="M189.93,216.2a1.41,1.41,0,0,1,0,2.67l-44.52,25.81a5.1,5.1,0,0,1-4.6,0L78.7,208.81a1.41,1.41,0,0,1,0-2.66l44.52-25.81a5.07,5.07,0,0,1,4.6,0Z"/><g class="cls-16"><path class="cls-33" d="M139.54,222.93l-22.9-13.22a2.49,2.49,0,0,0-2.3,0l-11.82,6.81a.7.7,0,0,0,0,1.33l22.9,13.22a2.55,2.55,0,0,0,2.3,0l11.82-6.81c.64-.38.64-1,0-1.33"/></g><g class="cls-16"><polygon class="cls-36" points="128.5 184.39 128.49 185.06 124.31 187.49 124.31 186.82 128.5 184.39"/><polygon class="cls-36" points="124.31 186.82 124.31 187.49 120.2 185.11 120.2 184.45 124.31 186.82"/><polygon class="cls-15" points="128.5 184.39 124.31 186.82 120.2 184.45 124.38 182.02 128.5 184.39"/></g><g class="cls-16"><polygon class="cls-36" points="133.78 187.44 133.77 188.1 129.59 190.53 129.59 189.87 133.78 187.44"/><polygon class="cls-36" points="129.59 189.87 129.59 190.53 125.47 188.15 125.47 187.49 129.59 189.87"/><polygon class="cls-15" points="133.78 187.44 129.59 189.87 125.47 187.49 129.65 185.06 133.78 187.44"/></g><g class="cls-16"><polygon class="cls-36" points="139.04 190.48 139.04 191.15 134.86 193.58 134.86 192.91 139.04 190.48"/><polygon class="cls-36" points="134.86 192.91 134.86 193.58 130.75 191.2 130.75 190.54 134.86 192.91"/><polygon class="cls-15" points="139.04 190.48 134.86 192.91 130.75 190.54 134.93 188.11 139.04 190.48"/></g><g class="cls-16"><polygon class="cls-36" points="144.31 193.53 144.31 194.19 140.13 196.62 140.13 195.96 144.31 193.53"/><polygon class="cls-36" points="140.13 195.96 140.13 196.62 136.01 194.24 136.02 193.58 140.13 195.96"/><polygon class="cls-15" points="144.31 193.53 140.13 195.96 136.02 193.58 140.2 191.15 144.31 193.53"/></g><g class="cls-16"><polygon class="cls-36" points="149.58 196.57 149.58 197.23 145.4 199.66 145.4 199 149.58 196.57"/><polygon class="cls-36" points="145.4 199 145.4 199.66 141.28 197.28 141.29 196.62 145.4 199"/><polygon class="cls-15" points="149.58 196.57 145.4 199 141.29 196.62 145.47 194.19 149.58 196.57"/></g><g class="cls-16"><polygon class="cls-36" points="154.86 199.62 154.86 200.28 150.68 202.71 150.68 202.04 154.86 199.62"/><polygon class="cls-36" points="150.68 202.04 150.68 202.71 146.56 200.33 146.56 199.67 150.68 202.04"/><polygon class="cls-15" points="154.86 199.62 150.68 202.04 146.56 199.67 150.75 197.24 154.86 199.62"/></g><g class="cls-16"><polygon class="cls-36" points="160.13 202.66 160.13 203.32 155.95 205.75 155.95 205.09 160.13 202.66"/><polygon class="cls-36" points="155.95 205.09 155.95 205.75 151.83 203.38 151.83 202.71 155.95 205.09"/><polygon class="cls-15" points="160.13 202.66 155.95 205.09 151.83 202.71 156.01 200.28 160.13 202.66"/></g><g class="cls-16"><polygon class="cls-36" points="165.4 205.7 165.4 206.36 161.22 208.79 161.22 208.13 165.4 205.7"/><polygon class="cls-36" points="161.22 208.13 161.22 208.79 157.1 206.42 157.1 205.75 161.22 208.13"/><polygon class="cls-15" points="165.4 205.7 161.22 208.13 157.1 205.75 161.28 203.32 165.4 205.7"/></g><g class="cls-16"><polygon class="cls-36" points="170.68 208.75 170.68 209.41 166.5 211.84 166.5 211.18 170.68 208.75"/><polygon class="cls-36" points="166.5 211.18 166.5 211.84 162.37 209.46 162.37 208.8 166.5 211.18"/><polygon class="cls-15" points="170.68 208.75 166.5 211.18 162.37 208.8 166.55 206.37 170.68 208.75"/></g><g class="cls-16"><polygon class="cls-36" points="175.95 211.79 175.95 212.45 171.76 214.88 171.77 214.22 175.95 211.79"/><polygon class="cls-36" points="171.77 214.22 171.76 214.88 167.65 212.51 167.65 211.84 171.77 214.22"/><polygon class="cls-15" points="175.95 211.79 171.77 214.22 167.65 211.84 171.83 209.41 175.95 211.79"/></g><g class="cls-16"><polygon class="cls-36" points="186.5 217.88 186.49 218.54 182.31 220.97 182.31 220.31 186.5 217.88"/><polygon class="cls-36" points="182.31 220.31 182.31 220.97 172.92 215.55 172.92 214.88 182.31 220.31"/><polygon class="cls-15" points="186.5 217.88 182.31 220.31 172.92 214.88 177.1 212.46 186.5 217.88"/></g><g class="cls-16"><polygon class="cls-36" points="128.45 190.54 128.45 191.2 124.28 193.63 124.28 192.96 128.45 190.54"/><polygon class="cls-36" points="124.28 192.96 124.28 193.63 114.88 188.2 114.88 187.54 124.28 192.96"/><polygon class="cls-15" points="128.45 190.54 124.28 192.96 114.88 187.54 119.05 185.11 128.45 190.54"/></g><g class="cls-16"><polygon class="cls-36" points="133.72 193.58 133.72 194.24 129.54 196.67 129.55 196 133.72 193.58"/><polygon class="cls-36" points="129.55 196 129.54 196.67 125.43 194.29 125.43 193.63 129.55 196"/><polygon class="cls-15" points="133.72 193.58 129.55 196 125.43 193.63 129.6 191.2 133.72 193.58"/></g><g class="cls-16"><polygon class="cls-36" points="138.99 196.62 138.98 197.28 134.81 199.71 134.81 199.04 138.99 196.62"/><polygon class="cls-36" points="134.81 199.04 134.81 199.71 130.7 197.33 130.7 196.67 134.81 199.04"/><polygon class="cls-15" points="138.99 196.62 134.81 199.04 130.7 196.67 134.87 194.25 138.99 196.62"/></g><g class="cls-16"><polygon class="cls-36" points="144.25 199.66 144.25 200.33 140.08 202.75 140.08 202.09 144.25 199.66"/><polygon class="cls-36" points="140.08 202.09 140.08 202.75 135.97 200.38 135.97 199.71 140.08 202.09"/><polygon class="cls-15" points="144.25 199.66 140.08 202.09 135.97 199.71 140.14 197.29 144.25 199.66"/></g><g class="cls-16"><polygon class="cls-36" points="149.53 202.71 149.53 203.38 145.36 205.8 145.36 205.14 149.53 202.71"/><polygon class="cls-36" points="145.36 205.14 145.36 205.8 141.25 203.42 141.25 202.76 145.36 205.14"/><polygon class="cls-15" points="149.53 202.71 145.36 205.14 141.25 202.76 145.42 200.34 149.53 202.71"/></g><g class="cls-16"><polygon class="cls-36" points="154.8 205.75 154.8 206.42 150.63 208.84 150.63 208.18 154.8 205.75"/><polygon class="cls-36" points="150.63 208.18 150.63 208.84 146.51 206.47 146.52 205.8 150.63 208.18"/><polygon class="cls-15" points="154.8 205.75 150.63 208.18 146.52 205.8 150.69 203.38 154.8 205.75"/></g><g class="cls-16"><polygon class="cls-36" points="160.07 208.8 160.07 209.46 155.9 211.88 155.9 211.22 160.07 208.8"/><polygon class="cls-36" points="155.9 211.22 155.9 211.88 151.78 209.51 151.78 208.84 155.9 211.22"/><polygon class="cls-15" points="160.07 208.8 155.9 211.22 151.78 208.84 155.96 206.42 160.07 208.8"/></g><g class="cls-16"><polygon class="cls-36" points="165.35 211.84 165.35 212.51 161.18 214.93 161.18 214.27 165.35 211.84"/><polygon class="cls-36" points="161.18 214.27 161.18 214.93 157.05 212.55 157.05 211.88 161.18 214.27"/><polygon class="cls-15" points="165.35 211.84 161.18 214.27 157.05 211.88 161.22 209.46 165.35 211.84"/></g><g class="cls-16"><polygon class="cls-36" points="170.62 214.88 170.62 215.55 166.45 217.97 166.45 217.31 170.62 214.88"/><polygon class="cls-36" points="166.45 217.31 166.45 217.97 162.33 215.6 162.33 214.93 166.45 217.31"/><polygon class="cls-15" points="170.62 214.88 166.45 217.31 162.33 214.93 166.5 212.51 170.62 214.88"/></g><g class="cls-16"><polygon class="cls-36" points="175.89 217.93 175.89 218.59 171.72 221.01 171.72 220.35 175.89 217.93"/><polygon class="cls-36" points="171.72 220.35 171.72 221.01 167.6 218.64 167.6 217.98 171.72 220.35"/><polygon class="cls-15" points="175.89 217.93 171.72 220.35 167.6 217.98 171.77 215.55 175.89 217.93"/></g><g class="cls-16"><polygon class="cls-36" points="181.17 220.97 181.17 221.64 177 224.06 177 223.4 181.17 220.97"/><polygon class="cls-36" points="177 223.4 177 224.06 172.87 221.68 172.87 221.02 177 223.4"/><polygon class="cls-15" points="181.17 220.97 177 223.4 172.87 221.02 177.04 218.59 181.17 220.97"/></g><g class="cls-16"><polygon class="cls-36" points="123.13 193.63 123.13 194.29 118.96 196.72 118.96 196.05 123.13 193.63"/><polygon class="cls-36" points="118.96 196.05 118.96 196.72 109.56 191.29 109.56 190.63 118.96 196.05"/><polygon class="cls-15" points="123.13 193.63 118.96 196.05 109.56 190.63 113.74 188.2 123.13 193.63"/></g><g class="cls-16"><polygon class="cls-36" points="128.4 196.67 128.4 197.33 124.23 199.76 124.23 199.09 128.4 196.67"/><polygon class="cls-36" points="124.23 199.09 124.23 199.76 120.11 197.38 120.11 196.72 124.23 199.09"/><polygon class="cls-15" points="128.4 196.67 124.23 199.09 120.11 196.72 124.28 194.29 128.4 196.67"/></g><g class="cls-16"><polygon class="cls-36" points="133.67 199.71 133.67 200.38 129.5 202.8 129.5 202.14 133.67 199.71"/><polygon class="cls-36" points="129.5 202.14 129.5 202.8 125.38 200.42 125.38 199.76 129.5 202.14"/><polygon class="cls-15" points="133.67 199.71 129.5 202.14 125.38 199.76 129.55 197.34 133.67 199.71"/></g><g class="cls-16"><polygon class="cls-36" points="138.94 202.75 138.94 203.42 134.76 205.84 134.77 205.18 138.94 202.75"/><polygon class="cls-36" points="134.77 205.18 134.76 205.84 130.65 203.47 130.65 202.8 134.77 205.18"/><polygon class="cls-15" points="138.94 202.75 134.77 205.18 130.65 202.8 134.82 200.38 138.94 202.75"/></g><g class="cls-16"><polygon class="cls-36" points="144.22 205.8 144.22 206.47 140.04 208.89 140.05 208.22 144.22 205.8"/><polygon class="cls-36" points="140.05 208.22 140.04 208.89 135.93 206.51 135.93 205.85 140.05 208.22"/><polygon class="cls-15" points="144.22 205.8 140.05 208.22 135.93 205.85 140.1 203.43 144.22 205.8"/></g><g class="cls-16"><polygon class="cls-36" points="149.49 208.84 149.48 209.51 145.31 211.93 145.31 211.27 149.49 208.84"/><polygon class="cls-36" points="145.31 211.27 145.31 211.93 141.2 209.56 141.2 208.89 145.31 211.27"/><polygon class="cls-15" points="149.49 208.84 145.31 211.27 141.2 208.89 145.37 206.47 149.49 208.84"/></g><g class="cls-16"><polygon class="cls-36" points="154.75 211.88 154.75 212.55 150.58 214.97 150.58 214.31 154.75 211.88"/><polygon class="cls-36" points="150.58 214.31 150.58 214.97 146.47 212.6 146.47 211.93 150.58 214.31"/><polygon class="cls-15" points="154.75 211.88 150.58 214.31 146.47 211.93 150.64 209.51 154.75 211.88"/></g><g class="cls-16"><polygon class="cls-36" points="160.03 214.93 160.03 215.6 155.86 218.02 155.86 217.36 160.03 214.93"/><polygon class="cls-36" points="155.86 217.36 155.86 218.02 151.74 215.64 151.74 214.98 155.86 217.36"/><polygon class="cls-15" points="160.03 214.93 155.86 217.36 151.74 214.98 155.91 212.55 160.03 214.93"/></g><g class="cls-16"><polygon class="cls-36" points="165.3 217.98 165.3 218.64 161.13 221.06 161.13 220.4 165.3 217.98"/><polygon class="cls-36" points="161.13 220.4 161.13 221.06 157.01 218.69 157.02 218.02 161.13 220.4"/><polygon class="cls-15" points="165.3 217.98 161.13 220.4 157.02 218.02 161.19 215.6 165.3 217.98"/></g><g class="cls-16"><polygon class="cls-36" points="175.85 224.06 175.85 224.73 171.68 227.15 171.68 226.49 175.85 224.06"/><polygon class="cls-36" points="171.68 226.49 171.68 227.15 162.28 221.73 162.28 221.06 171.68 226.49"/><polygon class="cls-15" points="175.85 224.06 171.68 226.49 162.28 221.06 166.46 218.64 175.85 224.06"/></g><g class="cls-16"><polygon class="cls-36" points="123.08 199.76 123.08 200.42 118.91 202.85 118.91 202.18 123.08 199.76"/><polygon class="cls-36" points="118.91 202.18 118.91 202.85 104.25 194.38 104.25 193.72 118.91 202.18"/><polygon class="cls-15" points="123.08 199.76 118.91 202.18 104.25 193.72 108.42 191.29 123.08 199.76"/></g><g class="cls-16"><polygon class="cls-36" points="128.35 202.8 128.35 203.47 124.18 205.89 124.18 205.22 128.35 202.8"/><polygon class="cls-36" points="124.18 205.22 124.18 205.89 120.06 203.51 120.06 202.85 124.18 205.22"/><polygon class="cls-15" points="128.35 202.8 124.18 205.22 120.06 202.85 124.24 200.43 128.35 202.8"/></g><g class="cls-16"><polygon class="cls-36" points="133.62 205.84 133.62 206.51 129.45 208.93 129.45 208.27 133.62 205.84"/><polygon class="cls-36" points="129.45 208.27 129.45 208.93 125.33 206.56 125.33 205.89 129.45 208.27"/><polygon class="cls-15" points="133.62 205.84 129.45 208.27 125.33 205.89 129.5 203.47 133.62 205.84"/></g><g class="cls-16"><polygon class="cls-36" points="138.9 208.89 138.9 209.56 134.73 211.98 134.73 211.32 138.9 208.89"/><polygon class="cls-36" points="134.73 211.32 134.73 211.98 130.61 209.6 130.61 208.94 134.73 211.32"/><polygon class="cls-15" points="138.9 208.89 134.73 211.32 130.61 208.94 134.78 206.51 138.9 208.89"/></g><g class="cls-16"><polygon class="cls-36" points="144.17 211.93 144.17 212.6 140 215.02 140 214.36 144.17 211.93"/><polygon class="cls-36" points="140 214.36 140 215.02 135.88 212.65 135.88 211.98 140 214.36"/><polygon class="cls-15" points="144.17 211.93 140 214.36 135.88 211.98 140.05 209.56 144.17 211.93"/></g><g class="cls-16"><polygon class="cls-36" points="149.44 214.98 149.44 215.64 145.26 218.06 145.27 217.4 149.44 214.98"/><polygon class="cls-36" points="145.27 217.4 145.26 218.06 141.15 215.69 141.15 215.02 145.27 217.4"/><polygon class="cls-15" points="149.44 214.98 145.27 217.4 141.15 215.02 145.32 212.6 149.44 214.98"/></g><g class="cls-16"><polygon class="cls-36" points="154.72 218.02 154.72 218.69 150.54 221.11 150.54 220.45 154.72 218.02"/><polygon class="cls-36" points="150.54 220.45 150.54 221.11 146.42 218.73 146.42 218.07 150.54 220.45"/><polygon class="cls-15" points="154.72 218.02 150.54 220.45 146.42 218.07 150.59 215.64 154.72 218.02"/></g><g class="cls-16"><polygon class="cls-36" points="159.99 221.06 159.98 221.73 155.81 224.15 155.81 223.49 159.99 221.06"/><polygon class="cls-36" points="155.81 223.49 155.81 224.15 151.7 221.78 151.7 221.11 155.81 223.49"/><polygon class="cls-15" points="159.99 221.06 155.81 223.49 151.7 221.11 155.87 218.69 159.99 221.06"/></g><g class="cls-16"><polygon class="cls-36" points="170.53 227.16 170.53 227.82 166.36 230.24 166.36 229.58 170.53 227.16"/><polygon class="cls-36" points="166.36 229.58 166.36 230.24 156.97 224.82 156.97 224.16 166.36 229.58"/><polygon class="cls-15" points="170.53 227.16 166.36 229.58 156.97 224.16 161.14 221.73 170.53 227.16"/></g><g class="cls-16"><polygon class="cls-36" points="107.22 196.76 107.22 197.42 103.03 199.85 103.04 199.19 107.22 196.76"/><polygon class="cls-36" points="103.04 199.19 103.03 199.85 98.92 197.48 98.92 196.81 103.04 199.19"/><polygon class="cls-15" points="107.22 196.76 103.04 199.19 98.92 196.81 103.1 194.38 107.22 196.76"/></g><g class="cls-16"><polygon class="cls-36" points="112.5 199.81 112.49 200.47 108.31 202.9 108.31 202.24 112.5 199.81"/><polygon class="cls-36" points="108.31 202.24 108.31 202.9 104.19 200.52 104.19 199.86 108.31 202.24"/><polygon class="cls-15" points="112.5 199.81 108.31 202.24 104.19 199.86 108.37 197.43 112.5 199.81"/></g><g class="cls-16"><polygon class="cls-36" points="117.77 202.85 117.76 203.51 113.58 205.94 113.58 205.28 117.77 202.85"/><polygon class="cls-36" points="113.58 205.28 113.58 205.94 109.47 203.57 109.47 202.9 113.58 205.28"/><polygon class="cls-15" points="117.77 202.85 113.58 205.28 109.47 202.9 113.65 200.47 117.77 202.85"/></g><g class="cls-16"><polygon class="cls-36" points="144.12 218.07 144.12 218.73 139.94 221.16 139.94 220.5 144.12 218.07"/><polygon class="cls-36" points="139.94 220.5 139.94 221.16 114.73 206.61 114.74 205.95 139.94 220.5"/><polygon class="cls-15" points="144.12 218.07 139.94 220.5 114.74 205.95 118.92 203.52 144.12 218.07"/></g><g class="cls-16"><polygon class="cls-36" points="149.4 221.11 149.4 221.78 145.22 224.21 145.22 223.54 149.4 221.11"/><polygon class="cls-36" points="145.22 223.54 145.22 224.21 141.09 221.82 141.09 221.16 145.22 223.54"/><polygon class="cls-15" points="149.4 221.11 145.22 223.54 141.09 221.16 145.27 218.73 149.4 221.11"/></g><g class="cls-16"><polygon class="cls-36" points="154.67 224.16 154.67 224.82 150.49 227.25 150.49 226.59 154.67 224.16"/><polygon class="cls-36" points="150.49 226.59 150.49 227.25 146.37 224.87 146.37 224.21 150.49 226.59"/><polygon class="cls-15" points="154.67 224.16 150.49 226.59 146.37 224.21 150.55 221.78 154.67 224.16"/></g><g class="cls-16"><polygon class="cls-36" points="165.22 230.25 165.22 230.91 161.03 233.34 161.03 232.68 165.22 230.25"/><polygon class="cls-36" points="161.03 232.68 161.03 233.34 151.64 227.91 151.64 227.25 161.03 232.68"/><polygon class="cls-15" points="165.22 230.25 161.03 232.68 151.64 227.25 155.82 224.82 165.22 230.25"/></g><polygon class="cls-20" points="135.12 173.04 183.2 200.8 183.2 166.18 183.19 166.18 135.12 138.43 135.12 173.04"/><polygon class="cls-35" points="179.96 169.48 162.78 159.55 162.78 183.68 179.96 193.6 179.96 169.48"/><polygon class="cls-15" points="139.9 147.76 159.16 158.88 159.16 157.47 139.9 146.34 139.9 147.76"/><polygon class="cls-15" points="139.9 151.03 159.16 162.15 159.16 160.73 139.9 149.61 139.9 151.03"/><polygon class="cls-15" points="139.9 154.3 159.16 165.42 159.16 164 139.9 152.88 139.9 154.3"/><polygon class="cls-15" points="139.9 157.56 159.16 168.69 159.16 167.27 139.9 156.15 139.9 157.56"/><polygon class="cls-15" points="139.9 160.83 159.16 171.95 159.16 170.54 139.9 159.42 139.9 160.83"/><polygon class="cls-15" points="139.9 164.1 159.16 175.22 159.16 173.8 139.9 162.68 139.9 164.1"/><polygon class="cls-15" points="139.9 170.64 153.31 178.38 153.31 176.96 139.9 169.22 139.9 170.64"/><polygon class="cls-15" points="139.9 167.37 159.16 178.49 159.16 177.07 139.9 165.95 139.9 167.37"/><polygon class="cls-31" points="169.92 165.85 164.85 173.07 175 178.93 169.92 165.85"/><polygon class="cls-27" points="173.99 170.31 168.91 177.54 179.06 183.4 173.99 170.31"/><path class="cls-24" d="M178,185.13c0,2.53-1.78,3.55-4,2.29a8.77,8.77,0,0,1-4-6.86c0-2.53,1.77-3.55,4-2.29A8.79,8.79,0,0,1,178,185.13Z"/><polygon class="cls-40" points="355.29 89.28 360.49 95.24 363.04 90.8 355.29 89.28"/><polygon class="cls-27" points="355.29 89.28 356.72 90.92 357.42 89.7 355.29 89.28"/><path class="cls-27" d="M363,90.8a1.29,1.29,0,0,0-1.29.13,4,4,0,0,0-1.81,3.14,1.28,1.28,0,0,0,.53,1.16l37.94,22a1.27,1.27,0,0,1-.53-1.17,4,4,0,0,1,1.81-3.13,1.26,1.26,0,0,1,1.29-.13Z"/><path class="cls-26" d="M399.69,113c1-.58,1.82-.12,1.82,1a4,4,0,0,1-1.81,3.13c-1,.58-1.82.11-1.82-1A4,4,0,0,1,399.69,113Z"/><polygon class="cls-40" points="373.37 92.4 378.56 98.35 381.12 93.92 373.37 92.4"/><polygon class="cls-24" points="373.37 92.4 374.8 94.03 375.5 92.81 373.37 92.4"/><path class="cls-24" d="M381.12,93.92a1.26,1.26,0,0,0-1.29.12A4,4,0,0,0,378,97.18a1.25,1.25,0,0,0,.53,1.16L403,112.59a1.26,1.26,0,0,1-.53-1.17,4,4,0,0,1,1.81-3.13,1.29,1.29,0,0,1,1.29-.13Z"/><path class="cls-22" d="M404.31,108.29c1-.58,1.82-.12,1.82,1a4,4,0,0,1-1.81,3.13c-1,.58-1.82.11-1.82-1A4,4,0,0,1,404.31,108.29Z"/><path class="cls-26" d="M349.11,100.74a.67.67,0,0,1-.38-.54l0,4.75a.65.65,0,0,0,.39.54l5.34,3.09,0-4.76Z"/><polygon class="cls-41" points="361.58 99.68 361.57 104.44 354.44 108.58 354.46 103.82 361.58 99.68"/><path class="cls-27" d="M361.58,99.68l-7.12,4.14-5.35-3.08a.57.57,0,0,1,0-1.07l5.3-3.08a2.05,2.05,0,0,1,1.84,0Z"/><polygon class="cls-38" points="365.31 101.83 365.3 106.59 358.17 110.73 358.19 105.97 365.31 101.83"/><polygon class="cls-42" points="358.19 105.97 358.17 110.73 354.44 108.58 354.46 103.82 358.19 105.97"/><polygon class="cls-40" points="365.31 101.83 358.19 105.97 354.46 103.82 361.58 99.68 365.31 101.83"/><path class="cls-22" d="M370.66,106l-5.29,3.08a2,2,0,0,1-1.84,0L358.18,106v4.76l5.35,3.09a2,2,0,0,0,1.83,0l5.3-3.08a.66.66,0,0,0,.38-.53v-4.75A.63.63,0,0,1,370.66,106Z"/><path class="cls-24" d="M370.65,104.92c.51.29.52.77,0,1.06l-5.29,3.08a2,2,0,0,1-1.84,0L358.18,106l7.13-4.14Z"/><path class="cls-40" d="M299,60.38l-76.08,43.93c-1.76,1-1.54,2.79.5,4l44.06,25.44a7.62,7.62,0,0,0,6.86.28l76.08-43.92c1.76-1,1.54-2.79-.49-4L305.83,60.67A7.64,7.64,0,0,0,299,60.38Z"/><polygon class="cls-43" points="305.64 74.6 310.64 71.72 339.76 88.53 334.77 91.42 305.64 74.6"/><polygon class="cls-43" points="294.94 80.78 299.94 77.9 329.06 94.71 324.07 97.6 294.94 80.78"/><polygon class="cls-43" points="284.24 86.96 289.24 84.08 318.36 100.89 313.37 103.78 284.24 86.96"/><polygon class="cls-43" points="273.54 93.14 278.53 90.25 307.66 107.07 302.66 109.95 273.54 93.14"/><polygon class="cls-43" points="262.84 99.32 267.83 96.43 296.96 113.25 291.96 116.13 262.84 99.32"/><polygon class="cls-44" points="305.64 74.6 310.64 71.72 317.92 75.92 312.92 78.8 305.64 74.6"/><polygon class="cls-31" points="294.94 80.78 299.94 77.9 316.91 87.7 311.92 90.58 294.94 80.78"/><polygon class="cls-27" points="284.24 86.96 289.24 84.08 301.62 91.23 296.63 94.11 284.24 86.96"/><polygon class="cls-15" points="273.54 93.14 278.53 90.25 299.55 102.39 294.55 105.27 273.54 93.14"/><polygon class="cls-24" points="262.84 99.32 267.83 96.43 292.6 110.73 287.61 113.62 262.84 99.32"/><polygon class="cls-43" points="285.01 117.72 268.83 127.06 270.93 128.28 287.12 118.93 285.01 117.72"/><polygon class="cls-43" points="280.16 114.91 263.97 124.26 266.07 125.47 282.26 116.13 280.16 114.91"/><polygon class="cls-43" points="275.31 112.11 259.12 121.46 261.22 122.67 277.41 113.32 275.31 112.11"/><polygon class="cls-43" points="270.45 109.31 254.26 118.65 256.37 119.87 272.56 110.52 270.45 109.31"/><polygon class="cls-43" points="265.6 106.5 249.41 115.85 251.51 117.07 267.7 107.72 265.6 106.5"/><polygon class="cls-43" points="260.75 103.7 244.56 113.05 246.66 114.26 262.85 104.92 260.75 103.7"/><polygon class="cls-43" points="251.04 98.1 239.76 104.61 241.87 105.82 253.14 99.31 251.04 98.1"/><polygon class="cls-43" points="255.89 100.9 239.7 110.25 241.81 111.46 257.99 102.11 255.89 100.9"/><polygon class="cls-43" points="305.55 68.78 257.74 96.38 259.85 97.59 307.65 69.99 305.55 68.78"/><polygon class="cls-31" points="303.15 128.43 337.19 108.77 356.57 119.95 322.52 139.61 303.15 128.43"/><polygon class="cls-28" points="322.52 139.61 326.29 122.13 356.57 119.95 322.52 139.61"/><polygon class="cls-29" points="337.19 108.77 333.34 126.2 303.15 128.43 337.19 108.77"/><polygon class="cls-40" points="491.4 154.41 550.22 188.36 475.96 231.24 417.14 197.28 491.4 154.41"/><path class="cls-24" d="M475.48,197.55l-8.12-12.93a29.8,29.8,0,0,0-8.76,3.19Z"/><path class="cls-26" d="M475.48,197.55l16.88-9.74c-6.71-3.88-16.56-4.93-25-3.19Z"/><path class="cls-24" d="M458.6,207.3l16.88-9.75L451.8,195.8C450.86,200,453.38,204.28,458.6,207.3Z"/><path class="cls-27" d="M483.6,210.48a29.51,29.51,0,0,0,8.76-3.18c9.26-5.35,9.26-14.15,0-19.49l-16.88,9.74Z"/><path class="cls-31" d="M483.6,210.48l-8.12-12.93L458.6,207.3C465.31,211.18,475.16,212.23,483.6,210.48Z"/><path class="cls-42" d="M523.44,196.1a.69.69,0,0,1-.34-.09l-44.27-25.56a.67.67,0,0,1,.67-1.17l44.28,25.56a.67.67,0,0,1,.24.92A.66.66,0,0,1,523.44,196.1Z"/><path class="cls-42" d="M528.64,193.09a.62.62,0,0,1-.34-.09L484,167.44a.66.66,0,0,1-.24-.91.68.68,0,0,1,.92-.25L529,191.84a.67.67,0,0,1-.34,1.25Z"/><path class="cls-42" d="M533.84,190.09a.72.72,0,0,1-.34-.09l-44.27-25.56a.67.67,0,0,1,.68-1.16l44.27,25.56a.67.67,0,0,1-.34,1.25Z"/><g class="cls-16"><path class="cls-28" d="M538.32,234l0,8.24a3.72,3.72,0,0,1-2.17,3l0-8.24A3.7,3.7,0,0,0,538.32,234Z"/><path class="cls-29" d="M455.24,242.24l0-8.24a3.73,3.73,0,0,0,2.2,3.07l0,8.24A3.71,3.71,0,0,1,455.24,242.24Z"/><polygon class="cls-28" points="536.15 237.07 536.13 245.31 502.15 265.06 502.17 256.82 536.15 237.07"/><polygon class="cls-29" points="491.68 256.82 491.65 265.06 457.44 245.31 457.46 237.07 491.68 256.82"/><path class="cls-29" d="M502.18,256.82l0,8.24a11.63,11.63,0,0,1-10.49,0v-8.24a11.61,11.61,0,0,0,10.52,0Z"/><path class="cls-31" d="M536.13,231c2.91,1.68,2.92,4.39,0,6.08l-34,19.75a11.6,11.6,0,0,1-10.5,0l-34.21-19.76c-2.92-1.68-2.94-4.4,0-6.09l34-19.75a11.61,11.61,0,0,1,10.52,0Z"/></g><g class="cls-16"><path class="cls-21" d="M606.76,210.62l0,8.24a3.74,3.74,0,0,1-2.17,3l0-8.24A3.69,3.69,0,0,0,606.76,210.62Z"/><path class="cls-23" d="M523.68,218.82l0-8.24a3.73,3.73,0,0,0,2.2,3.07l0,8.24A3.71,3.71,0,0,1,523.68,218.82Z"/><polygon class="cls-21" points="604.59 213.65 604.57 221.89 570.59 241.63 570.62 233.39 604.59 213.65"/><polygon class="cls-23" points="560.12 233.4 560.09 241.64 525.88 221.89 525.9 213.65 560.12 233.4"/><path class="cls-21" d="M570.6,233.4v8.23a11.59,11.59,0,0,1-10.51,0l0-8.23a10.94,10.94,0,0,0,5.24,1.25A10.77,10.77,0,0,0,570.6,233.4Z"/><path class="cls-24" d="M604.57,207.57c2.91,1.67,2.92,4.39,0,6.08l-34,19.74a11.54,11.54,0,0,1-10.5,0L525.9,213.65c-2.92-1.69-2.93-4.41,0-6.09l34-19.75a11.61,11.61,0,0,1,10.52,0Z"/></g><text class="cls-45" transform="matrix(-0.87, -0.5, 0.87, -0.5, 519.58, 239.95)"><tspan class="cls-46">D</tspan><tspan class="cls-47" x="9.49" y="0">A</tspan><tspan class="cls-48" x="17.28" y="0">T</tspan><tspan x="23.43" y="0">A</tspan></text><text class="cls-49" transform="matrix(-0.87, -0.5, 0.87, -0.5, 591.41, 218.83)"><tspan class="cls-50">D</tspan><tspan class="cls-51" x="11.29" y="0">A</tspan><tspan class="cls-52" x="20.55" y="0">T</tspan><tspan x="27.86" y="0">A</tspan></text><path class="cls-23" d="M565.36,234.65v8.24a10.54,10.54,0,0,1-5.27-1.26l0-8.23A10.94,10.94,0,0,0,565.36,234.65Z"/><path class="cls-28" d="M502.18,256.82l0,8.24a10.62,10.62,0,0,1-5.25,1.25v-8.23A10.93,10.93,0,0,0,502.18,256.82Z"/><path class="cls-8" d="M577.26,196.82c-6.56,2.92-12.61,24.83-9,32.54s9.32,8.31,16.54,6.38,15.38-11.38,18-20.16C606.45,203.62,596,188.5,577.26,196.82Z"/><path class="cls-2" d="M569.56,461.1v1.72c-3.45,2-11.19,1-13.22,0-1.33-2-4.94-1.48-7-.68-7.74.68-10.57-.46-13.16-2.35-1.31-1-3.66-3.46-3.38-6.11C542.05,455.8,569.56,461.1,569.56,461.1Z"/><path class="cls-2" d="M556.34,447.7a137.94,137.94,0,0,1-13.46,3.09c-5,.72-8.57-.11-9.76,1.67s1.42,6.43,5.83,8,13.46-.24,16.8.48,11.79,2.26,13.81.18,0-12.21,0-12.21Z"/><path class="cls-2" d="M603.22,436.55l-15.13-16.94c-6-1.72-12.38-2.08-11.57,3.49.71,4.94,8.58,7.1,14,11.91l5,4.42c3.59,3.19,8.17.4,7.72-2.88"/><path class="cls-8" d="M588.9,224.33A15,15,0,0,1,587,226a34.19,34.19,0,0,1-12.49,6.11c-.76.2-1.6.38-2.45.53l.39,4.38c5.1,1.4,10.07-.76,13.59-1.74,2.63-.73,6.71-1.4,6.71-4.16l-3.86-6.83Z"/><path class="cls-2" d="M595.5,439.43l-5-4.42c-5.41-4.81-13.28-7-14-11.91h0v0h0a5.51,5.51,0,0,0,0,1.67c.71,4.94,8.58,7.1,14,11.91l5,4.43c4.23,3.75,8.69,1.07,7.72-4.49.45,3.28-4.13,6.07-7.72,2.88"/><path class="cls-53" d="M603.13,318.82c5.22,7.4-7.84,27.87-4.27,53.36,2.43,17.29,7.15,46.31,6,62.68-.2,3-11.87,5.12-15-9.32-5.38-24.55-12.11-39.87-14.48-58.92l1.26-55.25Z"/><path class="cls-54" d="M586.42,316.13c1.45,23-15,51.05-13.92,69.58,1.13,19.12-1,42.36-1,63,0,0-16.89,8-17.65-4.36-2.48-40.52-10.24-53.15.23-127.3Z"/><path class="cls-14" d="M555.81,293.91A235.67,235.67,0,0,1,559.35,250a30,30,0,0,1,7.21-7.36L572,236.1q5.76-1.42,11.38-3.16a31.75,31.75,0,0,1,18.64,0h0c8,3.37,9.5,8.75,6,19.05.09.46-7,28.78-7.93,37.44-.08.85,6,23.79,7.39,33.15,0,0-5.83,5.33-7.44,6.67-11.85,14.71-50.6-3.13-52.06-11C547.36,315.35,552.12,306.24,555.81,293.91Z"/><path class="cls-2" d="M574.83,198.19a13.45,13.45,0,0,0-3.14,5.6c-1.2,3.83-.88,6.4-1,8.37s-.91,3.06-.51,4,2.81-4.37,5.1-4.92,2,6.36-3.06,8.31c-2.15,3.28-.43,11.33.77,13.09s8.64,4,14.92,1.79,10.43-8.54,15.62-16.85,0-14.31,0-14.31c2.57-5.68-16.88-13-25-13.22C573.55,190.2,574.83,198.19,574.83,198.19Z"/><path class="cls-15" d="M584,255.53c2.53-8.7-7.13-19.39-15.73-16.55-3,1-5.65,2-7.26,4.73-4,6.68-4.65,29.52-7.92,43.33-.49.12-1,.2-1.53.29,5.27,7.1,7.76,10.69,12.41,17.18a7.82,7.82,0,0,0,1-.38C566.33,303.39,584,255.62,584,255.53Z"/><path class="cls-2" d="M180.34,520.83l14.21-1.28s9.09,2.56,14.46,3.33,9.22-.13,10.5,1.79a2.2,2.2,0,0,1,.3,1.31h0v0c.26,2.83-2.23,5.48-3.63,6.5-2.78,2-5.82,3.27-14.14,2.53-2.18-.86-6.06-1.43-7.49.74-2.18,1-10.49,2.17-14.21,0V534C178.17,531.71,180.34,520.83,180.34,520.83Z"/><path class="cls-6" d="M174.11,390c-4.69,24.2,12.08,50.65,10.72,70.18-1.86,26.77-2.89,38.46-5.66,60.26,0,0,10.88,6.45,18.89-.93,8.19-42.7,11.81-50.36,10.68-128.49Z"/><path class="cls-30" d="M240.23,278.79c4.81,5.6.77,28.62-6,34.2s-12.32,3.6-18.17-1.38-9.26-17.34-7.86-26.67C210.13,272.24,226.53,262.83,240.23,278.79Z"/><path class="cls-14" d="M241.9,281.13a13.91,13.91,0,0,1,.44,6.59c-.57,4.08-2,6.33-2.78,8.21s-.5,3.24-1.3,4-.68-5.3-2.57-6.82-4.63,5-.82,9.06c.55,4-4.59,10.71-6.48,11.82s-9.79-.09-14.64-4.91-5.93-12.53-7.09-22.53,6.31-13.3,6.31-13.3c.12-6.41,21.41-4.63,29-1.27C246.61,274.28,241.9,281.13,241.9,281.13Z"/><path class="cls-2" d="M207.54,533.71l14.2-1.28s9.09,2.56,14.47,3.33,9.21-.13,10.49,1.79a2.13,2.13,0,0,1,.3,1.31h0v0c.26,2.83-2.23,5.48-3.63,6.5-2.78,2-5.82,3.27-14.14,2.54-2.17-.86-6.06-1.44-7.49.73-2.17,1-10.49,2.17-14.2,0v-1.86C205.36,544.59,207.54,533.71,207.54,533.71Z"/><path class="cls-6" d="M184.88,396.15c-1.55,24.67,18.64,51.64,19.81,71.56,1.6,27.29,1.65,46.59,1.71,68.82,0,0,18.16,8.59,19-4.69,2.67-43.55,5.52-55-5.73-134.66Z"/><path class="cls-11" d="M232.41,317.05c-10.14-5.06-26.57-18.91-40-.8-12.58,17-17.76,68-19.2,78.2-1.94,13.77,36.43,21.15,45,20.77a3.58,3.58,0,0,0,3.66-2.88c.72-2.51-1.33-4.31-.77-6.63a9.54,9.54,0,0,1,2-3.5,8.06,8.06,0,0,0,1.85-3.57c.33-2.2-1-4.25-1.29-6.45a12.89,12.89,0,0,1,.66-4.75c3.47-13,9.52-25,12.89-38,2.28-8.82,5.54-22.86-1.73-30.16A8.13,8.13,0,0,0,232.41,317.05Z"/><path class="cls-11" d="M238.62,323.88c8.13,25.74,8.88,38.5,16.83,48.67.59.76,22.54,24.28,22.54,24.28s-3,5.32-10.62,6.71c-12.26-5.24-26.13-24.52-29.85-28.67-2.15-2.38-14.26-24.58-16.08-35.86S235.23,313.71,238.62,323.88Z"/><path class="cls-53" d="M551.55,306A75.73,75.73,0,0,0,565,304.13s10.7-22.94,13.61-34.05c0,0-3.86,23.61-6.48,31.28s-6.25,10.67-11.88,10a78.46,78.46,0,0,1-9.92-1.8Z"/></g></g></g></svg>