<svg xmlns="http://www.w3.org/2000/svg" xmlns:xlink="http://www.w3.org/1999/xlink" viewBox="0 0 413.78 321.2"><defs><style>.cls-1{fill:none;}.cls-2{isolation:isolate;}.cls-3{fill:url(#Безымянный_градиент_8);}.cls-4{fill:url(#Безымянный_градиент_18);}.cls-5{fill:#24126a;}.cls-6{opacity:0.51;}.cls-7{fill:#453c9e;}.cls-8{fill:url(#Безымянный_градиент_18-2);}.cls-9{fill:url(#Безымянный_градиент_8-2);}.cls-10{fill:#fff;}.cls-11{opacity:0.15;}.cls-12{clip-path:url(#clip-path);}.cls-13{fill:url(#Безымянный_градиент_18-3);}.cls-14{fill:url(#Безымянный_градиент_8-3);}.cls-15,.cls-18{opacity:0.5;}.cls-16{opacity:0.8;}.cls-17{fill:#42e8e0;}.cls-18{mix-blend-mode:lighten;fill:url(#Безымянный_градиент_6);}</style><linearGradient id="Безымянный_градиент_8" x1="-649.77" y1="125.36" x2="-438.25" y2="125.36" gradientTransform="matrix(-1, 0, 0, 1, -322.59, 0)" gradientUnits="userSpaceOnUse"><stop offset="0" stop-color="#c0bff6"/><stop offset="0.29" stop-color="#c5c4f7"/><stop offset="0.64" stop-color="#d3d2f9"/><stop offset="1" stop-color="#e9e9fd"/></linearGradient><linearGradient id="Безымянный_градиент_18" x1="-649.77" y1="179.61" x2="-613.45" y2="179.61" gradientTransform="matrix(-1, 0, 0, 1, -322.59, 0)" gradientUnits="userSpaceOnUse"><stop offset="0" stop-color="#5761d7"/><stop offset="0.18" stop-color="#5c66d9"/><stop offset="0.39" stop-color="#6a73df"/><stop offset="0.61" stop-color="#8289e8"/><stop offset="0.85" stop-color="#a3a7f5"/><stop offset="1" stop-color="#bcbeff"/></linearGradient><linearGradient id="Безымянный_градиент_18-2" x1="-621.44" y1="238.8" x2="-322.69" y2="238.8" xlink:href="#Безымянный_градиент_18"/><linearGradient id="Безымянный_градиент_8-2" x1="-521.06" y1="230.63" x2="-222.15" y2="230.63" xlink:href="#Безымянный_градиент_8"/><clipPath id="clip-path"><polygon class="cls-1" points="322.14 110.75 138.17 4.59 115.06 142.01 298.9 248.11 322.14 110.75"/></clipPath><linearGradient id="Безымянный_градиент_18-3" x1="-736.31" y1="173.05" x2="-437.57" y2="173.05" xlink:href="#Безымянный_градиент_18"/><linearGradient id="Безымянный_градиент_8-3" x1="-635.93" y1="164.88" x2="-337.03" y2="164.88" xlink:href="#Безымянный_градиент_8"/><linearGradient id="Безымянный_градиент_6" x1="250.65" y1="136.33" x2="312.32" y2="162.71" gradientUnits="userSpaceOnUse"><stop offset="0" stop-color="#42e8e0"/><stop offset="0.11" stop-color="#37b6bf"/><stop offset="0.22" stop-color="#2c87a1"/><stop offset="0.34" stop-color="#235f87"/><stop offset="0.46" stop-color="#1c3f72"/><stop offset="0.58" stop-color="#162561"/><stop offset="0.71" stop-color="#121355"/><stop offset="0.85" stop-color="#10084e"/><stop offset="1" stop-color="#0f054c"/></linearGradient></defs><g class="cls-2"><g id="Слой_2" data-name="Слой 2"><g id="Портфолио"><g id="десктоп"><path class="cls-3" d="M115.69,138.52,138.6,2.59l-1.84-.77L139.53.23h0a2,2,0,0,1,2.13.15L324.77,106.11a5.15,5.15,0,0,1,2.37,4.65l-23.09,137a1.69,1.69,0,0,1-1,1.39h0l-2.71,1.57-.47-2.53.16.05-182-105.08A5.18,5.18,0,0,1,115.69,138.52Z"/><path class="cls-4" d="M323.74,109.83l3-1.34a4.19,4.19,0,0,1,.38,2.27l-23.09,137a1.69,1.69,0,0,1-1,1.39h0l-2.71,1.57-.47-2.53.16.05-9.21-5.32Z"/><path class="cls-5" d="M115.2,144.82,298.3,250.54c1.42.81,2.63.34,2.88-1.12l23.09-137a5.15,5.15,0,0,0-2.38-4.65L138.79,2c-1.42-.82-2.63-.34-2.88,1.12l-23.09,137A5.17,5.17,0,0,0,115.2,144.82Z"/><g class="cls-6"><polygon class="cls-7" points="138.17 4.59 322.14 110.75 298.9 248.11 115.06 142.01 138.17 4.59"/></g><path class="cls-8" d="M.1,209.68l10,5.22,100.2-57.85a7.29,7.29,0,0,1,6.54.27L289.65,257.1c1.65-.92,9.19-4.55,9.19-4.55l-3.66,5.94h0a2.2,2.2,0,0,1-1,1.14L188.61,320.55a7.29,7.29,0,0,1-6.54-.28L5.23,218.17a3.17,3.17,0,0,1-1.49-1.58h0Z"/><path class="cls-9" d="M1.64,211.33,182.89,316a7.47,7.47,0,0,0,6.7.28L297.74,253.8c1.72-1,1.51-2.72-.48-3.87L116,145.29a7.47,7.47,0,0,0-6.7-.28L1.16,207.46C-.56,208.45-.34,210.18,1.64,211.33Z"/><path class="cls-10" d="M1.64,210.52,182.89,315.16a7.47,7.47,0,0,0,6.7.28L297.74,253a2.15,2.15,0,0,0,1.09-1.27,1.83,1.83,0,0,1-1.09,2.08L189.59,316.25a7.47,7.47,0,0,1-6.7-.28L1.64,211.33c-1.28-.74-1.81-1.73-1.57-2.61A3.06,3.06,0,0,0,1.64,210.52Z"/><g class="cls-11"><g class="cls-12"><path class="cls-13" d="M115,143.94l10,5.22,100.2-57.85a7.25,7.25,0,0,1,6.54.27l172.81,99.77c1.66-.92,9.2-4.55,9.2-4.55l-3.66,5.95v0a2.22,2.22,0,0,1-1,1.14L303.49,254.8a7.29,7.29,0,0,1-6.54-.27L120.1,152.42a3.13,3.13,0,0,1-1.48-1.57h0Z"/><path class="cls-14" d="M116.52,145.58,297.76,250.22a7.46,7.46,0,0,0,6.71.28l108.15-62.44c1.72-1,1.5-2.73-.48-3.87L230.9,79.54a7.45,7.45,0,0,0-6.71-.27L116,141.71C114.32,142.7,114.53,144.43,116.52,145.58Z"/><path class="cls-10" d="M412.14,184.19,230.9,79.54a8,8,0,0,0-4.48-.91,7.69,7.69,0,0,1,3.14.91L410.8,184.19c2,1.14,2.2,2.87.49,3.87L303.13,250.5a5.44,5.44,0,0,1-2.22.63,6.28,6.28,0,0,0,3.56-.63l108.15-62.44C414.34,187.06,414.12,185.33,412.14,184.19Z"/><g class="cls-15"><path class="cls-5" d="M211.45,127.57l-5.81-3.36a1.92,1.92,0,0,0-1.76.05L197.42,128c-.5.3-.54.76-.07,1l5.81,3.35a1.92,1.92,0,0,0,1.76,0l6.46-3.77C211.89,128.29,211.92,127.84,211.45,127.57Z"/><path class="cls-5" d="M220.43,132.75l-5.81-3.36a1.94,1.94,0,0,0-1.77.05l-6.45,3.77c-.51.3-.54.76-.08,1l5.81,3.35a1.94,1.94,0,0,0,1.77-.05l6.45-3.77C220.86,133.47,220.89,133,220.43,132.75Z"/><path class="cls-5" d="M229.4,137.93l-5.81-3.36a1.92,1.92,0,0,0-1.76.05l-6.46,3.77c-.51.3-.54.76-.08,1l5.81,3.35a1.94,1.94,0,0,0,1.77-.05l6.45-3.77C229.83,138.65,229.86,138.2,229.4,137.93Z"/><path class="cls-5" d="M222.57,144.82l-5.81-3.35a2,2,0,0,0-1.77,0l-5.42,3.17c-.5.3-.54.76-.07,1l5.81,3.35a1.92,1.92,0,0,0,1.76-.05l5.42-3.17C223,145.55,223,145.09,222.57,144.82Z"/><path class="cls-5" d="M231.54,150l-5.81-3.35a2,2,0,0,0-1.76,0l-5.42,3.17c-.51.3-.54.76-.08,1l5.81,3.35a1.94,1.94,0,0,0,1.77-.05l5.42-3.17C232,150.73,232,150.27,231.54,150Z"/><path class="cls-5" d="M240.51,155.18l-5.81-3.35a2,2,0,0,0-1.76,0L227.52,155c-.51.3-.54.76-.08,1l5.81,3.35a1.94,1.94,0,0,0,1.77,0l5.42-3.17C240.94,155.91,241,155.45,240.51,155.18Z"/><path class="cls-5" d="M249.48,160.36,243.67,157a2,2,0,0,0-1.76,0l-5.42,3.17c-.51.3-.54.76-.07,1l5.81,3.35a1.92,1.92,0,0,0,1.76,0l5.42-3.17C249.92,161.09,250,160.63,249.48,160.36Z"/><path class="cls-5" d="M258.46,165.54l-5.81-3.35a2,2,0,0,0-1.77,0l-5.42,3.17c-.5.3-.54.76-.07,1l5.81,3.35a1.92,1.92,0,0,0,1.76-.05l5.42-3.17C258.89,166.27,258.92,165.81,258.46,165.54Z"/><path class="cls-5" d="M267.43,170.72l-5.81-3.35a2,2,0,0,0-1.77,0l-5.42,3.17c-.5.3-.54.76-.07,1l5.81,3.35a1.92,1.92,0,0,0,1.76-.05l5.42-3.17C267.86,171.45,267.89,171,267.43,170.72Z"/><path class="cls-5" d="M276.4,175.9l-5.81-3.35a2,2,0,0,0-1.76,0l-5.42,3.17c-.51.3-.54.76-.08,1l5.81,3.35a1.94,1.94,0,0,0,1.77,0l5.42-3.17C276.83,176.63,276.87,176.17,276.4,175.9Z"/><path class="cls-5" d="M285.37,181.08l-5.81-3.35a2,2,0,0,0-1.76,0l-5.42,3.17c-.51.3-.54.76-.08,1l5.81,3.35a1.94,1.94,0,0,0,1.77,0l5.42-3.17C285.8,181.81,285.84,181.35,285.37,181.08Z"/><path class="cls-5" d="M294.34,186.26l-5.81-3.35a2,2,0,0,0-1.76,0l-5.42,3.17c-.51.3-.54.76-.07,1l5.81,3.35a1.92,1.92,0,0,0,1.76-.05l5.42-3.17C294.78,187,294.81,186.53,294.34,186.26Z"/><path class="cls-5" d="M303.32,191.44l-5.81-3.35a2,2,0,0,0-1.77,0l-5.42,3.17c-.51.3-.54.76-.07,1l5.81,3.35a1.92,1.92,0,0,0,1.76-.05l5.42-3.17C303.75,192.17,303.78,191.71,303.32,191.44Z"/><path class="cls-5" d="M218.83,152.21,213,148.86a1.92,1.92,0,0,0-1.76,0l-5.42,3.17c-.51.29-.54.75-.08,1l5.81,3.35a2,2,0,0,0,1.77,0l5.42-3.17C219.26,152.94,219.3,152.48,218.83,152.21Z"/><path class="cls-5" d="M209.72,147l-5.81-3.36a2,2,0,0,0-1.76.05l-5.42,3.17c-.51.29-.54.75-.07,1l5.81,3.36a2,2,0,0,0,1.76,0l5.42-3.17C210.16,147.68,210.19,147.23,209.72,147Z"/><path class="cls-5" d="M200.6,141.69l-12.51-7.22a1.92,1.92,0,0,0-1.76.05l-5.42,3.16c-.51.3-.54.76-.08,1l12.52,7.22a1.92,1.92,0,0,0,1.76-.05l5.42-3.16C201,142.42,201.07,142,200.6,141.69Z"/><path class="cls-5" d="M190,145.13l-10.15-5.86a1.94,1.94,0,0,0-1.77,0l-5.42,3.17c-.5.29-.54.75-.07,1l10.15,5.86a2,2,0,0,0,1.77,0l5.42-3.17C190.46,145.86,190.49,145.4,190,145.13Z"/><path class="cls-5" d="M227.8,157.39,222,154a1.92,1.92,0,0,0-1.76.05l-5.42,3.17c-.51.29-.54.75-.07,1l5.81,3.35a2,2,0,0,0,1.76,0l5.42-3.17C228.24,158.12,228.27,157.66,227.8,157.39Z"/><path class="cls-5" d="M236.77,162.57,231,159.22a1.92,1.92,0,0,0-1.76.05l-5.42,3.17c-.51.29-.54.75-.07,1l5.81,3.35a2,2,0,0,0,1.76,0l5.42-3.17C237.21,163.3,237.24,162.84,236.77,162.57Z"/><path class="cls-5" d="M245.75,167.75l-5.81-3.35a1.94,1.94,0,0,0-1.77,0l-5.42,3.17c-.5.29-.54.75-.07,1l5.81,3.35a2,2,0,0,0,1.76,0l5.42-3.17C246.18,168.48,246.21,168,245.75,167.75Z"/><path class="cls-5" d="M254.72,172.93l-5.81-3.35a1.92,1.92,0,0,0-1.76,0l-5.43,3.17c-.5.29-.54.75-.07,1l5.81,3.35a2,2,0,0,0,1.76,0l5.42-3.17C255.15,173.66,255.18,173.2,254.72,172.93Z"/><path class="cls-5" d="M263.69,178.11l-5.81-3.35a1.92,1.92,0,0,0-1.76.05L250.7,178c-.51.29-.54.75-.08,1l5.81,3.35a1.94,1.94,0,0,0,1.77,0l5.42-3.16C264.12,178.84,264.16,178.38,263.69,178.11Z"/><path class="cls-5" d="M272.66,183.29l-5.81-3.35a1.92,1.92,0,0,0-1.76.05l-5.42,3.17c-.51.29-.54.75-.07,1l5.8,3.35a1.94,1.94,0,0,0,1.77-.05l5.42-3.16C273.1,184,273.13,183.56,272.66,183.29Z"/><path class="cls-5" d="M281.63,188.47l-5.81-3.35a1.92,1.92,0,0,0-1.76,0l-5.42,3.17c-.51.29-.54.75-.07,1l5.81,3.35a1.92,1.92,0,0,0,1.76-.05l5.42-3.16C282.07,189.2,282.1,188.74,281.63,188.47Z"/><path class="cls-5" d="M290.61,193.65l-5.81-3.35a1.94,1.94,0,0,0-1.77,0l-5.42,3.17c-.5.29-.54.75-.07,1l5.81,3.35a1.92,1.92,0,0,0,1.76,0l5.42-3.16C291,194.38,291.07,193.92,290.61,193.65Z"/><path class="cls-5" d="M299.58,198.83l-5.81-3.35a1.94,1.94,0,0,0-1.77.05l-5.42,3.17c-.5.29-.54.75-.07,1l5.81,3.35a1.92,1.92,0,0,0,1.76,0l5.42-3.16C300,199.56,300,199.1,299.58,198.83Z"/><path class="cls-5" d="M315.53,208l-12.68-7.32a2,2,0,0,0-1.76.05l-5.42,3.17c-.51.3-.54.75-.08,1l12.68,7.32a1.92,1.92,0,0,0,1.76-.05l5.42-3.16C316,208.77,316,208.31,315.53,208Z"/><path class="cls-5" d="M299.08,217.65l-10.7-6.18a2,2,0,0,0-1.76.05l-5.42,3.17c-.51.3-.54.75-.08,1l10.7,6.18a1.94,1.94,0,0,0,1.77,0l5.42-3.16C299.51,218.38,299.55,217.92,299.08,217.65Z"/><path class="cls-5" d="M226.56,166.23l-5.81-3.36a2,2,0,0,0-1.77,0l-5.42,3.17c-.5.3-.54.75-.07,1l5.81,3.36a2,2,0,0,0,1.76-.05l5.42-3.17C227,167,227,166.5,226.56,166.23Z"/><path class="cls-5" d="M217.36,160.92l-5.81-3.36a2,2,0,0,0-1.76.05l-5.42,3.17c-.51.3-.54.76-.08,1l5.81,3.36a1.94,1.94,0,0,0,1.77,0l5.42-3.17C217.79,161.65,217.83,161.19,217.36,160.92Z"/><path class="cls-5" d="M208.17,155.61l-5.81-3.35a2,2,0,0,0-1.77,0l-5.42,3.17c-.5.3-.54.76-.07,1l5.81,3.35a1.92,1.92,0,0,0,1.76,0l5.42-3.17C208.6,156.34,208.63,155.88,208.17,155.61Z"/><path class="cls-5" d="M199,150.3,193.16,147a1.92,1.92,0,0,0-1.76.05L186,150.16c-.51.3-.54.76-.08,1l5.81,3.35a1.94,1.94,0,0,0,1.77,0l5.42-3.16C199.4,151,199.44,150.57,199,150.3Z"/><path class="cls-5" d="M235.53,171.41l-5.81-3.36a2,2,0,0,0-1.76,0l-5.42,3.17c-.51.3-.54.75-.08,1l5.81,3.36a2,2,0,0,0,1.76-.05l5.42-3.17C236,172.14,236,171.68,235.53,171.41Z"/><path class="cls-5" d="M244.5,176.59l-5.81-3.36a2,2,0,0,0-1.76.05l-5.42,3.17c-.51.3-.54.75-.08,1l5.81,3.36a2,2,0,0,0,1.77-.05l5.42-3.17C244.93,177.32,245,176.86,244.5,176.59Z"/><path class="cls-5" d="M253.47,181.77l-5.81-3.36a2,2,0,0,0-1.76.05l-5.42,3.17c-.51.3-.54.75-.07,1l5.81,3.36a2,2,0,0,0,1.76,0l5.42-3.17C253.91,182.5,253.94,182,253.47,181.77Z"/><path class="cls-5" d="M262.44,187l-5.81-3.36a2,2,0,0,0-1.76,0l-5.42,3.17c-.51.3-.54.75-.07,1l5.81,3.36a2,2,0,0,0,1.76-.05l5.42-3.17C262.88,187.68,262.91,187.22,262.44,187Z"/><path class="cls-5" d="M271.42,192.13l-5.81-3.36a2,2,0,0,0-1.77,0L258.42,192c-.5.3-.54.75-.07,1l5.81,3.36a2,2,0,0,0,1.76-.05l5.42-3.17C271.85,192.86,271.88,192.4,271.42,192.13Z"/><path class="cls-5" d="M280.39,197.31,274.58,194a2,2,0,0,0-1.76.05l-5.42,3.17c-.51.3-.54.75-.08,1l5.81,3.36a2,2,0,0,0,1.76-.05l5.42-3.17C280.82,198,280.85,197.58,280.39,197.31Z"/><path class="cls-5" d="M289.36,202.49l-5.81-3.36a2,2,0,0,0-1.76.05l-5.42,3.17c-.51.3-.54.75-.08,1l5.81,3.36a2,2,0,0,0,1.77,0l5.42-3.17C289.79,203.22,289.83,202.76,289.36,202.49Z"/><path class="cls-5" d="M298.33,207.67l-5.81-3.36a2,2,0,0,0-1.76.05l-5.42,3.17c-.51.3-.54.75-.07,1l5.81,3.36a2,2,0,0,0,1.76,0l5.42-3.17C298.77,208.4,298.8,207.94,298.33,207.67Z"/><path class="cls-5" d="M307.3,212.85l-5.81-3.36a2,2,0,0,0-1.76,0l-5.42,3.17c-.51.29-.54.75-.07,1l5.81,3.36a2,2,0,0,0,1.76-.05l5.42-3.17C307.74,213.58,307.77,213.12,307.3,212.85Z"/><path class="cls-5" d="M204.88,163.26l-5.81-3.35a1.94,1.94,0,0,0-1.77.05l-5.42,3.16c-.5.3-.54.76-.07,1l5.81,3.35a1.92,1.92,0,0,0,1.76-.05l5.42-3.16C205.31,164,205.34,163.53,204.88,163.26Z"/><path class="cls-5" d="M196,158.11l-5.81-3.36a2,2,0,0,0-1.76.05L183,158c-.5.3-.54.75-.07,1l5.81,3.36a1.92,1.92,0,0,0,1.76,0l5.42-3.17C196.38,158.84,196.41,158.38,196,158.11Z"/><path class="cls-5" d="M187,153l-5.81-3.35a1.92,1.92,0,0,0-1.76.05L174,152.82c-.51.29-.54.75-.08,1l5.81,3.35a1.94,1.94,0,0,0,1.77-.05L187,154C187.45,153.68,187.49,153.22,187,153Z"/><path class="cls-5" d="M178.09,147.8l-5.81-3.35a2,2,0,0,0-1.76,0l-5.42,3.17c-.51.3-.54.76-.07,1l5.81,3.35a1.92,1.92,0,0,0,1.76,0l5.42-3.17C178.53,148.53,178.56,148.07,178.09,147.8Z"/><path class="cls-5" d="M169.45,152.85l-5.81-3.35a2,2,0,0,0-1.76,0l-1.8,1.05c-.5.3-.54.76-.07,1l5.81,3.35a1.92,1.92,0,0,0,1.76-.05l1.8-1C169.88,153.58,169.92,153.12,169.45,152.85Z"/><path class="cls-5" d="M181.1,159.58l-5.81-3.36a1.92,1.92,0,0,0-1.76.05l-1.79,1c-.51.29-.55.75-.08,1l5.81,3.36a2,2,0,0,0,1.76,0l1.8-1.05C181.53,160.3,181.57,159.85,181.1,159.58Z"/><path class="cls-5" d="M190,164.71l-5.81-3.36a2,2,0,0,0-1.76.05l-1.79,1c-.51.3-.55.75-.08,1l5.81,3.36a1.92,1.92,0,0,0,1.76-.05l1.8-1.05C190.42,165.44,190.46,165,190,164.71Z"/><path class="cls-5" d="M198.88,169.84l-5.81-3.35a1.92,1.92,0,0,0-1.76,0l-1.79,1c-.51.3-.54.76-.08,1l5.81,3.35a1.92,1.92,0,0,0,1.76-.05l1.8-1C199.31,170.57,199.35,170.11,198.88,169.84Z"/><path class="cls-5" d="M207.77,175,202,171.62a1.92,1.92,0,0,0-1.76,0l-1.79,1.05c-.51.29-.54.75-.08,1l5.81,3.35a1.92,1.92,0,0,0,1.76-.05l1.8-1C208.2,175.7,208.24,175.24,207.77,175Z"/><path class="cls-5" d="M257.4,203.63l-5.81-3.36a2,2,0,0,0-1.76,0L248,201.37c-.51.3-.54.76-.08,1l5.81,3.36a1.94,1.94,0,0,0,1.77-.05l1.79-1C257.84,204.36,257.87,203.9,257.4,203.63Z"/><path class="cls-5" d="M266.29,208.76l-5.81-3.35a1.92,1.92,0,0,0-1.76.05l-1.79,1c-.51.3-.54.76-.08,1l5.81,3.35a1.94,1.94,0,0,0,1.77,0l1.79-1C266.73,209.49,266.76,209,266.29,208.76Z"/><path class="cls-5" d="M275.18,213.89l-5.81-3.35a1.92,1.92,0,0,0-1.76.05l-1.79,1c-.51.29-.54.75-.08,1l5.81,3.35a2,2,0,0,0,1.77,0l1.79-1.05C275.62,214.62,275.65,214.16,275.18,213.89Z"/><path class="cls-5" d="M284.07,219l-5.81-3.36a2,2,0,0,0-1.76.05l-1.79,1.05c-.51.29-.54.75-.08,1l5.81,3.36a2,2,0,0,0,1.77-.05l1.79-1C284.51,219.75,284.54,219.3,284.07,219Z"/><path class="cls-5" d="M213.85,168.44,208,165.09a1.94,1.94,0,0,0-1.77,0l-5.42,3.16c-.5.3-.54.76-.07,1l5.81,3.35a1.92,1.92,0,0,0,1.76-.05l5.42-3.16C214.28,169.17,214.31,168.71,213.85,168.44Z"/><path class="cls-5" d="M222.82,173.62,217,170.27a1.92,1.92,0,0,0-1.76,0l-5.42,3.16c-.51.3-.54.76-.08,1l5.81,3.35a1.94,1.94,0,0,0,1.77-.05l5.42-3.16C223.25,174.35,223.29,173.89,222.82,173.62Z"/><path class="cls-5" d="M231.79,178.8,226,175.45a1.92,1.92,0,0,0-1.76.05l-5.42,3.16c-.51.3-.54.76-.08,1l5.81,3.35a1.94,1.94,0,0,0,1.77,0l5.42-3.16C232.22,179.53,232.26,179.07,231.79,178.8Z"/><path class="cls-5" d="M240.76,184,235,180.63a1.92,1.92,0,0,0-1.76.05l-5.42,3.16c-.51.3-.54.76-.07,1l5.81,3.35a1.92,1.92,0,0,0,1.76-.05l5.42-3.16C241.2,184.71,241.23,184.25,240.76,184Z"/><path class="cls-5" d="M249.73,189.16l-5.8-3.35a1.94,1.94,0,0,0-1.77.05L236.74,189c-.51.3-.54.76-.07,1l5.81,3.35a1.92,1.92,0,0,0,1.76-.05l5.42-3.16C250.17,189.89,250.2,189.43,249.73,189.16Z"/><path class="cls-5" d="M258.71,194.34,252.9,191a1.94,1.94,0,0,0-1.77,0l-5.42,3.16c-.5.3-.54.76-.07,1l5.81,3.35a1.92,1.92,0,0,0,1.76-.05l5.42-3.16C259.14,195.07,259.17,194.61,258.71,194.34Z"/><path class="cls-5" d="M267.68,199.52l-5.81-3.35a1.92,1.92,0,0,0-1.76.05l-5.42,3.16c-.51.3-.54.76-.08,1l5.81,3.35a1.92,1.92,0,0,0,1.76,0l5.42-3.16C268.11,200.25,268.15,199.79,267.68,199.52Z"/><path class="cls-5" d="M276.65,204.7l-5.81-3.35a1.92,1.92,0,0,0-1.76.05l-5.42,3.16c-.51.3-.54.76-.08,1l5.81,3.35a1.94,1.94,0,0,0,1.77-.05l5.42-3.16C277.08,205.43,277.12,205,276.65,204.7Z"/><path class="cls-5" d="M285.62,209.88l-5.81-3.35a1.92,1.92,0,0,0-1.76.05l-5.42,3.16c-.51.3-.54.76-.07,1l5.81,3.35a1.92,1.92,0,0,0,1.76-.05l5.42-3.16C286.06,210.61,286.09,210.15,285.62,209.88Z"/><path class="cls-5" d="M213.42,139.54l-17.11-9.88a2,2,0,0,0-1.76.05l-5.42,3.17c-.51.29-.54.75-.07,1l17.11,9.88a1.92,1.92,0,0,0,1.76-.05l5.42-3.16C213.86,140.27,213.89,139.81,213.42,139.54Z"/><path class="cls-5" d="M323.65,203.18l-17.11-9.88a1.94,1.94,0,0,0-1.77,0l-5.42,3.17c-.5.29-.54.75-.07,1l17.11,9.88a1.92,1.92,0,0,0,1.76,0l5.42-3.17C324.08,203.91,324.11,203.45,323.65,203.18Z"/><path class="cls-5" d="M307,182.73l-5.81-3.35a1.94,1.94,0,0,0-1.77.05L293,183.2c-.51.3-.54.75-.08,1l5.81,3.36a1.94,1.94,0,0,0,1.77-.05l6.45-3.77C307.44,183.46,307.47,183,307,182.73Z"/><path class="cls-5" d="M241.85,145.12l-9.29-5.37a1.92,1.92,0,0,0-1.76.05l-6.46,3.77c-.51.3-.54.76-.07,1l9.29,5.36a1.92,1.92,0,0,0,1.76-.05l6.46-3.77C242.29,145.84,242.32,145.39,241.85,145.12Z"/><path class="cls-5" d="M298.36,177.74l-9.29-5.36a1.92,1.92,0,0,0-1.76.05l-6.46,3.77c-.51.3-.54.75-.07,1l9.29,5.37a2,2,0,0,0,1.76-.05l6.46-3.77C298.8,178.47,298.83,178,298.36,177.74Z"/><path class="cls-5" d="M254.8,152.59l-9.29-5.36a2,2,0,0,0-1.77,0l-6.45,3.78c-.51.29-.55.75-.08,1l9.29,5.36a2,2,0,0,0,1.77,0l6.45-3.78C255.23,153.32,255.26,152.86,254.8,152.59Z"/><path class="cls-5" d="M237.27,152.11l40.4,23.32a1.92,1.92,0,0,0,1.76,0l6.59-3.84c.47-.28.45-.74-.06-1l-40.39-23.32Z"/><path class="cls-5" d="M323.53,197.09l6.47,3.74a1.61,1.61,0,0,0,1.45,0l2.64-1.55c.41-.24.44-.62.06-.84l-6.47-3.73a1.58,1.58,0,0,0-1.45,0l-2.64,1.54C323.18,196.49,323.15,196.87,323.53,197.09Z"/><path class="cls-5" d="M314.48,191.87,321,195.6a1.56,1.56,0,0,0,1.44,0L325,194c.42-.24.44-.62.06-.84l-6.47-3.74a1.59,1.59,0,0,0-1.44,0L314.54,191C314.13,191.27,314.1,191.65,314.48,191.87Z"/><path class="cls-5" d="M305.51,186.69l6.47,3.73a1.58,1.58,0,0,0,1.45,0l2.64-1.54c.42-.24.44-.62.06-.84l-6.47-3.74a1.61,1.61,0,0,0-1.45,0l-2.64,1.55C305.16,186.09,305.13,186.47,305.51,186.69Z"/><path class="cls-5" d="M309.82,194.59l6.47,3.74a1.61,1.61,0,0,0,1.45,0l2.64-1.54c.41-.25.44-.62.06-.84L314,192.17a1.61,1.61,0,0,0-1.45,0l-2.64,1.54C309.46,194,309.44,194.37,309.82,194.59Z"/></g></g></g><g class="cls-16"><path class="cls-5" d="M85,199.74l-5.75-3.32c-.46-.27-.41-.74.13-1l6.79-3.92a2,2,0,0,1,1.8-.08l5.75,3.32c.47.27.41.74-.12,1l-6.8,3.92A2,2,0,0,1,85,199.74Z"/><path class="cls-5" d="M93.9,204.87l-5.76-3.32c-.46-.27-.4-.74.13-1l6.79-3.92a2,2,0,0,1,1.81-.08l5.75,3.32c.46.27.4.74-.13,1l-6.79,3.92A2,2,0,0,1,93.9,204.87Z"/><path class="cls-5" d="M102.78,210,97,206.68c-.46-.27-.41-.74.13-1l6.79-3.92a2,2,0,0,1,1.8-.08l5.76,3.32c.46.27.4.74-.13,1l-6.8,3.92A2,2,0,0,1,102.78,210Z"/><path class="cls-5" d="M115.07,205.76l-5.75-3.32c-.46-.27-.41-.73.13-1l5.7-3.29A2,2,0,0,1,117,198l5.75,3.33c.47.26.41.73-.13,1l-5.7,3.29A2,2,0,0,1,115.07,205.76Z"/><path class="cls-5" d="M124,210.89l-5.76-3.32c-.46-.27-.4-.73.13-1l5.7-3.29a2,2,0,0,1,1.81-.08l5.75,3.33c.46.26.4.73-.13,1l-5.7,3.29A2,2,0,0,1,124,210.89Z"/><path class="cls-5" d="M132.84,216l-5.75-3.32c-.46-.27-.41-.73.13-1l5.7-3.29a2,2,0,0,1,1.8-.08l5.76,3.33c.46.26.4.73-.13,1L134.64,216A2,2,0,0,1,132.84,216Z"/><path class="cls-5" d="M141.73,221.15,136,217.83c-.46-.27-.4-.73.13-1l5.7-3.29a2,2,0,0,1,1.81-.08l5.75,3.33c.46.26.4.73-.13,1l-5.7,3.29A2,2,0,0,1,141.73,221.15Z"/><path class="cls-5" d="M150.61,226.28,144.86,223c-.46-.27-.4-.73.13-1l5.7-3.29a2,2,0,0,1,1.8-.08l5.76,3.33c.46.26.4.73-.13,1l-5.7,3.29A2,2,0,0,1,150.61,226.28Z"/><path class="cls-5" d="M159.5,231.41l-5.75-3.32c-.47-.27-.41-.73.12-1l5.71-3.29a2,2,0,0,1,1.8-.08l5.75,3.33c.46.26.41.73-.13,1l-5.7,3.29A2,2,0,0,1,159.5,231.41Z"/><path class="cls-5" d="M168.38,236.54l-5.75-3.32c-.46-.27-.4-.73.13-1l5.7-3.29a2,2,0,0,1,1.8-.08l5.76,3.33c.46.26.4.73-.13,1l-5.7,3.29A2,2,0,0,1,168.38,236.54Z"/><path class="cls-5" d="M177.27,241.67l-5.75-3.32c-.47-.27-.41-.73.13-1l5.7-3.29a2,2,0,0,1,1.8-.08l5.75,3.33c.46.26.41.73-.13,1l-5.7,3.29A2,2,0,0,1,177.27,241.67Z"/><path class="cls-5" d="M186.16,246.8l-5.76-3.32c-.46-.27-.4-.73.13-1l5.7-3.29a2,2,0,0,1,1.8-.08l5.76,3.33c.46.26.4.73-.13,1l-5.7,3.29A2,2,0,0,1,186.16,246.8Z"/><path class="cls-5" d="M195,251.93l-5.75-3.32c-.46-.27-.41-.73.13-1l5.7-3.29a2,2,0,0,1,1.8-.08l5.75,3.33c.47.26.41.73-.13,1l-5.7,3.29A2,2,0,0,1,195,251.93Z"/><path class="cls-5" d="M128.16,203.33,122.41,200c-.46-.26-.4-.73.13-1l5.7-3.29a2,2,0,0,1,1.8-.07l5.76,3.32c.46.26.4.73-.13,1l-5.7,3.29A2,2,0,0,1,128.16,203.33Z"/><path class="cls-5" d="M119.15,198.13l-5.76-3.32c-.46-.27-.4-.74.13-1l5.7-3.3a2,2,0,0,1,1.8-.07l5.76,3.32c.46.27.4.73-.13,1l-5.7,3.29A2,2,0,0,1,119.15,198.13Z"/><path class="cls-5" d="M110.11,192.91l-12.39-7.15c-.46-.27-.4-.73.13-1l5.7-3.29a2,2,0,0,1,1.8-.08l12.4,7.16c.46.26.4.73-.13,1l-5.7,3.29A2,2,0,0,1,110.11,192.91Z"/><path class="cls-5" d="M116.43,186.57l-10.06-5.81c-.46-.26-.4-.73.13-1l5.7-3.29a2,2,0,0,1,1.8-.07l10.06,5.8c.46.27.4.74-.13,1l-5.7,3.3A2,2,0,0,1,116.43,186.57Z"/><path class="cls-5" d="M137.05,208.46l-5.75-3.32c-.47-.26-.41-.73.12-1l5.71-3.29a2,2,0,0,1,1.8-.07l5.75,3.32c.46.26.41.73-.13,1l-5.7,3.29A2,2,0,0,1,137.05,208.46Z"/><path class="cls-5" d="M145.93,213.59l-5.75-3.32c-.46-.26-.4-.73.13-1l5.7-3.29a2,2,0,0,1,1.8-.07l5.76,3.32c.46.26.4.73-.13,1l-5.7,3.29A2,2,0,0,1,145.93,213.59Z"/><path class="cls-5" d="M154.82,218.72l-5.75-3.32c-.47-.26-.41-.73.13-1l5.7-3.29a2,2,0,0,1,1.8-.07l5.75,3.32c.46.26.41.73-.13,1l-5.7,3.29A2,2,0,0,1,154.82,218.72Z"/><path class="cls-5" d="M163.71,223.85,158,220.53c-.46-.26-.4-.73.13-1l5.7-3.29a2,2,0,0,1,1.8-.07l5.76,3.32c.46.26.4.73-.13,1l-5.7,3.29A2,2,0,0,1,163.71,223.85Z"/><path class="cls-5" d="M172.59,229l-5.75-3.32c-.46-.26-.41-.73.13-1l5.7-3.29a2,2,0,0,1,1.8-.07l5.75,3.32c.47.26.41.73-.13,1l-5.7,3.29A2,2,0,0,1,172.59,229Z"/><path class="cls-5" d="M181.48,234.11l-5.76-3.32c-.46-.26-.4-.73.13-1l5.7-3.29a2,2,0,0,1,1.81-.07l5.75,3.32c.46.26.4.73-.13,1l-5.7,3.29A2,2,0,0,1,181.48,234.11Z"/><path class="cls-5" d="M190.36,239.24l-5.75-3.32c-.46-.26-.41-.73.13-1l5.7-3.29a2,2,0,0,1,1.8-.07l5.75,3.32c.47.26.41.73-.12,1l-5.71,3.29A2,2,0,0,1,190.36,239.24Z"/><path class="cls-5" d="M199.25,244.37l-5.76-3.32c-.46-.26-.4-.73.13-1l5.7-3.29a2,2,0,0,1,1.81-.07l5.75,3.32c.46.26.4.73-.13,1l-5.7,3.29A2,2,0,0,1,199.25,244.37Z"/><path class="cls-5" d="M208.13,249.5l-5.75-3.32c-.46-.26-.4-.73.13-1l5.7-3.29a2,2,0,0,1,1.8-.07l5.76,3.32c.46.26.4.73-.13,1l-5.7,3.29A2,2,0,0,1,208.13,249.5Z"/><path class="cls-5" d="M223.93,258.62l-12.55-7.24c-.47-.27-.41-.74.12-1l5.71-3.3A2,2,0,0,1,219,247l12.55,7.25c.46.26.41.73-.13,1l-5.7,3.29A2,2,0,0,1,223.93,258.62Z"/><path class="cls-5" d="M241.23,248.64l-10.6-6.12c-.46-.27-.4-.73.13-1l5.7-3.29a2,2,0,0,1,1.8-.08l10.6,6.12c.46.27.4.73-.13,1l-5.7,3.29A2,2,0,0,1,241.23,248.64Z"/><path class="cls-5" d="M152.61,207.46l-5.75-3.32c-.47-.27-.41-.73.13-1l5.7-3.29a2,2,0,0,1,1.8-.08l5.75,3.32c.46.27.41.74-.13,1l-5.7,3.3A2,2,0,0,1,152.61,207.46Z"/><path class="cls-5" d="M143.5,202.2l-5.75-3.32c-.46-.27-.4-.73.13-1l5.7-3.29a2,2,0,0,1,1.8-.08l5.76,3.33c.46.26.4.73-.13,1l-5.7,3.29A2,2,0,0,1,143.5,202.2Z"/><path class="cls-5" d="M134.4,197l-5.76-3.33c-.46-.26-.4-.73.13-1l5.7-3.29a2,2,0,0,1,1.81-.07l5.75,3.32c.46.27.4.73-.13,1l-5.7,3.29A2,2,0,0,1,134.4,197Z"/><path class="cls-5" d="M125.29,191.69l-5.75-3.32c-.47-.27-.41-.74.13-1.05l5.7-3.29a2,2,0,0,1,1.8-.07l5.75,3.32c.46.27.41.73-.13,1l-5.7,3.29A2,2,0,0,1,125.29,191.69Z"/><path class="cls-5" d="M161.49,212.59l-5.75-3.32c-.46-.27-.4-.73.13-1l5.7-3.29a2,2,0,0,1,1.8-.08l5.76,3.32c.46.27.4.74-.13,1l-5.7,3.3A2,2,0,0,1,161.49,212.59Z"/><path class="cls-5" d="M170.38,217.72l-5.75-3.32c-.47-.27-.41-.73.13-1l5.7-3.29a2,2,0,0,1,1.8-.08l5.75,3.32c.47.27.41.74-.13,1l-5.7,3.3A2,2,0,0,1,170.38,217.72Z"/><path class="cls-5" d="M179.27,222.85l-5.76-3.32c-.46-.27-.4-.73.13-1l5.7-3.29a2,2,0,0,1,1.8-.08l5.76,3.32c.46.27.4.74-.13,1l-5.7,3.3A2,2,0,0,1,179.27,222.85Z"/><path class="cls-5" d="M188.15,228l-5.75-3.32c-.46-.27-.41-.73.13-1l5.7-3.29a2,2,0,0,1,1.8-.08l5.75,3.32c.47.27.41.74-.13,1l-5.7,3.3A2,2,0,0,1,188.15,228Z"/><path class="cls-5" d="M197,233.11l-5.76-3.32c-.46-.27-.4-.73.13-1l5.7-3.29a2,2,0,0,1,1.81-.08l5.75,3.32c.46.27.4.74-.13,1l-5.7,3.3A2,2,0,0,1,197,233.11Z"/><path class="cls-5" d="M205.92,238.24l-5.75-3.32c-.46-.27-.41-.73.13-1l5.7-3.29a2,2,0,0,1,1.8-.08l5.76,3.32c.46.27.4.74-.13,1l-5.71,3.3A2,2,0,0,1,205.92,238.24Z"/><path class="cls-5" d="M214.81,243.37l-5.76-3.32c-.46-.27-.4-.73.13-1l5.7-3.29a2,2,0,0,1,1.81-.08l5.75,3.32c.46.27.4.74-.13,1l-5.7,3.3A2,2,0,0,1,214.81,243.37Z"/><path class="cls-5" d="M223.69,248.5l-5.75-3.32c-.46-.27-.4-.73.13-1l5.7-3.29a2,2,0,0,1,1.8-.08l5.76,3.32c.46.27.4.74-.13,1l-5.7,3.3A2,2,0,0,1,223.69,248.5Z"/><path class="cls-5" d="M232.58,253.63l-5.76-3.32c-.46-.27-.4-.73.13-1l5.71-3.29a2,2,0,0,1,1.8-.08l5.75,3.32c.46.27.41.74-.13,1l-5.7,3.3A2,2,0,0,1,232.58,253.63Z"/><path class="cls-5" d="M147.93,194.77l-5.75-3.32c-.46-.27-.41-.73.13-1l5.7-3.29a2,2,0,0,1,1.8-.08l5.75,3.32c.47.27.41.74-.13,1l-5.7,3.29A2,2,0,0,1,147.93,194.77Z"/><path class="cls-5" d="M139.09,189.67l-5.75-3.32c-.47-.27-.41-.74.13-1l5.7-3.29a2,2,0,0,1,1.8-.07l5.75,3.32c.46.27.41.73-.13,1l-5.7,3.29A2,2,0,0,1,139.09,189.67Z"/><path class="cls-5" d="M130.25,184.56l-5.76-3.32c-.46-.27-.4-.73.13-1l5.71-3.29a2,2,0,0,1,1.8-.08l5.75,3.33c.46.26.41.73-.13,1l-5.7,3.29A2,2,0,0,1,130.25,184.56Z"/><path class="cls-5" d="M121.41,179.46l-5.76-3.32c-.46-.27-.4-.74.13-1l5.7-3.3a2,2,0,0,1,1.81-.07l5.75,3.32c.46.27.4.73-.13,1l-5.7,3.29A2,2,0,0,1,121.41,179.46Z"/><path class="cls-5" d="M130.5,174.21l-5.76-3.32c-.46-.27-.4-.74.13-1l1.89-1.09a2,2,0,0,1,1.8-.08l5.75,3.33c.47.26.41.73-.12,1l-1.89,1.08A2,2,0,0,1,130.5,174.21Z"/><path class="cls-5" d="M142,180.87l-5.76-3.32c-.46-.27-.4-.73.13-1l1.89-1.09a2,2,0,0,1,1.8-.07l5.75,3.32c.46.26.41.73-.13,1l-1.88,1.09A2,2,0,0,1,142,180.87Z"/><path class="cls-5" d="M150.84,186l-5.75-3.32c-.46-.26-.41-.73.13-1l1.88-1.09a2,2,0,0,1,1.8-.07l5.76,3.32c.46.27.4.73-.13,1l-1.89,1.09A2,2,0,0,1,150.84,186Z"/><path class="cls-5" d="M159.65,191l-5.76-3.32c-.46-.27-.4-.74.13-1.05l1.89-1.08a2,2,0,0,1,1.8-.08l5.75,3.32c.46.27.41.74-.13,1L161.45,191A2,2,0,0,1,159.65,191Z"/><path class="cls-5" d="M168.45,196.12l-5.75-3.32c-.47-.27-.41-.73.13-1l1.88-1.09a2,2,0,0,1,1.8-.08l5.76,3.33c.46.26.4.73-.13,1l-1.89,1.09A2,2,0,0,1,168.45,196.12Z"/><path class="cls-5" d="M217.6,224.5l-5.75-3.32c-.46-.27-.4-.74.13-1l1.88-1.09a2,2,0,0,1,1.81-.08l5.75,3.33c.46.26.4.73-.13,1l-1.88,1.08A2,2,0,0,1,217.6,224.5Z"/><path class="cls-5" d="M226.41,229.58l-5.76-3.32c-.46-.27-.4-.73.13-1l1.89-1.09a2,2,0,0,1,1.8-.07l5.75,3.32c.47.27.41.73-.13,1l-1.88,1.09A2,2,0,0,1,226.41,229.58Z"/><path class="cls-5" d="M235.21,234.67l-5.75-3.33c-.46-.26-.41-.73.13-1l1.88-1.08a2,2,0,0,1,1.8-.08l5.76,3.32c.46.27.4.73-.13,1L237,234.59A2,2,0,0,1,235.21,234.67Z"/><path class="cls-5" d="M244,239.75l-5.76-3.32c-.46-.27-.4-.74.13-1l1.89-1.09a2,2,0,0,1,1.8-.08l5.75,3.33c.46.26.41.73-.13,1l-1.88,1.08A2,2,0,0,1,244,239.75Z"/><path class="cls-5" d="M156.82,199.9l-5.76-3.32c-.46-.27-.4-.73.13-1l5.7-3.29a2,2,0,0,1,1.81-.08l5.75,3.32c.46.27.4.74-.13,1l-5.7,3.29A2,2,0,0,1,156.82,199.9Z"/><path class="cls-5" d="M165.7,205,160,201.71c-.46-.27-.41-.73.13-1l5.7-3.29a2,2,0,0,1,1.8-.08l5.75,3.32c.47.27.41.74-.12,1L167.5,205A2,2,0,0,1,165.7,205Z"/><path class="cls-5" d="M174.59,210.16l-5.76-3.32c-.46-.27-.4-.73.13-1l5.7-3.29a2,2,0,0,1,1.81-.08l5.75,3.32c.46.27.4.74-.13,1.05l-5.7,3.29A2,2,0,0,1,174.59,210.16Z"/><path class="cls-5" d="M183.47,215.29,177.72,212c-.46-.27-.41-.73.13-1l5.7-3.29a2,2,0,0,1,1.8-.08l5.76,3.32c.46.27.4.74-.13,1.05l-5.71,3.29A2,2,0,0,1,183.47,215.29Z"/><path class="cls-5" d="M192.36,220.42l-5.76-3.32c-.46-.27-.4-.73.13-1l5.7-3.29a2,2,0,0,1,1.81-.08L200,216c.46.26.4.73-.13,1l-5.7,3.29A2,2,0,0,1,192.36,220.42Z"/><path class="cls-5" d="M201.24,225.55l-5.75-3.32c-.46-.27-.4-.73.13-1l5.7-3.29a2,2,0,0,1,1.8-.08l5.76,3.33c.46.26.4.73-.13,1l-5.7,3.29A2,2,0,0,1,201.24,225.55Z"/><path class="cls-5" d="M210.13,230.68l-5.75-3.32c-.47-.27-.41-.73.12-1l5.71-3.29A2,2,0,0,1,212,223l5.75,3.33c.46.26.41.73-.13,1l-5.7,3.29A2,2,0,0,1,210.13,230.68Z"/><path class="cls-5" d="M219,235.81l-5.75-3.32c-.46-.27-.4-.73.13-1l5.7-3.29a2,2,0,0,1,1.8-.08l5.76,3.32c.46.27.4.74-.13,1l-5.7,3.29A2,2,0,0,1,219,235.81Z"/><path class="cls-5" d="M227.9,240.94l-5.75-3.32c-.47-.27-.41-.73.13-1l5.7-3.29a2,2,0,0,1,1.8-.08l5.75,3.32c.46.27.41.74-.13,1.05l-5.7,3.29A2,2,0,0,1,227.9,240.94Z"/><path class="cls-5" d="M106,200.53l-17-9.78c-.46-.27-.4-.73.13-1l5.7-3.29a2,2,0,0,1,1.8-.08l17,9.79c.46.26.4.73-.13,1l-5.7,3.29A2,2,0,0,1,106,200.53Z"/><path class="cls-5" d="M215.18,263.56l-17-9.78c-.46-.27-.4-.74.13-1.05l5.7-3.29a2,2,0,0,1,1.8-.07l16.95,9.78c.46.27.4.73-.13,1l-5.7,3.29A2,2,0,0,1,215.18,263.56Z"/><path class="cls-5" d="M179.64,254.37l-5.75-3.32c-.46-.26-.41-.73.13-1l6.79-3.92a2,2,0,0,1,1.8-.07l5.76,3.32c.46.26.4.73-.13,1l-6.8,3.92A2,2,0,0,1,179.64,254.37Z"/><path class="cls-5" d="M115.12,217.12l-9.21-5.31c-.46-.27-.4-.73.13-1l6.8-3.92a2,2,0,0,1,1.8-.08l9.2,5.31c.46.27.4.74-.13,1l-6.79,3.93A2,2,0,0,1,115.12,217.12Z"/><path class="cls-5" d="M171.08,249.43l-9.2-5.31c-.46-.27-.4-.73.13-1l6.79-3.92a2,2,0,0,1,1.8-.08l9.2,5.32c.47.26.41.73-.12,1l-6.8,3.92A2,2,0,0,1,171.08,249.43Z"/><path class="cls-5" d="M127.94,224.52l-9.21-5.31c-.46-.27-.4-.73.13-1l6.79-3.92a2,2,0,0,1,1.81-.08l9.2,5.32c.46.26.4.73-.13,1l-6.79,3.92A2,2,0,0,1,127.94,224.52Z"/><path class="cls-5" d="M127.52,214.21l40,23.1a.54.54,0,0,1,0,1l-6.93,4a2,2,0,0,1-1.8,0l-40-23.09Z"/><path class="cls-5" d="M204.48,263.68l6.4,3.7c.38.21.34.6-.1.85l-2.78,1.6a1.62,1.62,0,0,1-1.48.06l-6.41-3.7c-.37-.21-.33-.6.11-.85l2.78-1.6A1.62,1.62,0,0,1,204.48,263.68Z"/><path class="cls-5" d="M195.52,258.5l6.41,3.7c.37.22.33.6-.11.86l-2.78,1.6a1.65,1.65,0,0,1-1.48.06l-6.4-3.7c-.38-.22-.34-.6.1-.85l2.78-1.61A1.65,1.65,0,0,1,195.52,258.5Z"/><path class="cls-5" d="M186.63,253.37l6.41,3.7c.38.22.33.6-.11.86l-2.77,1.6a1.65,1.65,0,0,1-1.48.06l-6.41-3.7c-.38-.22-.33-.6.11-.85l2.77-1.61A1.65,1.65,0,0,1,186.63,253.37Z"/><path class="cls-5" d="M200.42,255.67l6.41,3.7c.38.22.33.6-.1.85L204,261.83a1.65,1.65,0,0,1-1.48.06l-6.41-3.7c-.38-.22-.33-.6.11-.85l2.78-1.61A1.63,1.63,0,0,1,200.42,255.67Z"/></g><path class="cls-17" d="M291.07,117.42a2.76,2.76,0,0,1-1.34-.38,3.88,3.88,0,0,1-1.88-4,2,2,0,0,1,1.13-1.43,2.38,2.38,0,0,1,2.13.23,3.92,3.92,0,0,1,1.88,4,2,2,0,0,1-1.13,1.43A1.89,1.89,0,0,1,291.07,117.42Zm-1.3-5.32a1.22,1.22,0,0,0-.54.11,1.38,1.38,0,0,0-.78,1A3.29,3.29,0,0,0,290,116.5a1.77,1.77,0,0,0,1.58.2,1.41,1.41,0,0,0,.77-1,3.26,3.26,0,0,0-1.59-3.29A2.06,2.06,0,0,0,289.77,112.1Z"/><path class="cls-17" d="M298.4,121.65a2.73,2.73,0,0,1-1.34-.38,3.94,3.94,0,0,1-1.88-4,2,2,0,0,1,1.13-1.43,2.38,2.38,0,0,1,2.13.23,3.92,3.92,0,0,1,1.88,4,2,2,0,0,1-1.13,1.43A1.92,1.92,0,0,1,298.4,121.65Zm-1.3-5.32a1.42,1.42,0,0,0-.55.11,1.35,1.35,0,0,0-.77,1,3.25,3.25,0,0,0,1.59,3.29,1.78,1.78,0,0,0,1.57.2,1.42,1.42,0,0,0,.78-1h0a3.29,3.29,0,0,0-1.59-3.29A2.09,2.09,0,0,0,297.1,116.33Z"/><path class="cls-17" d="M307.34,124.22a1.75,1.75,0,0,1-2.8,1,3.59,3.59,0,0,1-1.73-3.63,1.75,1.75,0,0,1,2.8-1A3.6,3.6,0,0,1,307.34,124.22Z"/><polygon class="cls-17" points="166.87 43.38 162.95 41.12 163.25 39.31 167.17 41.57 166.87 43.38"/><polygon class="cls-17" points="172.56 46.67 168.65 44.41 168.95 42.6 172.87 44.86 172.56 46.67"/><polygon class="cls-17" points="161.23 40.13 152.64 35.17 152.94 33.35 161.53 38.32 161.23 40.13"/><g id="Слой_1-2" data-name="Слой 1"><polygon class="cls-17" points="161.62 57.94 152.26 52.53 152.62 50.36 161.99 55.77 161.62 57.94"/><polygon class="cls-17" points="169.62 62.55 164.93 59.85 165.3 57.68 169.98 60.38 169.62 62.55"/><polygon class="cls-17" points="163.54 64.61 159.55 62.3 159.91 60.14 163.9 62.44 163.54 64.61"/><polygon class="cls-17" points="170.22 68.47 165.54 65.76 165.9 63.6 170.58 66.3 170.22 68.47"/><polygon class="cls-17" points="177.1 78 158.69 67.38 159.06 65.22 177.46 75.84 177.1 78"/><polygon class="cls-17" points="161.15 120.5 142.74 109.87 143.11 107.71 161.51 118.33 161.15 120.5"/><polygon class="cls-17" points="168.22 124.58 163.54 121.88 163.9 119.72 168.59 122.42 168.22 124.58"/><polygon class="cls-17" points="161.83 74.76 157.84 72.46 158.21 70.29 162.2 72.59 161.83 74.76"/><polygon class="cls-17" points="168.52 78.62 163.84 75.92 164.2 73.75 168.88 76.45 168.52 78.62"/><polygon class="cls-17" points="167.11 83.37 156.99 77.53 157.36 75.37 167.47 81.21 167.11 83.37"/><polygon class="cls-17" points="173.88 87.28 169.2 84.58 169.56 82.41 174.24 85.12 173.88 87.28"/><polygon class="cls-17" points="180.69 91.21 176 88.51 176.37 86.34 181.05 89.05 180.69 91.21"/><polygon class="cls-17" points="191.67 97.55 182.81 92.44 183.18 90.27 192.04 95.39 191.67 97.55"/><polygon class="cls-17" points="184.66 104.64 179.98 101.94 180.34 99.77 185.02 102.47 184.66 104.64"/><polygon class="cls-17" points="195.65 110.98 186.78 105.87 187.15 103.7 196.01 108.82 195.65 110.98"/><polygon class="cls-17" points="159.97 90.39 155.29 87.68 155.65 85.52 160.34 88.22 159.97 90.39"/><polygon class="cls-17" points="166.78 94.32 162.1 91.61 162.46 89.45 167.14 92.15 166.78 94.32"/><polygon class="cls-17" points="177.76 100.66 168.91 95.54 169.27 93.38 178.13 98.49 177.76 100.66"/><polygon class="cls-17" points="192.16 103.4 187.48 100.7 187.84 98.53 192.52 101.24 192.16 103.4"/><polygon class="cls-17" points="198.97 107.33 194.28 104.63 194.65 102.46 199.33 105.17 198.97 107.33"/><polygon class="cls-17" points="209.95 113.67 201.09 108.56 201.45 106.39 210.31 111.51 209.95 113.67"/><polygon class="cls-17" points="175.55 128.81 170.87 126.11 171.23 123.94 175.91 126.65 175.55 128.81"/><polygon class="cls-17" points="186.53 135.16 177.67 130.04 178.03 127.87 186.9 132.99 186.53 135.16"/><polygon class="cls-17" points="158.27 100.54 153.59 97.84 153.95 95.67 158.63 98.37 158.27 100.54"/><polygon class="cls-17" points="169.26 106.88 160.4 101.77 160.76 99.6 169.62 104.72 169.26 106.88"/><polygon class="cls-17" points="180.65 137.32 175.97 134.62 176.33 132.46 181.01 135.16 180.65 137.32"/><polygon class="cls-17" points="191.63 143.67 182.77 138.55 183.14 136.39 192 141.5 191.63 143.67"/><polygon class="cls-17" points="191.09 86.09 186.41 83.38 186.78 81.22 191.46 83.92 191.09 86.09"/><polygon class="cls-17" points="184.02 82 179.33 79.3 179.7 77.13 184.38 79.83 184.02 82"/><polygon class="cls-17" points="202.08 92.43 193.22 87.31 193.58 85.15 202.44 90.26 202.08 92.43"/><polygon class="cls-17" points="160.37 85.05 156.14 82.61 156.5 80.44 160.73 82.88 160.37 85.05"/><polygon class="cls-17" points="172.9 92.28 162.63 86.35 162.99 84.19 173.26 90.11 172.9 92.28"/><polygon class="cls-17" points="185.42 99.51 175.15 93.58 175.52 91.42 185.79 97.35 185.42 99.51"/><polygon class="cls-17" points="208.59 96.19 204.36 93.75 204.73 91.58 208.95 94.02 208.59 96.19"/><polygon class="cls-17" points="221.12 103.42 210.85 97.49 211.21 95.33 221.48 101.25 221.12 103.42"/><polygon class="cls-17" points="233.64 110.65 223.38 104.72 223.74 102.56 234.01 108.49 233.64 110.65"/><polygon class="cls-17" points="164.8 98.74 154.53 92.81 154.89 90.65 165.16 96.58 164.8 98.74"/><polygon class="cls-17" points="170.21 101.87 167.06 100.05 167.42 97.88 170.58 99.7 170.21 101.87"/><polygon class="cls-17" points="175.64 105 172.48 103.18 172.85 101.01 176 102.83 175.64 105"/><polygon class="cls-17" points="185.67 110.79 177.91 106.31 178.27 104.14 186.03 108.62 185.67 110.79"/><polygon class="cls-17" points="196.91 100.58 193.76 98.76 194.12 96.59 197.27 98.41 196.91 100.58"/><polygon class="cls-17" points="206.94 106.37 199.18 101.89 199.54 99.72 207.3 104.2 206.94 106.37"/><polygon class="cls-17" points="209.05 107.59 201.29 103.11 201.65 100.94 209.41 105.42 209.05 107.59"/><polygon class="cls-17" points="167.74 135.44 157.62 129.6 157.99 127.43 168.1 133.28 167.74 135.44"/><polygon class="cls-17" points="174.51 139.35 169.83 136.65 170.19 134.48 174.88 137.19 174.51 139.35"/><polygon class="cls-17" points="181.32 143.28 176.64 140.58 177 138.41 181.68 141.11 181.32 143.28"/><polygon class="cls-17" points="192.3 149.62 183.44 144.51 183.81 142.34 192.67 147.46 192.3 149.62"/><polygon class="cls-17" points="199.33 153.68 194.65 150.97 195.01 148.81 199.69 151.51 199.33 153.68"/><polygon class="cls-17" points="210.32 160.02 201.46 154.91 201.82 152.74 210.68 157.86 210.32 160.02"/><polygon class="cls-17" points="176.62 151.7 171.94 149 172.3 146.83 176.98 149.53 176.62 151.7"/><polygon class="cls-17" points="187.6 158.04 178.74 152.93 179.1 150.76 187.97 155.88 187.6 158.04"/><polygon class="cls-17" points="152.16 137.58 147.48 134.88 147.84 132.71 152.52 135.41 152.16 137.58"/><polygon class="cls-17" points="158.97 141.51 154.28 138.81 154.65 136.64 159.33 139.34 158.97 141.51"/><polygon class="cls-17" points="169.95 147.85 161.09 142.74 161.45 140.57 170.31 145.69 169.95 147.85"/><polygon class="cls-17" points="161 137.11 156.77 134.68 157.14 132.51 161.36 134.95 161 137.11"/><polygon class="cls-17" points="173.53 144.35 163.26 138.42 163.62 136.25 173.89 142.18 173.53 144.35"/><polygon class="cls-17" points="186.05 151.58 175.79 145.65 176.15 143.49 186.42 149.42 186.05 151.58"/><polygon class="cls-17" points="148.7 141.15 138.44 135.22 138.8 133.06 149.07 138.99 148.7 141.15"/><polygon class="cls-17" points="154.12 144.28 150.96 142.46 151.33 140.29 154.48 142.11 154.12 144.28"/><polygon class="cls-17" points="159.54 147.41 156.39 145.59 156.75 143.42 159.91 145.24 159.54 147.41"/><polygon class="cls-17" points="169.57 153.2 161.81 148.72 162.18 146.55 169.94 151.03 169.57 153.2"/><polygon class="cls-17" points="171.68 154.42 163.92 149.94 164.28 147.77 172.04 152.25 171.68 154.42"/><polygon class="cls-17" points="153.33 121.55 150.18 119.73 150.54 117.57 153.69 119.39 153.33 121.55"/><polygon class="cls-17" points="163.36 127.34 155.6 122.86 155.96 120.7 163.72 125.18 163.36 127.34"/><polygon class="cls-17" points="173.61 133.26 165.85 128.78 166.21 126.61 173.97 131.09 173.61 133.26"/><polygon class="cls-17" points="213.09 167.19 208.41 164.49 208.77 162.32 213.46 165.03 213.09 167.19"/><polygon class="cls-17" points="224.08 173.53 215.22 168.42 215.58 166.25 224.44 171.37 224.08 173.53"/><polygon class="cls-17" points="195.8 157.21 188.04 152.73 188.41 150.56 196.17 155.04 195.8 157.21"/><polygon class="cls-17" points="206.05 163.13 198.29 158.65 198.66 156.48 206.41 160.96 206.05 163.13"/><polygon class="cls-17" points="147.84 100.09 144.69 98.27 145.05 96.1 148.21 97.92 147.84 100.09"/><polygon class="cls-17" points="157.87 105.88 150.11 101.4 150.48 99.23 158.24 103.71 157.87 105.88"/><polygon class="cls-17" points="168.12 111.79 160.36 107.31 160.72 105.15 168.48 109.63 168.12 111.79"/><path class="cls-17" d="M287.9,168.14a3,3,0,0,1-1.51-.44l-42.93-24.78a5.94,5.94,0,0,1-2.55-5.77l2.74-16.38a3.12,3.12,0,0,1,1.61-2.4,2.69,2.69,0,0,1,2.55.21l42.92,24.78a6,6,0,0,1,2.56,5.77l-2.75,16.38a3.12,3.12,0,0,1-1.61,2.4A2.42,2.42,0,0,1,287.9,168.14Zm-41.61-49.26a1.71,1.71,0,0,0-.71.15,2.39,2.39,0,0,0-1.2,1.86l-2.75,16.38a5.17,5.17,0,0,0,2.2,5l42.92,24.78a2,2,0,0,0,1.87.18,2.38,2.38,0,0,0,1.2-1.85L292.56,149a5.18,5.18,0,0,0-2.2-5l-42.92-24.78A2.35,2.35,0,0,0,246.29,118.88Z"/><path class="cls-17" d="M283.19,196.28a3,3,0,0,1-1.52-.44l-42.92-24.78a5.94,5.94,0,0,1-2.56-5.77l2.74-16.38a3.1,3.1,0,0,1,1.62-2.4,2.68,2.68,0,0,1,2.54.21L286,171.5a6,6,0,0,1,2.56,5.77l-2.75,16.38a3.09,3.09,0,0,1-1.61,2.4A2.41,2.41,0,0,1,283.19,196.28ZM241.57,147a1.71,1.71,0,0,0-.71.15,2.41,2.41,0,0,0-1.2,1.86l-2.75,16.38a5.19,5.19,0,0,0,2.2,5L282,195.2a2,2,0,0,0,1.86.19,2.41,2.41,0,0,0,1.2-1.86l2.74-16.38a5.15,5.15,0,0,0-2.2-5l-42.92-24.78A2.27,2.27,0,0,0,241.57,147Z"/><path class="cls-18" d="M247.35,141.1c.76.44,1.44.27,1.69-.41l5-13.68c.57-1.56,2.9-.15,3.4,2.06l3.08,13.76a4,4,0,0,0,1.71,2.47l.74.42c.71.42,1.36.3,1.64-.3l1-2.16c.63-1.34,2.74-.08,3.31,2h0a4,4,0,0,0,1.67,2.29l.65.37c.78.45,1.47.26,1.7-.46l.93-2.86c.52-1.61,2.87-.27,3.4,1.95l3.09,12.75a4,4,0,0,0,1.73,2.42Z"/><path class="cls-17" d="M276.65,189.8a4.34,4.34,0,0,1-1.9-2.66l-3.09-12.74a3,3,0,0,0-2.13-2.38c-.18,0-.43,0-.57.45l-.92,2.86a1.36,1.36,0,0,1-.78.87,1.71,1.71,0,0,1-1.46-.21l-.65-.37a4.37,4.37,0,0,1-1.84-2.51,3,3,0,0,0-2.05-2.27.54.54,0,0,0-.57.34l-1,2.16a1.26,1.26,0,0,1-.78.7,1.73,1.73,0,0,1-1.38-.23l-.74-.43a4.32,4.32,0,0,1-1.88-2.7l-3.09-13.77a3,3,0,0,0-2.12-2.42c-.28,0-.46.11-.57.42l-5,13.67a1.29,1.29,0,0,1-.77.82,1.74,1.74,0,0,1-1.44-.22l.36-.64a1,1,0,0,0,.82.16.55.55,0,0,0,.34-.37l5-13.68a1.3,1.3,0,0,1,1.31-.9,3.74,3.74,0,0,1,2.79,3l3.08,13.77a3.66,3.66,0,0,0,1.54,2.22l.74.43a1,1,0,0,0,.8.17A.54.54,0,0,0,259,173l1-2.16a1.27,1.27,0,0,1,1.3-.76c1.1.09,2.29,1.33,2.7,2.8a3.66,3.66,0,0,0,1.5,2.07l.65.37a1,1,0,0,0,.82.16.61.61,0,0,0,.35-.41l.92-2.86a1.32,1.32,0,0,1,1.3-1c1,0,2.4,1.23,2.82,2.94L275.46,187a3.67,3.67,0,0,0,1.55,2.18Z"/></g></g></g></g></g></svg>