<svg xmlns="http://www.w3.org/2000/svg" viewBox="0 0 586.87 479.56"><defs><style>.cls-1{fill:#2c4480;}.cls-2{fill:#ffc9b9;}.cls-3{fill:#6a33cc;}.cls-4{fill:#d7eeff;}.cls-5{fill:#506da6;}.cls-6{fill:#233560;}.cls-7{fill:#182642;}.cls-8{fill:#b61159;}.cls-9{fill:#fff;}</style></defs><g id="Слой_2" data-name="Слой 2"><g id="Научная_деятельность" data-name="Научная деятельность"><g id="OBJECT"><path class="cls-1" d="M293.24,140.44s-24.62,67.71-56.68,96.22c-7.37,6.56,1.87,39.62,8,40.08,32.29,2.44,70.72-72.3,73.31-89S303.26,133.06,293.24,140.44Z"/><path class="cls-2" d="M228.91,230S152,187.36,132,177.37,77.3,173,73,180.84s23,32,33.89,27.31,15.64-4.72,15.64-4.72,93.7,76.44,114.08,67.33S228.91,230,228.91,230Z"/><polygon class="cls-3" points="151.59 230.01 142.01 230.01 0 106.75 151.59 230.01"/><path class="cls-2" d="M102.75,188.23c11.77,8.07,8,27.8-5,28.23s-32.21-20.41-25.23-33S93.89,182.15,102.75,188.23Z"/><path class="cls-4" d="M231.12,228a7.83,7.83,0,0,1,7.24,3.08c7.8,10.52,29.49,40.36,26,42.48-4.24,2.57-33.86,12.67-35.83.85-1.37-8.21-3.87-26.87-5.26-37.5a7.8,7.8,0,0,1,6.79-8.77Z"/><path class="cls-5" d="M387.9,466s-61.25,41.09-126.41-19.72c0,0-.15-5.88-.33-15.25-.62-32.76-1.55-108.28,2.5-125.5,5.21-22.16,38.65-36.49,60.59-24.33S380.48,319,383.54,339.4,387.9,466,387.9,466Z"/><path class="cls-1" d="M301,282.93s32.54,63.42,82.52,56.47c0,0,3.06-41.27-26.48-64.73,0,0,33.88-76.89,40.83-94.26s-18.52-36.47-30.84-45.18-67.33-14.77-78.19,0-33,49.52-30.41,59.08S275,210.38,275,210.38s-.43,45.18-2.17,50.83-12.6,31.71-11.29,53C261.49,314.21,292.76,305.52,301,282.93Z"/><path class="cls-6" d="M288.86,135.23c-4.45,6.14-8.62,12.46-12.63,18.89s-7.85,13-11.26,19.72a98.78,98.78,0,0,0-4.62,10.36,38.15,38.15,0,0,0-1.61,5.41,9.53,9.53,0,0,0,.18,5.5,16.24,16.24,0,0,0,1.16,2.55,23.14,23.14,0,0,0,1.6,2.31,27.3,27.3,0,0,0,3.93,4,46.35,46.35,0,0,0,9.44,6.17l.13.07v.13c-.07,8.79-.27,17.58-.54,26.37-.14,4.39-.3,8.78-.54,13.17-.13,2.2-.26,4.39-.47,6.58-.07,1.1-.24,2.19-.37,3.29-.13.54-.21,1.1-.36,1.63s-.35,1.05-.53,1.56a227.17,227.17,0,0,0-7.86,25.14c-2.05,8.52-3.41,17.29-3,26.09a93.25,93.25,0,0,1,2.78-26.14,227.72,227.72,0,0,1,7.78-25.19c.19-.52.35-1,.52-1.56s.23-1.06.35-1.59c.13-1.08.29-2.16.36-3.26.2-2.18.32-4.38.44-6.57.24-4.38.38-8.77.51-13.17.25-8.78.38-17.57.5-26.35l.13.2a46.31,46.31,0,0,1-9.51-6.27,26.55,26.55,0,0,1-4-4.1,22.49,22.49,0,0,1-1.63-2.36,16.66,16.66,0,0,1-1.18-2.62,9.82,9.82,0,0,1-.17-5.68,36.66,36.66,0,0,1,1.64-5.47,100.39,100.39,0,0,1,4.66-10.37c3.45-6.76,7.31-13.29,11.36-19.7S284.36,141.33,288.86,135.23Z"/><path class="cls-7" d="M358.8,227.47a49.94,49.94,0,0,1-9.77,3.65,49.21,49.21,0,0,1-10.32,1.62,36.69,36.69,0,0,1-10.39-1,30.81,30.81,0,0,1-4.95-1.71,31.12,31.12,0,0,1-4.54-2.56,31.84,31.84,0,0,0,9.57,3.92,37.87,37.87,0,0,0,10.29.89,51.64,51.64,0,0,0,10.26-1.5A59.4,59.4,0,0,0,358.8,227.47Z"/><path class="cls-7" d="M301,183.45q-.24,6.21-.38,12.43l-.31,12.44q-.24,12.44-.23,24.87t.16,24.87q.12,6.22.32,12.44c.09,4.14.29,8.28.44,12.43-.5-8.28-.9-16.57-1.07-24.86s-.32-16.59-.31-24.88.17-16.59.38-24.88S300.54,191.73,301,183.45Z"/><path class="cls-1" d="M449.8,233.19s-14.33,20.42-27.36,28.24c0,0-38.88-60.17-51.05-79.28s-.33-46.55,23.41-20.78S449.8,233.19,449.8,233.19Z"/><path class="cls-2" d="M543,192.35s47.57,15.82,43.66,29.41-36.2,12.45-55.54-2.37c0,0-63.16,81.21-94.71,60.65l21.15-35.79s35.27-23.5,56.77-47.15,33.24-38,36.49-31.46S543,192.35,543,192.35Z"/><path class="cls-4" d="M455.85,236.58a7.76,7.76,0,0,1,1.69,7.67c-4,12.47-15.71,47.45-19.47,45.85-4.56-2-30-20.2-21.5-28.67,5.89-5.89,19.63-18.76,27.48-26.07a7.81,7.81,0,0,1,11.08.43Z"/><path class="cls-4" d="M301,183.45s24.33-16.51,42.57-24.76,42.14-15.86,26.5-27.37a41,41,0,0,0-32-7.39S303.63,159.12,301,183.45Z"/><path class="cls-4" d="M329.22,123.22s-19.51-6.37-30.37,0S278.43,137,283.21,147.83s16.07,27.8,17.81,35.62Z"/><path class="cls-8" d="M381.82,45.63s4.78,31.66,7.38,53-16.56,28.2-46.34,10.5c0,0-45.32,10.32-86.15-20C256.71,89.12,346.63,15.1,381.82,45.63Z"/><path class="cls-2" d="M330.76,98.66s-15.21-2-19.55-9.56c-6.22-10.88,5.64-13.25,10.86-10,0,0-2.12-36.06,25.25-45.18s32.09,15,34.7,30,4.28,45.05-16.29,48.55C344.66,116,339.23,105.83,330.76,98.66Z"/><path class="cls-8" d="M352.28,39.23s26.93,19.54,42.14,6.51S394,20.55,377.91,13.16,325.78-9,301,7.51,284.51,74.3,256.71,89.12C256.71,89.12,330.76,107,352.28,39.23Z"/><path class="cls-9" d="M365.51,91.92c-4.82,0-11.3-6.3-14.77,0s5.65,12.39,14.77,12S380.28,91.92,365.51,91.92Z"/><path class="cls-2" d="M354,113s1.75,23.56,0,25.73-43.45,17.82-50.4,31.28c0,0,3.9-36,13.46-46.48l3-34.38Z"/></g></g></g></svg>