<svg xmlns="http://www.w3.org/2000/svg" viewBox="0 0 496.6 590.92"><defs><style>.cls-1{fill:#798dea;}.cls-2{fill:#b5c4ff;}.cls-3{fill:#8b9df1;}.cls-4{fill:#fff;}.cls-5{fill:#e2e7ff;}.cls-6{fill:#ff7380;}.cls-7{fill:#dc913d;}.cls-8{fill:#e5a158;}.cls-9{fill:#f1b66c;}.cls-10{fill:#ffc583;}.cls-11{fill:#2e2e9c;}.cls-12{fill:#423fa6;}.cls-13{fill:#1f1f85;}.cls-14{fill:#4d4db3;}.cls-15{fill:#f6beaf;}.cls-16{fill:#f1a2af;}.cls-17{fill:#88a6ef;}.cls-18{fill:#99616b;}.cls-19{fill:#35324c;}</style></defs><g id="Слой_2" data-name="Слой 2"><g id="Научная_деятельность" data-name="Научная деятельность"><g id="OBJECTS"><polygon class="cls-1" points="470.39 456.03 488.29 443 487.12 409.21 205.79 303.22 0 422.04 264.59 574.78 470.39 456.03"/><polygon class="cls-2" points="264.97 590.92 0.38 438.17 0.38 421.2 264.97 573.95 264.97 590.92"/><polygon class="cls-2" points="0.37 352.88 264.97 505.62 470.76 386.86 206.17 234.06 0.37 352.88"/><path class="cls-3" d="M475.41,388.57l-4.65-1.71v16.92h0c15.13,5.67,20.43,33.93,5.9,46.88l-5.9,4.53v16.92s4-2,12.5-8.89C504.64,446,499.1,397.24,475.41,388.57Z"/><path class="cls-4" d="M71.34,346.21,277.16,465.32l136.58-78.65L207.08,266.47Z"/><polygon class="cls-4" points="469.37 396.15 432.41 421.01 262.81 517.72 23.68 379.67 23.68 426.08 262.81 564.13 469.37 445.33 469.37 396.15"/><polygon class="cls-5" points="265.15 562.78 469.37 445.33 469.37 396.15 432.41 421.01 265.94 515.94 265.15 562.78"/><polygon class="cls-3" points="470.76 472.11 264.97 590.92 264.97 573.95 470.76 455.19 470.76 472.11"/><polygon class="cls-3" points="470.76 403.78 264.97 522.6 264.97 505.62 470.76 386.87 470.76 403.78"/><polygon class="cls-5" points="264.97 522.6 0.38 369.85 0.38 352.88 264.97 505.62 264.97 522.6"/><polygon class="cls-6" points="307.4 511.6 307.4 564.7 321.25 541.78 332.63 549.37 331.23 498.29 307.4 511.6"/><polygon class="cls-7" points="35.85 346.87 19.89 335.25 20.94 305.12 271.76 210.62 455.25 316.56 219.34 452.75 35.85 346.87"/><polygon class="cls-8" points="219 467.14 454.91 330.95 454.91 315.81 219 452 219 467.14"/><polygon class="cls-9" points="454.92 254.9 219.01 391.08 35.52 285.2 271.43 148.96 454.92 254.9"/><path class="cls-10" d="M31.38,286.72l4.14-1.52v15.08h0c-13.48,5.05-18.22,30.25-5.26,41.8l5.26,4V361.2s-3.59-1.82-11.14-7.92C5.32,337.88,10.26,294.45,31.38,286.72Z"/><polygon class="cls-4" points="36.77 293.48 69.71 315.65 220.93 401.87 434.13 278.78 434.13 320.16 220.93 443.25 36.77 337.33 36.77 293.48"/><polygon class="cls-5" points="218.84 442.05 36.77 337.33 36.77 293.48 69.71 315.65 218.14 400.28 218.84 442.05"/><polygon class="cls-10" points="35.52 361.2 219 467.14 219 452 35.52 346.12 35.52 361.2"/><polygon class="cls-10" points="35.52 300.28 219 406.22 219 391.08 35.52 285.2 35.52 300.28"/><polygon class="cls-8" points="219 406.22 454.91 270.03 454.91 254.9 219 391.08 219 406.22"/><polygon class="cls-11" points="435.27 114.68 435.27 123.76 236.7 238.46 38.02 123.75 38.02 114.67 435.27 114.68"/><path class="cls-12" d="M125.91,145.86V251.27c0,36.55,50,66.18,111.75,66.18s111.75-29.63,111.75-66.18V145.86Z"/><path class="cls-13" d="M127.92,175.65c-3,.85,30.33,46.67,85.49,77.49,32.12,17.95,93.21,21.9,128.06,22.62,5.11-7.58,7.94-15.84,7.94-24.49V172.74L203.32,148.51S132.52,174.35,127.92,175.65Z"/><polygon class="cls-11" points="38.02 123.75 236.65 9.08 435.27 123.76 236.7 238.46 38.02 123.75"/><polygon class="cls-12" points="38.02 114.67 236.65 0 435.27 114.68 236.7 229.37 38.02 114.67"/><polygon class="cls-14" points="236.7 238.46 236.7 229.37 38.02 114.67 38.02 123.75 236.7 238.46"/><path class="cls-9" d="M326.75,279.62h8.31a8.27,8.27,0,0,0,8.24-8.87l-4.16-21.58a8.25,8.25,0,0,0-8.23-7.65h0a8.25,8.25,0,0,0-8.24,7.65l-4.16,21.58A8.27,8.27,0,0,0,326.75,279.62Z"/><polygon class="cls-9" points="329 280.29 333 280.29 333 159.57 223.32 94.89 221.28 98.34 329 161.86 329 280.29"/><path class="cls-9" d="M340.16,227a9.31,9.31,0,1,1-9.31-9.31A9.31,9.31,0,0,1,340.16,227Z"/><path class="cls-13" d="M398.16,552.45a3.86,3.86,0,0,1-2.74-3.35L360,294.33c-.27-1.93.75-3.55,2.29-3.6s3,1.45,3.26,3.39L401,548.88c.28,1.94-.75,3.55-2.29,3.61A2.28,2.28,0,0,1,398.16,552.45Z"/><path class="cls-13" d="M462,526.64a3.84,3.84,0,0,1-2.73-3.35L423.81,268.53c-.27-1.94.75-3.55,2.29-3.61s3,1.46,3.26,3.39L464.8,523.08c.27,1.93-.75,3.55-2.29,3.6A1.93,1.93,0,0,1,462,526.64Z"/><path class="cls-13" d="M370.66,347.77a3.47,3.47,0,0,1-2.35-2.06c-.83-1.77-.42-3.84.9-4.61l61.11-35.87c1.32-.79,3.06,0,3.88,1.8s.42,3.84-.9,4.61l-61.11,35.87A2.17,2.17,0,0,1,370.66,347.77Z"/><path class="cls-13" d="M376.54,393.11a3.51,3.51,0,0,1-2.36-2.05c-.82-1.78-.41-3.84.91-4.62l61.11-35.86c1.31-.79,3.06,0,3.88,1.8s.42,3.83-.91,4.61l-61.1,35.87A2.17,2.17,0,0,1,376.54,393.11Z"/><path class="cls-13" d="M382.42,438.45a3.45,3.45,0,0,1-2.36-2.05c-.82-1.77-.42-3.84.9-4.61l61.11-35.87c1.32-.78,3.07,0,3.89,1.8s.41,3.84-.91,4.61L383.94,438.2A2.14,2.14,0,0,1,382.42,438.45Z"/><path class="cls-13" d="M388.29,483.8a3.47,3.47,0,0,1-2.35-2.06c-.83-1.77-.42-3.84.9-4.61L448,441.26c1.32-.77,3.06,0,3.88,1.8s.42,3.84-.9,4.62l-61.11,35.86A2.17,2.17,0,0,1,388.29,483.8Z"/><path class="cls-13" d="M394.17,529.14a3.51,3.51,0,0,1-2.36-2c-.82-1.77-.41-3.84.91-4.62l61.11-35.86c1.32-.78,3.06,0,3.88,1.8s.42,3.84-.91,4.61l-61.1,35.87A2.17,2.17,0,0,1,394.17,529.14Z"/><path class="cls-15" d="M424,311.55a5.31,5.31,0,1,0,3.24-6.78A5.3,5.3,0,0,0,424,311.55Z"/><path class="cls-15" d="M431.69,312.12s14.59,30.22,15.94,35.56c1,4.11-6.58,9.93-9.6,6.74s-10.95-41-10.95-41Z"/><path class="cls-13" d="M460.06,365c-6-7.24-9.68-16-14-24.37-.53-1-1.19-2.15-2.31-2.43a4.11,4.11,0,0,0-2.61.49c-3.32,1.41-7.19,3.64-7.11,7.24a9.06,9.06,0,0,0,.89,3.24,366.71,366.71,0,0,0,23.15,45.91c1.38,2.31,3.16,4.86,5.84,5.11,2.85.28,5.17-2.19,6.7-4.6,2.58-4.05,7.16-12.15,4.76-17.11C472.89,373.35,463.93,369.71,460.06,365Z"/><path class="cls-15" d="M387.23,330.18a5.31,5.31,0,1,0,3.24-6.78A5.3,5.3,0,0,0,387.23,330.18Z"/><path class="cls-9" d="M482.35,557.3a9.23,9.23,0,0,1-8.82-6.53l-14.86-48.7a9.08,9.08,0,0,1-.34-1.63l-7.43-64.38A9.23,9.23,0,1,1,469.23,434l7.33,63.54,14.61,47.9A9.22,9.22,0,0,1,485,556.9,9.33,9.33,0,0,1,482.35,557.3Z"/><path class="cls-15" d="M444.88,355.93a16.13,16.13,0,1,0,22.41-4.31A16.14,16.14,0,0,0,444.88,355.93Z"/><path class="cls-9" d="M418.79,513.56a9.22,9.22,0,0,1-9-7l-9.9-40.45a9.22,9.22,0,0,1,4.54-10.29L440.79,436a9.22,9.22,0,1,1,8.83,16.19l-30.08,16.41,8.22,33.55a9.25,9.25,0,0,1-9,11.42Z"/><path class="cls-12" d="M424.52,510s-.31,6.62-.39,7.21-2.88,2-7,1.18-15.63-4.65-17.65-6.64,4.36-1.55,8.27-1.19,11.46-.56,11.46-.56Z"/><path class="cls-12" d="M468.87,416.78c2.16-4.84,5.38-17.75,5.38-17.75,3.63-10.9,2.5-16.95.88-20.13-5.72-2.86-15.52,1.78-15.52,1.78s-14.11,5-22.46,11.9c-2.94,2.42-1,15-.39,28.17.42,8.76-3.89,20.76-3.89,20.76s15,6.46,23.1,5.92,17.74-4.3,16.67-8.07S466.72,421.62,468.87,416.78Z"/><path class="cls-15" d="M394.9,330.75s14.59,30.22,15.94,35.56c1,4.11-6.58,9.93-9.6,6.74s-10.95-41-10.95-41Z"/><path class="cls-15" d="M459.33,366.36l2.41,17.31h0a10.35,10.35,0,0,1-9.84,6.19l-2-.07L446,371.59Z"/><path class="cls-6" d="M446.81,362.91c1.27-2,4.95-1.58,5.7.69.54,1.62.13,4.08-1.18,5.15a10.8,10.8,0,0,1-4.17,2.09c2.31,5.69,6.79,10,10.42,15,3.94-1.54,5.49-2.68,9.43-4.21a17,17,0,0,0,5.06-2.66c3.3-2.84,6.06-9.93,5.61-14.26-.63-6.1-3.9-10.82-8.68-14.66-3.7-3-10.27-3.48-14.87-2.14C448.06,349.67,448.17,357.53,446.81,362.91Z"/><path class="cls-13" d="M465.13,354.33A12.14,12.14,0,1,0,482,351.09,12.14,12.14,0,0,0,465.13,354.33Z"/><path class="cls-6" d="M467.25,353.28a13,13,0,1,0,18.11-3.48A13,13,0,0,0,467.25,353.28Z"/><path class="cls-12" d="M439.86,391.56l4.77,3.31a17.91,17.91,0,0,1,4.51,3.93,6.11,6.11,0,0,1,1.06,5.66c-1,2.55-4,3.62-6.64,4.21A57.11,57.11,0,0,1,431.83,410a57.37,57.37,0,0,1-11.22-5.39c-7.2-4.72-11.84-12.43-15.59-20.18-1.92-4-3.67-8-5.25-12.15,2.54.24,4.62-.56,7-1.4s4.53-3.06,4.39-5.61c2.85,5.62,5.57,11,8.43,16.64a30.24,30.24,0,0,0,3.43,5.71C426.44,391.71,434.58,392.42,439.86,391.56Z"/><path class="cls-12" d="M482.92,551.76s1.38,4.13,2.53,7.35,0,10.32,1.83,13.31,6.89.45,6.66-2.07-1.61-12.16-2.3-13.77-5.38-6.7-5.38-6.7Z"/><path class="cls-12" d="M421.84,201.94s-3.2,4.21-3.83,7,.48,4.15.48,4.15a64.8,64.8,0,0,0,6.31,3.2c1.53.49,5.54,5.84,9.16,7s8.06,3.56,9.33.78-14.43-19.23-14.43-19.23Z"/><path class="cls-12" d="M370.08,196.89s.36,3.22,3.22,3,5.38-3.22,5.38-3.22L378,208.18s-1.62,17.21-6.64,19-6.09-7.71-6.09-7.71Z"/><path class="cls-2" d="M383.4,88l.87,31.22-18.06,18.7-16.15-5a9.76,9.76,0,0,1-6.84-8.77l-.4-7.28s-8-8.66-5.37-9.32S375.24,83.4,375.24,83.4Z"/><path class="cls-2" d="M374.81,202.54a9.22,9.22,0,0,1-8-13.78c3.29-5.82,11.74-23.57,11.24-35.65-.23-5.58-14.76-15.49-27.6-20.62a9.22,9.22,0,0,1,6.85-17.13c6.39,2.56,38.32,16.36,39.18,37,.81,19.53-12.16,42.93-13.64,45.53A9.21,9.21,0,0,1,374.81,202.54Z"/><path class="cls-2" d="M425.87,209.09a9.24,9.24,0,0,1-9.19-8.52c-.88-11.4-4.34-43.68-9.72-55.91-3.19-7.25-19.28-15.18-29.7-18.49a9.23,9.23,0,0,1,5.57-17.59c5.51,1.74,33.39,11.31,41,28.65s10.87,57.41,11.22,61.93a9.22,9.22,0,0,1-8.49,9.9C426.35,209.08,426.1,209.09,425.87,209.09Z"/><path class="cls-8" d="M386.07,41.39l8.66,5.9s7.68,20.65,20.67,32.77c14.17,13.22,33.75,18.1,33.39,20.3-.7,4.21,2.95,8.46-2.62,7.2-2.78-.63-22.25-2.65-38-11.13S380.5,73,380.5,73Z"/><path class="cls-9" d="M358.68,52a53,53,0,0,1,25.22-9.64,19.77,19.77,0,0,1,6.17.14c6.24,1.55,7.81,5.69,8.06,7.75s-13.37,57.51-13.37,57.51S357.57,124.7,346.54,119c-8-4.11-8-8.76-7.42-11a27.25,27.25,0,0,0,.84-4.13l13.88-48.45Z"/><path class="cls-4" d="M374.22,45s-8.18,2.53-8.78,4.76,5.81,9.37,13.54,8.78,15.48-8,12.35-10.72S374.22,45,374.22,45Z"/><path class="cls-16" d="M392.46,37.3l-9.35,14.18h0A10.05,10.05,0,0,1,372,49.68h0a2.48,2.48,0,0,1-.46-3l7.92-14.08Z"/><path class="cls-15" d="M403.24,41.13a15.68,15.68,0,1,1-4.18-21.78A15.69,15.69,0,0,1,403.24,41.13Z"/><path class="cls-11" d="M402.87,36.45a3.88,3.88,0,0,0,2.43,0l.09-.05a15.67,15.67,0,0,0-28.11-12.86,14.61,14.61,0,0,0-1,1.78A5.3,5.3,0,0,0,378,26.46c1.51.55,7.16-.14,7.26-2.37l-.15,3.27a3.78,3.78,0,0,0,2.95-2.1A23.25,23.25,0,0,0,402.87,36.45Z"/><path class="cls-15" d="M382.55,27.72a4.77,4.77,0,1,1-1.28-6.63A4.78,4.78,0,0,1,382.55,27.72Z"/><path class="cls-15" d="M456.55,103.63a5.8,5.8,0,1,1-5.79-5.79A5.79,5.79,0,0,1,456.55,103.63Z"/><path class="cls-9" d="M353.84,55.42s-29.34,34-28.91,57.45a79,79,0,0,0,12.51,40.85l9.89-.44s-10.52-38.71-5.93-47.87S365.61,58.28,353.84,55.42Z"/><path class="cls-15" d="M347.46,158.06a6.79,6.79,0,1,1,.68-9.58A6.79,6.79,0,0,1,347.46,158.06Z"/><path class="cls-12" d="M59.59,203.57s3.2,4.21,3.83,7-.48,4.15-.48,4.15a64.05,64.05,0,0,1-6.32,3.2c-1.52.48-5.54,5.83-9.16,7s-8.05,3.56-9.33.77,14.43-19.23,14.43-19.23Z"/><path class="cls-12" d="M111.35,198.51s-.36,3.23-3.23,3.05-5.38-3.22-5.38-3.22l.72,11.47s1.61,17.21,6.63,19,6.1-7.71,6.1-7.71Z"/><path class="cls-9" d="M98,89.62l-.88,31.21,18.06,18.7,16.15-5a9.74,9.74,0,0,0,6.84-8.77l.41-7.28s8-8.67,5.37-9.32S106.19,85,106.19,85Z"/><path class="cls-9" d="M106.62,204.17a9.23,9.23,0,0,0,8-13.79c-3.3-5.81-11.75-23.56-11.24-35.64.23-5.58,14.76-15.49,27.59-20.63A9.22,9.22,0,1,0,124.13,117c-6.39,2.56-38.31,16.35-39.17,37-.82,19.54,12.15,42.93,13.63,45.54A9.24,9.24,0,0,0,106.62,204.17Z"/><path class="cls-9" d="M55.56,210.71a9.21,9.21,0,0,0,9.18-8.51c.88-11.41,4.34-43.68,9.73-55.91,3.18-7.25,19.28-15.18,29.69-18.49a9.23,9.23,0,0,0-5.57-17.59c-5.51,1.74-33.38,11.31-41,28.65S46.7,196.27,46.35,200.78a9.23,9.23,0,0,0,8.49,9.91C55.08,210.71,55.32,210.71,55.56,210.71Z"/><path class="cls-17" d="M99,36.52l-5.41,3.87s-22.27,53-21.84,57.28,5,7.24,8.48,6S96,71.79,96,71.79Z"/><path class="cls-2" d="M122.24,41.1s-17.61-5.61-24.81-3.81-6.75,11.92-7.35,14.32,3.87,60,3.87,60,26.92,21.13,40.13,14.53c9.54-4.77,10.31-10.17,10-12.8a32,32,0,0,1-.3-4.79l-7.91-56.27Z"/><circle class="cls-18" cx="103.64" cy="22.31" r="17.51" transform="translate(-2.01 31.08) rotate(-16.89)"/><path class="cls-18" d="M99.82,27l6,18h0a11.22,11.22,0,0,0,12.56,1.3h0a2.76,2.76,0,0,0,1.37-3.11l-4.44-17.48Z"/><path class="cls-17" d="M73.69,106.9h0a8.72,8.72,0,0,0,8.7-8.7h0a8.73,8.73,0,0,0-8.7-8.71h0A8.74,8.74,0,0,0,65,98.2h0A8.73,8.73,0,0,0,73.69,106.9Z"/><path class="cls-18" d="M56.24,97.38a6.47,6.47,0,1,0,6.47-6.47A6.47,6.47,0,0,0,56.24,97.38Z"/><path class="cls-17" d="M144.09,113.3c0,.25,0,.53,0,.83v.13a8.71,8.71,0,0,1-.06,1s0,.06,0,.09c-.32,2.28-1.69,5.34-6,8.38h0a70.18,70.18,0,0,1-7.39,3.35c-10.6,1.29-27.63-10.09-36-16.3a32.48,32.48,0,0,1,2.14-4.4l32.34-14.23,7.6-38.53.84-2-1.7.62,7.91,56.27A32,32,0,0,0,144.09,113.3Z"/><path class="cls-2" d="M134.85,76.19S118,42.9,122.24,41.1c0,0,14.84,3.34,17.85,9.94s21,49.39,20.06,55.1-6.4,7.71-21.12,11.59a177.47,177.47,0,0,1-24.92,4.77l-.55-6.3,27.33-16.34Z"/><path class="cls-5" d="M44.73,95.9l32.44,2.59s11,6.5,10.55,11.37S78,114.73,78,114.73L60.12,126.09Z"/><path class="cls-4" d="M68.31,117.29a10.7,10.7,0,0,0-2.19-7.68c-5.06-6.5-15-13.46-19.64-13.46l30.69,2.34s14.21,4.87,10.55,11.37S78,114.73,78,114.73Z"/><path class="cls-4" d="M60.78,124.81s6.69-12.08,14.11-12.52a48.94,48.94,0,0,0,12.83-2.43s15.81-1.5,22.44,6.36l3.57,4.29Z"/><path class="cls-13" d="M59.47,127.37,118.08,121a1.2,1.2,0,0,0-.26-2.38l-57,6.24-17.47-31a1.21,1.21,0,0,0-1.64-.45A1.19,1.19,0,0,0,41.22,95Z"/><path class="cls-18" d="M109.45,119.28a6.47,6.47,0,1,0,6.47-6.47A6.47,6.47,0,0,0,109.45,119.28Z"/><path class="cls-5" d="M104.81,118.23s-31.91-6.64-36.47-2.77-6.74,6.14-6.74,6.14l-.82,3.21,47.9-5.09Z"/><path class="cls-19" d="M106.42,27a11.58,11.58,0,0,1-.18-3.8,4,4,0,0,1,2.08-3,4.13,4.13,0,0,1,1.91-.3,4.68,4.68,0,0,1,3.54,1.67,4.76,4.76,0,0,1,.68,1.35,7.65,7.65,0,0,1-2.8,8.52,4.72,4.72,0,0,0,2.65,1.92,12.86,12.86,0,0,0,3,1c1.33,2.36.57,5.76.14,8.44s.12,4.31-.7,6.9c-1.92,6.13-3,12.75-1.34,19,2-4,5.93-6.45,8.88-9.77a18.19,18.19,0,0,0,4.72-13.63,14.08,14.08,0,0,0-8.2-11.52c3.56-3.94,4.55-10,3.64-15.22a17.8,17.8,0,0,0-9-12.46,25.82,25.82,0,0,0-10.67-2.62,23,23,0,0,0-5.38.19,18.4,18.4,0,0,0-11.18,7.2c-2.74,3.62-4.2,7.81-2.6,12.9,1.08-1.6,4.68-2.79,6.55-2.33s7,5.61,10,6.06C103.54,27.6,105.45,27.91,106.42,27Z"/><path class="cls-12" d="M117.34,33.8a2.44,2.44,0,0,0-.84.91,2,2,0,0,0,1.29,2.43,5.61,5.61,0,0,0,3,0l2-.36a4.12,4.12,0,0,0,1.85-.66,2.45,2.45,0,0,0,.75-2.55C124.4,30,119.25,32.37,117.34,33.8Z"/></g></g></g></svg>