<svg xmlns="http://www.w3.org/2000/svg" viewBox="0 0 435.53 42.11"><defs><style>.cls-1{fill:#0047ba;}.cls-2{fill:#eb0045;}</style></defs><g id="Слой_2" data-name="Слой 2"><g id="Подвал"><g id="Layer_1" data-name="Layer 1"><path class="cls-1" d="M14.89,24.3a2.53,2.53,0,1,1-2.53-2.53A2.53,2.53,0,0,1,14.89,24.3Z"/><path class="cls-1" d="M27,8a3.79,3.79,0,1,1-3.79-3.79A3.79,3.79,0,0,1,27,8Z"/><path class="cls-1" d="M37.93,13.41a3.8,3.8,0,1,1-3.8-3.79A3.8,3.8,0,0,1,37.93,13.41Z"/><path class="cls-1" d="M48.81,18.86A3.79,3.79,0,1,1,45,15.06,3.79,3.79,0,0,1,48.81,18.86Z"/><path class="cls-1" d="M37.93,24.3a3.8,3.8,0,1,1-3.8-3.79A3.8,3.8,0,0,1,37.93,24.3Z"/><path class="cls-1" d="M59.7,24.3a3.8,3.8,0,1,1-3.8-3.79A3.8,3.8,0,0,1,59.7,24.3Z"/><path class="cls-1" d="M58.43,35.19a2.53,2.53,0,1,1-2.52-2.53A2.52,2.52,0,0,1,58.43,35.19Z"/><path class="cls-1" d="M69.32,29.74a2.53,2.53,0,1,1-2.53-2.53A2.53,2.53,0,0,1,69.32,29.74Z"/><path class="cls-1" d="M70.58,18.86a3.79,3.79,0,1,1-3.79-3.8A3.79,3.79,0,0,1,70.58,18.86Z"/><path class="cls-1" d="M59.7,13.41a3.8,3.8,0,1,1-3.8-3.79A3.8,3.8,0,0,1,59.7,13.41Z"/><path class="cls-1" d="M47.55,29.74A2.53,2.53,0,1,1,45,27.21,2.53,2.53,0,0,1,47.55,29.74Z"/><path class="cls-1" d="M70.58,8a3.79,3.79,0,1,1-3.79-3.79A3.78,3.78,0,0,1,70.58,8Z"/><path class="cls-1" d="M77.68,0a2.53,2.53,0,1,1-2.53,2.53A2.53,2.53,0,0,1,77.68,0"/><path class="cls-1" d="M80.21,24.3a2.53,2.53,0,1,1-2.53-2.53A2.53,2.53,0,0,1,80.21,24.3Z"/><path class="cls-1" d="M47.55,8A2.53,2.53,0,1,1,45,5.44,2.53,2.53,0,0,1,47.55,8Z"/><path class="cls-1" d="M36.66,35.19a2.53,2.53,0,1,1-2.53-2.53A2.52,2.52,0,0,1,36.66,35.19Z"/><path class="cls-1" d="M27,18.86a3.79,3.79,0,1,1-3.79-3.8A3.79,3.79,0,0,1,27,18.86Z"/><path class="cls-2" d="M16.16,13.41a3.8,3.8,0,1,1-3.8-3.79A3.8,3.8,0,0,1,16.16,13.41Z"/><path class="cls-1" d="M3,29.74a1.48,1.48,0,1,1-1.48-1.48A1.48,1.48,0,0,1,3,29.74Z"/><path class="cls-1" d="M3,18.86a1.48,1.48,0,1,1-1.48-1.48A1.49,1.49,0,0,1,3,18.86Z"/><path class="cls-1" d="M24.73,29.67a1.48,1.48,0,1,1-1.48-1.48A1.47,1.47,0,0,1,24.73,29.67Z"/><path class="cls-1" d="M46.42,40.63a1.48,1.48,0,1,1-1.48-1.48A1.48,1.48,0,0,1,46.42,40.63Z"/><path class="cls-1" d="M13.84,2.53a1.48,1.48,0,1,1-1.48-1.48A1.48,1.48,0,0,1,13.84,2.53Z"/><path class="cls-1" d="M35.61,2.53a1.48,1.48,0,1,1-1.48-1.48A1.48,1.48,0,0,1,35.61,2.53Z"/><path class="cls-1" d="M46.42,40.63a1.48,1.48,0,1,1-1.48-1.48A1.48,1.48,0,0,1,46.42,40.63Z"/><path class="cls-1" d="M100.93,13.41a1.48,1.48,0,1,1-1.48-1.47A1.48,1.48,0,0,1,100.93,13.41Z"/><path class="cls-1" d="M79.16,35.18a1.48,1.48,0,1,1-1.48-1.47A1.48,1.48,0,0,1,79.16,35.18Z"/><path class="cls-1" d="M92.36,8a3.8,3.8,0,1,1-3.8-3.79A3.79,3.79,0,0,1,92.36,8Z"/><path class="cls-1" d="M81.47,13.41a3.8,3.8,0,1,1-3.79-3.79A3.8,3.8,0,0,1,81.47,13.41Z"/><path class="cls-1" d="M90,29.74a1.48,1.48,0,1,1-1.48-1.48A1.48,1.48,0,0,1,90,29.74Z"/><path class="cls-1" d="M91.09,18.86a2.53,2.53,0,1,1-2.53-2.53A2.53,2.53,0,0,1,91.09,18.86Z"/><path class="cls-1" d="M57.38,2.53a1.48,1.48,0,1,1-1.47-1.48A1.48,1.48,0,0,1,57.38,2.53Z"/><path class="cls-1" d="M100.93,2.53a1.48,1.48,0,1,1-1.48-1.48A1.49,1.49,0,0,1,100.93,2.53Z"/><path class="cls-1" d="M131.39,11a2.54,2.54,0,0,0,.19-1.92,1.57,1.57,0,0,0-.94-.83c-1.12-.41-2,.13-2.61,1.58l-4.21,10.19L118,9.65a2.82,2.82,0,0,0-1.22-1.3,1.78,1.78,0,0,0-1.58.11,1.59,1.59,0,0,0-.85,1.34,2.91,2.91,0,0,0,.46,1.72L122,23.91a6,6,0,0,1-1,1.82,1.56,1.56,0,0,1-1.23.59,2.91,2.91,0,0,1-.6-.06,4.08,4.08,0,0,1-.66-.21,4,4,0,0,0-.54-.18c-1.07-.35-1.8-.05-2.15.87a1.89,1.89,0,0,0,1.13,2.52,6.18,6.18,0,0,0,3,.63,4.36,4.36,0,0,0,3.43-1.56,19.91,19.91,0,0,0,2.77-4.94Z"/><path class="cls-1" d="M137.18,29.58a1.91,1.91,0,0,0,1.44-.56,2,2,0,0,0,.53-1.44V20.4h9.52v7.18a2,2,0,0,0,.51,1.44,2.16,2.16,0,0,0,2.9,0,2,2,0,0,0,.53-1.44V10.16a2.07,2.07,0,0,0-.53-1.45,2.1,2.1,0,0,0-2.9,0,2.1,2.1,0,0,0-.51,1.45v6.7h-9.52v-6.7a2.07,2.07,0,0,0-.53-1.45,2.1,2.1,0,0,0-2.9,0,2.1,2.1,0,0,0-.51,1.45V27.58a2,2,0,0,0,.51,1.44A1.89,1.89,0,0,0,137.18,29.58Z"/><path class="cls-1" d="M160.07,29.58a2.37,2.37,0,0,0,1.82-1.12l9.76-13.34V27.58a2,2,0,0,0,.51,1.42,2.18,2.18,0,0,0,2.94,0,2.08,2.08,0,0,0,.49-1.44V10.16c0-1.35-.63-2-1.88-2a2.33,2.33,0,0,0-1.88,1.1l-9.7,13.42V10.16a2.1,2.1,0,0,0-.51-1.45,1.83,1.83,0,0,0-1.46-.58,1.88,1.88,0,0,0-1.48.58,2.19,2.19,0,0,0-.49,1.45V27.58a2.06,2.06,0,0,0,.5,1.47A1.81,1.81,0,0,0,160.07,29.58Z"/><path class="cls-1" d="M193.28,18.1a4.72,4.72,0,0,0,1.82-1.73,5.13,5.13,0,0,0,.77-2.71C195.87,9.89,193.22,8,188,8a29.8,29.8,0,0,0-5,.37,2,2,0,0,0-1.85,2.18V27.31A1.91,1.91,0,0,0,183,29.4a35.57,35.57,0,0,0,5.24.34c5.73,0,8.64-2.24,8.64-6.64a5.1,5.1,0,0,0-1-3.2A5.59,5.59,0,0,0,193.28,18.1Zm-5.31-1h-3V11.44c.94-.09,1.85-.14,2.7-.14,2.82,0,4.18.89,4.18,2.73C191.84,16.1,190.58,17.1,188,17.1Zm3.79,8.6a6.18,6.18,0,0,1-3.36.74,28.48,28.48,0,0,1-3.44-.17V20.12h3.41c3,0,4.49,1,4.49,3.13A2.74,2.74,0,0,1,191.76,25.7Z"/><path class="cls-1" d="M215.61,29.1a1.66,1.66,0,0,0,.51-1.27,1.72,1.72,0,0,0-.51-1.31,2,2,0,0,0-1.36-.48h-8.76V20.33h6.73a1.92,1.92,0,0,0,1.39-.49,1.74,1.74,0,0,0,.52-1.29,1.66,1.66,0,0,0-.52-1.29,2,2,0,0,0-1.39-.46h-6.73V11.67h8.45a1.91,1.91,0,0,0,1.36-.48,1.69,1.69,0,0,0,.52-1.28,1.72,1.72,0,0,0-.52-1.3,1.91,1.91,0,0,0-1.36-.48H203.55a1.87,1.87,0,0,0-1.47.58,2.07,2.07,0,0,0-.53,1.45V27.55a2,2,0,0,0,.54,1.46,2,2,0,0,0,1.49.57h10.67A1.91,1.91,0,0,0,215.61,29.1Z"/><path class="cls-1" d="M234.84,14.89a6.18,6.18,0,0,0-2.22-5.24,9.78,9.78,0,0,0-6-1.67,24.67,24.67,0,0,0-4.76.4A2.07,2.07,0,0,0,220,10.65V27.58a2,2,0,0,0,.51,1.44,2.16,2.16,0,0,0,2.9,0,2,2,0,0,0,.53-1.44v-5.5a20.56,20.56,0,0,0,2.55.13,9.43,9.43,0,0,0,6-1.84A6.62,6.62,0,0,0,234.84,14.89ZM224,11.62a20,20,0,0,1,2.55-.17c2.83,0,4.2,1.16,4.2,3.53,0,2.55-1.44,3.78-4.42,3.78a18.08,18.08,0,0,1-2.33-.11Z"/><path class="cls-1" d="M252.16,25.05a8.53,8.53,0,0,1-4.3,1.3,5.43,5.43,0,0,1-4.31-2,8.3,8.3,0,0,1-1.71-5.52,8.67,8.67,0,0,1,1.59-5.44c1.71-2.2,4.53-2.63,8.32-1.18,1.28.48,2.12.28,2.5-.55a1.77,1.77,0,0,0-.78-2.4,10,10,0,0,0-5.76-1.44,9.31,9.31,0,0,0-7.35,3,11.77,11.77,0,0,0-2.64,8,12.2,12.2,0,0,0,2.49,8.05c1.65,2,4.14,3,7.38,3a10.44,10.44,0,0,0,6.34-1.84,2.36,2.36,0,0,0,1-1.39,1.55,1.55,0,0,0-.24-1.36C254.12,24.51,253.27,24.42,252.16,25.05Z"/><path class="cls-1" d="M274.72,8.13a2.32,2.32,0,0,0-1.88,1.1l-9.7,13.42V10.16a2.1,2.1,0,0,0-.51-1.45,1.83,1.83,0,0,0-1.46-.58,1.87,1.87,0,0,0-1.48.58,2.14,2.14,0,0,0-.49,1.45V27.58a2.1,2.1,0,0,0,.49,1.47,1.83,1.83,0,0,0,1.39.53,2.38,2.38,0,0,0,1.82-1.12l9.76-13.34V27.58a2,2,0,0,0,.51,1.42,2.18,2.18,0,0,0,2.94,0,2.13,2.13,0,0,0,.49-1.44V10.16C276.6,8.81,276,8.13,274.72,8.13Z"/><path class="cls-1" d="M298.38,9.88a1.67,1.67,0,0,0-.51-1.29,2,2,0,0,0-1.39-.46H281.91a2,2,0,0,0-1.36.46A1.68,1.68,0,0,0,280,9.88a1.72,1.72,0,0,0,.52,1.29,1.88,1.88,0,0,0,1.36.5h5.31V27.58a2.09,2.09,0,0,0,.51,1.44,2.18,2.18,0,0,0,2.92,0,2,2,0,0,0,.51-1.44V11.67h5.32a1.92,1.92,0,0,0,1.39-.5A1.72,1.72,0,0,0,298.38,9.88Z"/><path class="cls-1" d="M314.51,26h-8.75V20.33h6.73a1.92,1.92,0,0,0,1.39-.49,1.73,1.73,0,0,0,.51-1.29,1.66,1.66,0,0,0-.51-1.29,2,2,0,0,0-1.39-.46h-6.73V11.67h8.45a1.91,1.91,0,0,0,1.36-.48,1.68,1.68,0,0,0,.51-1.28,1.71,1.71,0,0,0-.51-1.3,1.91,1.91,0,0,0-1.36-.48H303.82a1.91,1.91,0,0,0-1.48.58,2.11,2.11,0,0,0-.52,1.45V27.55a2,2,0,0,0,.54,1.46,2,2,0,0,0,1.49.57h10.66a1.9,1.9,0,0,0,1.36-.48,1.63,1.63,0,0,0,.52-1.27,1.69,1.69,0,0,0-.52-1.31A1.94,1.94,0,0,0,314.51,26Z"/><path class="cls-1" d="M336.18,9.88a1.64,1.64,0,0,0-.52-1.29,2,2,0,0,0-1.39-.46H319.71a2,2,0,0,0-1.36.46,1.64,1.64,0,0,0-.52,1.29,1.72,1.72,0,0,0,.51,1.29,1.89,1.89,0,0,0,1.37.5H325V27.58a2,2,0,0,0,.51,1.44,2.18,2.18,0,0,0,2.92,0,2,2,0,0,0,.51-1.44V11.67h5.31a1.93,1.93,0,0,0,1.4-.5A1.72,1.72,0,0,0,336.18,9.88Z"/><path class="cls-1" d="M365.62,27.58V10.16c0-1.35-.63-2-1.88-2a2.32,2.32,0,0,0-1.88,1.1l-9.7,13.42V10.16a2.1,2.1,0,0,0-.51-1.45,1.83,1.83,0,0,0-1.46-.58,1.87,1.87,0,0,0-1.48.58,2.19,2.19,0,0,0-.49,1.45V27.58a2.06,2.06,0,0,0,.5,1.47,1.81,1.81,0,0,0,1.38.53,2.38,2.38,0,0,0,1.82-1.12l9.76-13.34V27.58a2,2,0,0,0,.51,1.42,2.18,2.18,0,0,0,2.94,0A2.13,2.13,0,0,0,365.62,27.58Z"/><path class="cls-1" d="M385.5,8.13H370.93a2,2,0,0,0-1.36.46,1.68,1.68,0,0,0-.52,1.29,1.72,1.72,0,0,0,.52,1.29,1.88,1.88,0,0,0,1.36.5h5.32V27.58a2.08,2.08,0,0,0,.5,1.44,1.92,1.92,0,0,0,1.46.56,1.89,1.89,0,0,0,1.46-.56,2,2,0,0,0,.51-1.44V11.67h5.32a1.92,1.92,0,0,0,1.39-.5,1.72,1.72,0,0,0,.52-1.29,1.68,1.68,0,0,0-.52-1.29A2,2,0,0,0,385.5,8.13Z"/><path class="cls-1" d="M408.57,8.13a2.24,2.24,0,0,0-1.91,1.23l-6,9.75-6.17-9.72a2.3,2.3,0,0,0-2-1.26,1.81,1.81,0,0,0-1.33.51,2.11,2.11,0,0,0-.51,1.55V27.58c0,1.33.62,2,1.84,2s1.85-.67,1.85-2V15.66l4.31,6.77a2.13,2.13,0,0,0,1.83,1.13,2.09,2.09,0,0,0,1.8-1.16l4.25-6.88V27.58A2,2,0,0,0,407,29a2.16,2.16,0,0,0,2.9,0,2,2,0,0,0,.51-1.44V10.16A2.21,2.21,0,0,0,410,8.7,1.72,1.72,0,0,0,408.57,8.13Z"/><path class="cls-1" d="M432.85,10.94a10.71,10.71,0,0,0-15.11,0,11.82,11.82,0,0,0-2.65,7.92,11.8,11.8,0,0,0,2.65,7.93,10.76,10.76,0,0,0,15.11,0,11.71,11.71,0,0,0,2.68-7.93A11.74,11.74,0,0,0,432.85,10.94Zm-3,13.33a5.93,5.93,0,0,1-9,0,8.75,8.75,0,0,1-1.59-5.41,8.71,8.71,0,0,1,1.59-5.41,5.91,5.91,0,0,1,9,0,8.77,8.77,0,0,1,1.58,5.41A8.81,8.81,0,0,1,429.82,24.27Z"/></g></g></g></svg>